<?xml version="1.0" standalone="no"?>
<!DOCTYPE svg PUBLIC "-//W3C//DTD SVG 1.1//EN" "http://www.w3.org/Graphics/SVG/1.1/DTD/svg11.dtd" >
<svg xmlns="http://www.w3.org/2000/svg">
<metadata></metadata>
<defs>
<font id="Glasgow-DemiBoldRegular" horiz-adv-x="1128" >
<font-face units-per-em="2048" ascent="1638" descent="-410" />
<missing-glyph horiz-adv-x="593" />
<glyph unicode=" "  horiz-adv-x="593" />
<glyph unicode="&#x09;" horiz-adv-x="593" />
<glyph unicode="&#xa0;" horiz-adv-x="593" />
<glyph unicode="!" horiz-adv-x="524" d="M76 1477h370l-92 -1127h-186zM84 100q0 53 53 91t127 38t126 -37.5t52 -91t-50 -90.5t-125 -37t-129 37t-54 90z" />
<glyph unicode="&#x22;" horiz-adv-x="825" d="M27 979l110 485h293l-266 -524zM387 979l111 485h293l-267 -524z" />
<glyph unicode="#" horiz-adv-x="1292" d="M78 438l26 123h236l76 352h-238l27 123h235l90 424h123l-90 -424h197l90 424h123l-90 -424h235l-24 -123h-236l-76 -352h236l-27 -123h-235l-90 -424h-123l90 424h-197l-90 -424h-123l90 424h-235zM463 561h196l76 352h-198z" />
<glyph unicode="$" horiz-adv-x="1046" d="M45 1058q0 175 113 296q55 61 132 99t163 38v113h180v-111l84 -8q66 -10 90 -16.5t49 -12.5t70 -20l-74 -244q-152 61 -259 61t-166.5 -42t-59.5 -110.5t41 -101.5l65 -47l121 -55q102 -47 159.5 -79t154 -103.5t96.5 -270.5q0 -341 -373 -452v-105h-178v86l-80 2 q-37 0 -94 17q-80 12 -230 63l76 250q188 -82 299.5 -82t175.5 47t64 119t-56 115q-47 41 -186 106l-178 86q-35 20 -117 103.5t-82 258.5z" />
<glyph unicode="%" horiz-adv-x="1613" d="M61 1123q0 185 95.5 282.5t275.5 97.5t277.5 -99t97.5 -283.5t-96.5 -283t-275.5 -98.5t-276.5 99.5t-97.5 284.5zM98 0l1248 1477h172l-1248 -1477h-172zM315 1122q0 -90 31 -144t87 -54t87 52t31 146q0 197 -118 197t-118 -197zM811 350q0 381 369 381q178 0 275 -99.5 t97 -282.5t-93 -282.5t-274 -99.5t-277.5 99.5t-96.5 283.5zM1063 352q0 -92 31 -147q33 -51 86 -51q119 0 118 196q0 90 -31.5 142.5t-86.5 52.5t-86 -50.5t-31 -142.5z" />
<glyph unicode="&#x26;" horiz-adv-x="1363" d="M53 399q0 147 67.5 236.5t186.5 167.5q-49 82 -84 166q-24 73 -24 149q0 178 114.5 280.5t293 102.5t282.5 -92t104 -238q0 -113 -62.5 -203.5t-217.5 -193.5l67 -84l68 -78l129 -116l55 59l53 72l168 -142l-51 -73l-57 -72l196 -156l-190 -200l-59 41l-142 112 q-182 -174 -405 -174t-357.5 122t-134.5 314zM336 429.5q0 -97.5 62.5 -158t168 -60.5t191.5 92l-160 158l-72 76l-73 86q-117 -96 -117 -193.5zM479 1135q0 -55 16.5 -97.5t59.5 -99.5q164 96 164 229q0 51 -31 87t-83 36t-89 -43t-37 -112z" />
<glyph unicode="'" horiz-adv-x="464" d="M27 979l110 485h293l-266 -524z" />
<glyph unicode="(" horiz-adv-x="571" d="M61 735q0 272 91.5 447.5t152.5 257.5l96 125l95 104l55 -41l-57 -117l-50 -137q-29 -94 -56.5 -279.5t-27.5 -390.5t31 -375.5t53 -234.5q47 -134 107 -250l-55 -41l-97 107l-120 156q-82 113 -150 295t-68 374z" />
<glyph unicode=")" horiz-adv-x="569" d="M20 -154l46 95l45 110q68 209 91 500q9 104 9 203q0 231 -35 397q-31 182 -57 246l-43 110q-14 39 -56 119l56 41l37 -37q27 -29 55 -63l125 -162q82 -109 149.5 -292t67.5 -413.5t-79 -385t-107 -199.5l-80 -115l-74 -92l-94 -103z" />
<glyph unicode="*" horiz-adv-x="772" d="M49 1063l227 78l-225 88l96 166l185 -160l-41 242h192l-47 -242l191 156l94 -170l-232 -82l228 -80l-101 -166l-186 156l55 -236h-194l41 240l-187 -158z" />
<glyph unicode="+" d="M147 653v217h308v310h219v-310h307v-217h-307v-299h-219v299h-308z" />
<glyph unicode="," horiz-adv-x="438" d="M-10 -242l110 484h291l-264 -521z" />
<glyph unicode="-" horiz-adv-x="659" d="M47 428v221h563v-221h-563z" />
<glyph unicode="." horiz-adv-x="448" d="M47 102q0 53 54 92t126 39t124 -37.5t52 -92t-50 -92.5t-125 -38t-130 37q-51 39 -51 92z" />
<glyph unicode="/" horiz-adv-x="690" d="M6 -25l549 1522h127l-547 -1522h-129z" />
<glyph unicode="0" d="M61 736.5q0 367.5 130 567t373 199.5t373 -197.5t130 -566.5t-129 -568.5t-370 -199.5t-374 199t-133 566.5zM408 664q0 -275 40.5 -365t116.5 -90q109 0 133 164q23 170 23 357q0 364 -53 468q-29 66 -103 66q-111 0 -135 -162q-22 -163 -22 -438z" />
<glyph unicode="1" d="M115 1186l483 291h166v-1211h264v-266h-868v266h262l4 834l-264 -78z" />
<glyph unicode="2" d="M106 0v201l50 53q274 301 400 492.5t126 306.5q0 80 -53.5 127t-159 47t-274.5 -99l-70 236q268 135 468.5 135t314.5 -105.5t114 -279.5q0 -119 -59.5 -249t-192.5 -298l-102 -125l-105 -123l-80 -83l539 -19v-217h-916z" />
<glyph unicode="3" d="M129 1436q223 65 401.5 65t297 -88t118.5 -237q0 -119 -83 -220.5t-230 -162.5q150 0 242 -91.5t92 -232.5q0 -217 -147.5 -319.5t-292 -138.5t-334.5 -36l-58 236q229 0 358.5 70.5t129.5 193.5q0 94 -78 141q-74 49 -219 50l-88 -7v220h38q162 0 265.5 62.5 t103.5 160.5q0 158 -215 158q-115 0 -244 -52z" />
<glyph unicode="4" d="M55 297v186l428 994h340l-440 -953h262l117 606h190v-606h117v-225h-117v-299h-342v297h-555z" />
<glyph unicode="5" d="M109 195q242 0 392 91t150 222q0 92 -93 146.5t-255 54.5l-123 -7l49 775h709v-213l-424 -29l-16 -340h47q199 0 324.5 -105.5t125.5 -273.5q0 -238 -230 -389.5t-595 -151.5z" />
<glyph unicode="6" d="M90 580q0 371 196.5 602t585.5 315l68 -194q-238 -80 -356.5 -198t-155.5 -314q127 78 238 77q166 0 271 -120.5t105 -321.5t-127 -328t-343.5 -127t-349 166t-132.5 443zM408 549q0 -153 59 -255.5t134 -103t117 52t42 151t-59.5 176t-140 77.5t-150.5 -47z" />
<glyph unicode="7" d="M104 0l547 1229l-532 22v226h907v-146l-537 -1331h-385z" />
<glyph unicode="8" d="M74 379q0 236 243 362q-202 164 -202 367q0 172 127 280.5t319 108.5t313 -99.5t121 -254.5q0 -193 -209 -326q141 -96 206 -191.5t65 -209.5q0 -190 -141.5 -315.5t-357.5 -125.5t-350 112t-134 292zM352 410q0 -84 56.5 -138.5t140.5 -54.5t138 49t54 130t-90 147 l-168 104q-131 -109 -131 -237zM430 1126q0 -70 41 -119t147 -110q123 86 123 215q0 70 -47 117q-43 49 -112.5 49t-110.5 -41t-41 -111z" />
<glyph unicode="9" d="M84 1038.5q0 196.5 129 327.5t344 131t348 -165t133 -449q0 -729 -780 -912l-70 197l62 22q256 92 364 260q60 91 91 232q-111 -80 -242 -80q-164 0 -271.5 120t-107.5 316.5zM367 1079.5q0 -98.5 60 -177.5t135 -79t157 45l2 37q0 162 -57.5 268.5t-147.5 106.5 q-66 0 -107.5 -51t-41.5 -149.5z" />
<glyph unicode=":" horiz-adv-x="509" d="M76 799q0 55 53 91t128 36t126 -39t51 -90t-51 -90t-126 -39t-130 37q-51 39 -51 94zM78 102q0 53 54 92t126 39t124 -37.5t52 -92t-50 -92.5t-125 -38t-130 37q-51 39 -51 92z" />
<glyph unicode=";" horiz-adv-x="538" d="M18 -242l111 484h291l-264 -521zM106.5 798q-0.5 52 53 91t126.5 39t124 -39t51 -90t-50.5 -89t-125 -38t-127.5 35q-51 39 -51.5 91z" />
<glyph unicode="&#x3c;" horiz-adv-x="516" d="M61 526l240 412l156 -61l-162 -351l160 -342l-158 -55z" />
<glyph unicode="=" d="M63 526v201h1002v-201h-1002zM63 801v203h1002v-203h-1002z" />
<glyph unicode="&#x3e;" horiz-adv-x="518" d="M61 184l160 342l-151 355l149 59l238 -414l-242 -395z" />
<glyph unicode="?" horiz-adv-x="772" d="M20 1446q184 53 351 53t276 -87t109 -234q0 -86 -22 -132q-36 -80 -75 -135l-67 -88l-119 -143q-23 -27 -56.5 -84t-33.5 -188v-58h-227l-13 76l-2 78q0 87 13 121q28 69 94 161l125 181q57 98 57 151q0 139 -164 139l-82 -6l-104 -24zM94 100q0 53 53 91t126 38 t127.5 -36.5t54.5 -90.5q0 -53 -50.5 -91t-125.5 -38q-76 0 -130.5 37t-54.5 90z" />
<glyph unicode="@" horiz-adv-x="1744" d="M115 735q0 215 97 388t258 265.5t259 104.5t145 12q272 0 453.5 -179t181.5 -445l-2 -70q0 -33 -22 -129q-18 -104 -93 -208.5t-152 -138.5t-138.5 -34t-106.5 37t-55 100v29q-16 -39 -41 -70q-76 -88 -170 -88q-47 0 -155.5 47t-108.5 342l8 72q18 121 73.5 219 t134.5 155.5t151 57.5q148 0 196 -123l16 105h105l-74 -430l-26 -170l-7 -72q0 -39 9 -55q16 -57 82 -58l28 7q45 14 92 69t71 105q39 86 52 147l13 86l2 59q0 225 -145.5 371t-366.5 146q-51 0 -185.5 -19.5t-285 -203t-150.5 -439.5v-37l4 -37q0 -57 13.5 -105t68.5 -166 t198.5 -213t311.5 -95q123 0 235.5 46t180.5 107l92 86l55 70l31 -102l-49 -60q-238 -252 -541 -252t-502.5 183.5t-220 357.5t-20.5 225zM594 598q0 -175 125 -195l24 -2q94 0 160 166l39 123l25 107l10 69l2 43q0 35 4 49v25q-6 53 -44 89t-72.5 36t-46 -3t-44.5 -15.5 t-70.5 -62.5t-55.5 -105q-29 -85 -42 -146l-12 -90z" />
<glyph unicode="A" horiz-adv-x="1101" d="M-51 0l391 1477h424l389 -1477h-344l-100 426h-316l-98 -426h-346zM434 657h238l-94 408l-23 135l-4 76l-12 -137z" />
<glyph unicode="B" horiz-adv-x="1144" d="M88 0v1477h543q223 0 319.5 -84t96.5 -262.5t-76 -255t-256 -101.5q203 0 293 -90t90 -285q0 -399 -418 -399h-592zM426 221h152q106 0 145 47t39 171t-43 169t-172 45h-121v-432zM428 854h119q96 0 138 44t42 146.5t-22 141.5q-29 65 -138 65h-139v-397z" />
<glyph unicode="C" horiz-adv-x="1003" d="M53 731q0 362 153.5 565t428.5 203q145 0 309 -61l-43 -221q-106 36 -188 36h-4q-158 0 -229.5 -127t-71.5 -395t73.5 -390t231.5 -122q106 0 231 60l33 -234q-193 -72 -340 -72q-279 0 -431.5 198t-152.5 560z" />
<glyph unicode="D" horiz-adv-x="1202" d="M88 0v1477h436q221 0 353.5 -75t202 -244t69.5 -413q0 -745 -637 -745h-424zM428 248h109q113 0 162 51t70.5 114.5t21.5 159.5l6 164q0 342 -95 437q-63 57 -167 57l-107 -2v-981z" />
<glyph unicode="E" horiz-adv-x="1005" d="M88 0v1477h862v-228l-520 -28v-347h436v-227h-436v-381l526 -26v-240h-868z" />
<glyph unicode="F" horiz-adv-x="935" d="M88 0v1477h866v-230l-526 -28v-347h438v-227h-438v-645h-340z" />
<glyph unicode="G" horiz-adv-x="1265" d="M53 730q0 374 160 571.5t461 197.5q203 0 428 -113l-76 -212q-166 83 -292 83h-3q-80 0 -157 -41q-162 -84 -162 -487q0 -272 66.5 -389t219.5 -117q82 0 168 39v344h-256v223h568v-741q-304 -115 -506 -115q-301 0 -460 191.5t-159 565.5z" />
<glyph unicode="H" horiz-adv-x="1228" d="M88 0v1477h344v-598h365v598h344v-1477h-344v651h-367v-651h-342z" />
<glyph unicode="I" horiz-adv-x="516" d="M88 0v1477h340v-1477h-340z" />
<glyph unicode="J" horiz-adv-x="522" d="M-6 -223q63 80 84 178l10 94l4 146v1282h342v-1428q-6 -37 -10 -69.5t-39 -99t-76 -107.5t-71 -66l-64 -53z" />
<glyph unicode="K" horiz-adv-x="1126" d="M88 0v1477h340v-539q0 -43 -8 -90l47 117l295 512h352l-414 -684l478 -793h-387l-320 549q-25 45 -49 133l8 -147v-535h-342z" />
<glyph unicode="L" horiz-adv-x="894" d="M88 0v1477h342v-1211l488 -28v-238h-830z" />
<glyph unicode="M" horiz-adv-x="1609" d="M29 0l153 1477h396l192 -801q2 -6 9 -51.5t14 -73.5q10 -90 10 -145l14 141q10 86 10 89t13 40l192 801h393l156 -1477h-334l-78 903l-4 129v62l-2 61l-18 -121l-15 -84l-6 -45l-196 -905h-246l-197 905l-10 58l-29 192l-2 -47l-4 -205l-78 -903h-333z" />
<glyph unicode="N" horiz-adv-x="1234" d="M88 0v1477h361l376 -904l64 -227l-10 123l-11 113v895h279v-1477h-363l-372 893l-66 231l19 -247v-877h-277z" />
<glyph unicode="O" horiz-adv-x="1239" d="M53 736q0 359 148 560t419 201t418.5 -197.5t147.5 -560t-148.5 -563.5t-416.5 -201t-418 201t-150 560zM403 737q0 -250 55.5 -384t161 -134t162 132t56.5 384t-55.5 385t-161.5 133q-218 0 -218 -516z" />
<glyph unicode="P" horiz-adv-x="1071" d="M88 0v1477h422q102 0 230 -25t216 -140.5t88 -293.5q0 -257 -186 -390q-100 -71 -315 -71h-115v-557h-340zM428 784h72q115 0 166 54.5t51 170.5t-44 164t-147 48h-98v-437z" />
<glyph unicode="Q" horiz-adv-x="1239" d="M53 737q0 358 147.5 559t419 201t419 -197.5t147.5 -551.5q0 -708 -506 -771v-12q0 -98 139 -98q35 0 109 12l33 -180q-145 -49 -269 -49q-231 0 -231 168l6 80q6 39 27 92q-440 104 -441 747zM403 737q0 -250 55.5 -384t161 -134t162 132t56.5 384t-55.5 385t-161.5 133 q-218 0 -218 -516z" />
<glyph unicode="R" horiz-adv-x="1140" d="M88 0v1477h504q231 0 353 -98.5t122 -271.5t-97.5 -280.5t-252.5 -107.5l483 -719h-375l-397 647v-647h-340zM428 862h68q115 0 168 47t53 152q0 188 -193 188h-96v-387z" />
<glyph unicode="S" horiz-adv-x="1046" d="M45 1070.5q0 187.5 139.5 308t370.5 120.5q164 0 373 -63l-74 -244q-152 61 -258 61t-165.5 -42t-59.5 -109t41 -107q24 -19 94 -59l158 -72q102 -45 221 -133t119 -290t-153 -336t-394 -134q-180 0 -406 84l76 250q180 -82 296.5 -82t178.5 47t62 121t-39 105.5 t-88 56.5l-144 70q-88 41 -139 72.5t-130 109.5t-79 265.5z" />
<glyph unicode="T" horiz-adv-x="972" d="M-16 1247v230h1003v-232l-334 -26v-1219h-338v1219z" />
<glyph unicode="U" horiz-adv-x="1232" d="M88 422v1055h342v-1041q0 -213 186 -213t187 213v1041h342v-1055q0 -94 -36 -197.5t-170 -179.5t-321 -76q-113 0 -210 28t-208.5 112t-111.5 313z" />
<glyph unicode="V" horiz-adv-x="1069" d="M-33 1477h357l184 -942l14 -107l15 -135l6 121l20 121l182 942h357l-363 -1477h-409z" />
<glyph unicode="W" horiz-adv-x="1656" d="M2 1477h348l133 -916l11 -102l8 -162l28 264l164 916h273l170 -965l10 -104l12 -111l19 264l133 916h344l-266 -1477h-361l-174 879l-25 225q0 -72 -6 -115q0 -35 -16 -110l-172 -879h-363z" />
<glyph unicode="X" horiz-adv-x="1144" d="M-2 0l313 803l-282 674h352l156 -418l18 -74l16 -90q18 106 37 164l156 418h350l-283 -674l316 -803h-356l-183 537l-37 153l-18 -86l-16 -67l-185 -537h-354z" />
<glyph unicode="Y" horiz-adv-x="1077" d="M-53 1477h372l181 -476q10 -25 20 -77l17 -101q12 129 34 178l187 476h372l-430 -912v-565h-342v565z" />
<glyph unicode="Z" horiz-adv-x="1007" d="M35 0v162l489 989q31 57 82 98q-18 -8 -55 -16l-55 -4h-9l-434 18v230h918v-174l-482 -973l-28 -41l-47 -60q51 29 102 29h10l447 -18v-240h-938z" />
<glyph unicode="[" horiz-adv-x="512" d="M88 -193v1860h412v-172h-135v-1513h135v-175h-412z" />
<glyph unicode="\" horiz-adv-x="686" d="M78 1475h221l258 -1475h-221z" />
<glyph unicode="]" horiz-adv-x="512" d="M10 -18h135v1513h-135v172h412v-1860h-412v175z" />
<glyph unicode="^" horiz-adv-x="638" d="M6 1245l313 248l314 -242l-76 -102l-238 139l-237 -139z" />
<glyph unicode="_" horiz-adv-x="964" d="M78 0h737v-74h-737v74z" />
<glyph unicode="`" horiz-adv-x="516" d="M6 1374l158 156l272 -289l-98 -90z" />
<glyph unicode="a" horiz-adv-x="1036" d="M39 312.5q0 154.5 104.5 255t276.5 100.5q113 0 235 -33v76l-4 57q-23 90 -176 90q-111 0 -262 -51l-70 211q237 65 423 65t265.5 -61t98 -112.5t18.5 -172.5v-737h-276l-19 88q-127 -115 -276 -115t-243.5 92.5t-94.5 247zM350 341.5q0 -68.5 43 -112.5 q45 -39 116.5 -39t145.5 48v251l-98 9q-92 0 -149.5 -44t-57.5 -112.5z" />
<glyph unicode="b" horiz-adv-x="1075" d="M88 0v1473l297 28v-500q115 80 240 80q178 0 283.5 -149.5t105.5 -397t-107.5 -404.5t-277.5 -157q-68 0 -122 20.5t-130 78.5l-25 -72h-264zM383 274q70 -36 130 -36h3q184 0 184 290q0 141 -49 220t-139 79q-62 0 -129 -41v-512z" />
<glyph unicode="c" horiz-adv-x="827" d="M61 527q0 259 121 406.5t336 147.5q143 0 275 -71l-48 -215q-88 53 -159 53q-104 0 -159.5 -81t-55.5 -233.5t55 -238.5q55 -80 150.5 -80t179.5 59l45 -223q-152 -76 -291 -76q-209 0 -329 146.5t-120 405.5z" />
<glyph unicode="d" horiz-adv-x="1077" d="M61 521q0 247 112 403.5t290 156.5q115 0 229 -75v467l297 26v-1499h-289v74q-131 -101 -245 -101q-174 0 -284 150.5t-110 397.5zM379 523q0 -298 188 -298q63 0 127 41v514q-64 41 -125 41q-190 0 -190 -298z" />
<glyph unicode="e" horiz-adv-x="1015" d="M61 534.5q0 262.5 125 405.5t341 143t330 -138t114 -402l-8 -113h-576q31 -233 287 -233q80 0 219 43l47 -207q-180 -58 -336 -58q-258 0 -400.5 148.5t-142.5 411zM356 610h336v19q0 115 -44 179t-122 64q-170 0 -170 -262z" />
<glyph unicode="f" horiz-adv-x="550" d="M2 858v199h111v127q0 309 336 309q106 0 217 -25l-48 -202l-81 14q-68 0 -97.5 -33t-29.5 -100v-90h202v-199l-202 -12v-846h-295v848z" />
<glyph unicode="g" horiz-adv-x="1011" d="M39 -72h246q0 -68 47 -96.5t160 -28.5q198 0 198 114q0 60 -57 75l-64 6l-88 4l-75 2h-78q-20 4 -31 4l-102 15q-59 12 -105.5 45.5t-46.5 76.5q0 18 19.5 44t82.5 87l117 101q-205 74 -205 313q0 184 118 289.5t326 105.5t316 -96q68 98 162 98l29 -2v-231l-33 4 q-27 0 -70 -18q29 -70 29 -152q0 -172 -106.5 -266t-311.5 -94l-98 6q-61 -61 -62 -90q0 -20 45 -33q62 -8 174 -8h89q43 0 181 -19.5t138 -253.5q0 -338 -481 -338q-240 0 -351.5 79t-111.5 257zM352 702q0 -94 40 -146t110 -52q150 0 150 199q0 202 -148 202 q-68 0 -110 -54.5t-42 -148.5z" />
<glyph unicode="h" horiz-adv-x="1062" d="M88 0v1473l295 28v-506q139 90 284.5 90t209 -66.5t81 -120.5t17.5 -153v-745h-295v668l-4 73q-6 45 -46 74t-104.5 29t-142.5 -56v-788h-295z" />
<glyph unicode="i" horiz-adv-x="475" d="M66 1350q0 57 49 100t120 43t123 -41t52 -96t-49.5 -100.5t-122 -45.5t-122.5 41t-50 99zM90 0v1055l295 26v-1081h-295z" />
<glyph unicode="j" horiz-adv-x="479" d="M8 -309q12 16 22.5 35.5t18.5 31.5l29 76l12 74l2 135v1012l297 26v-1069q0 -84 -6 -133t-35 -117.5t-158 -167.5zM66 1351.5q0 57.5 50 100.5t121 43t123 -41t52 -97t-50.5 -100.5t-123 -44.5t-122.5 41t-50 98.5z" />
<glyph unicode="k" horiz-adv-x="995" d="M88 0v1473l295 28v-729l-4 -108q12 57 47 100l209 293h328l-330 -457l430 -600h-361l-274 406q-29 45 -49 108l2 -25v-43l2 -67v-379h-295z" />
<glyph unicode="l" horiz-adv-x="471" d="M88 0v1473l295 28v-1501h-295z" />
<glyph unicode="m" horiz-adv-x="1605" d="M88 0v1055l295 28v-75q137 77 257 77h3q166 0 254 -114q159 111 315 111h2q156 0 215.5 -72t69.5 -114q19 -80 19 -177v-719h-297v682l-7 57q-6 35 -43.5 69t-97.5 34t-127 -54v-788h-293v645l-4 84q0 43 -41 78t-99.5 35t-125.5 -49v-793h-295z" />
<glyph unicode="n" horiz-adv-x="1060" d="M88 0v1055l293 26v-80q164 84 294.5 84t195.5 -62t83.5 -125.5t18.5 -164.5v-733h-295v657l-4 78q-18 106 -137 107q-66 0 -154 -54v-788h-295z" />
<glyph unicode="o" horiz-adv-x="1077" d="M61 528q0 287 115 421t359 134t362.5 -135t118.5 -420t-116 -421t-362.5 -136t-361.5 133q-115 137 -115 424zM371 526.5q0 -350.5 169 -350.5t169 350t-170 351q-168 0 -168 -350.5z" />
<glyph unicode="p" horiz-adv-x="1077" d="M88 -377v1432l289 26l6 -86q116 82 233 82q182 0 291 -151.5t109 -401.5t-106.5 -400.5t-278.5 -150.5q-121 0 -248 93v-443h-295zM383 274q76 -38 130 -38h3q188 0 189 292q0 139 -50.5 218t-142.5 79q-59 0 -129 -39v-512z" />
<glyph unicode="q" horiz-adv-x="1075" d="M61 519q0 251 107.5 406.5t288.5 155.5q108 0 243 -82l-2 56l289 26v-1458h-295v449q-111 -98 -239 -99q-178 0 -285 147.5t-107 398.5zM377 514q0 -278 185 -278h1q70 0 131 40v512q-72 39 -129 39q-188 0 -188 -313z" />
<glyph unicode="r" horiz-adv-x="620" d="M88 0v1055l297 16v-86q111 92 231 92l33 -2l-26 -262l-82 8q-82 0 -158 -35v-786h-295z" />
<glyph unicode="s" horiz-adv-x="897" d="M37 33l61 225q147 -49 246 -49q199 0 199 92q0 41 -58 74l-67 33l-90 32q-54 17 -104 43.5t-113 87.5q-64 61 -64 202q0 139 118 228t297 89t376 -60l-62 -219q-190 57 -291 57q-147 0 -147 -84q0 -20 16 -43q23 -25 52 -36l110 -48l115 -49q117 -49 171 -115.5 t54 -168.5q0 -166 -119 -259.5t-311 -93.5t-389 62z" />
<glyph unicode="t" horiz-adv-x="600" d="M-2 864v193h113v155l297 39v-194h176v-187l-176 -22v-537l2 -61q10 -66 88 -66q41 0 88 17v-199q-100 -27 -193 -27q-150 0 -215 56.5t-65 193.5v627z" />
<glyph unicode="u" horiz-adv-x="1060" d="M88 291v764l295 28v-706q0 -160 145 -160q68 0 152 51v789h293v-1057h-293l-2 57q-146 -82 -275 -82q-315 0 -315 316z" />
<glyph unicode="v" horiz-adv-x="923" d="M-33 1055l318 28l161 -661l13 -62l10 -102l27 164l163 635h297l-311 -1057h-375z" />
<glyph unicode="w" horiz-adv-x="1544" d="M-6 1055l311 26l125 -626l14 -154l13 94l12 60l154 602h321l146 -598l10 -62l12 -92l6 78l146 674h286l-264 -1057h-334l-153 600l-29 207l-27 -195l-149 -612h-344z" />
<glyph unicode="x" horiz-adv-x="948" d="M-16 0l266 563l-234 492l314 26l129 -333l24 -97l13 62l149 344h289l-219 -492l243 -565h-307l-139 375q-9 28 -29 123q-18 -84 -37 -125l-153 -373h-309z" />
<glyph unicode="y" horiz-adv-x="935" d="M-33 1055l312 26l165 -649l15 -84l6 -51l4 -29l6 78l21 88l168 623h307l-340 -1159q-18 -64 -51 -142q-69 -164 -287 -164q-137 0 -273 41l60 205q43 -18 74 -24l69 -7q63 0 97 27t59 96l22 70h-145z" />
<glyph unicode="z" horiz-adv-x="901" d="M27 0v129l413 653q23 35 80 70q-57 -20 -90 -21h-14l-367 19v207h817v-127l-409 -651q-37 -51 -86 -86q51 26 95 26h3h16l381 -18v-201h-839z" />
<glyph unicode="{" horiz-adv-x="749" d="M78 737q26 1 49 11q84 37 84 137v657q0 80 49 127t133 47h223v-133h-26q-70 0 -93.5 -22.5t-23.5 -87.5v-558q0 -57 -27 -98q-43 -64 -137 -80q29 0 66 -16t67.5 -61.5t30.5 -100.5v-557q0 -61 24.5 -86t92.5 -25h26v-133h-223q-182 0 -182 174v658q0 63 -38 105t-95 42z " />
<glyph unicode="|" horiz-adv-x="407" d="M78 0v1475h221v-1475h-221z" />
<glyph unicode="}" horiz-adv-x="749" d="M78 -109h24q70 0 93.5 23t23.5 88v557q0 115 64.5 144t99.5 34q-82 11 -131 78q-33 45 -33 100v558q0 61 -24.5 85.5t-92.5 24.5h-24v133h221q88 0 135 -47q49 -43 49 -127v-657q0 -63 37 -105.5t96 -42.5q-25 0 -79 -23.5t-54 -123.5v-658q0 -78 -48 -126t-136 -48h-221 v133z" />
<glyph unicode="~" horiz-adv-x="733" d="M6 1567v153q106 53 223 54q45 0 68 -5q35 0 104 -20l103 -23l76 -4q94 0 149 35v-162q-100 -27 -160 -26l-34 2l-39 6l-86 18q-106 27 -180.5 27t-96.5 -3t-45 -13l-51 -21z" />
<glyph unicode="&#xa1;" horiz-adv-x="524" d="M78 -27l90 1127h188l93 -1127h-371zM82 1347.5q0 53.5 53 91.5t126 38t126 -37t53 -91t-53 -92t-127 -38t-126 37.5t-52 91z" />
<glyph unicode="&#xa2;" horiz-adv-x="827" d="M61 529.5q0 242.5 107.5 393t292.5 150.5v103h160v-107q38 0 73 -16q41 -12 99 -43l-48 -215q-88 53 -159 53q-215 0 -215 -326q0 -150 56 -228.5t150.5 -78.5t178.5 59l45 -223q-68 -33 -178 -67v-86h-166v79q-184 18 -290 164t-106 388.5z" />
<glyph unicode="&#xa3;" d="M61 0v162h17q188 0 188 254v108q-4 25 -4 35l-14 156h-150v121h150q-10 88 -10 172q0 494 487 493q149 0 303 -53l-51 -191q-98 31 -174 31q-117 0 -179.5 -81t-62.5 -228l6 -150h373v-114h-365l7 -148q0 -143 -29 -211.5t-119 -136.5l53 -2l78 -8q35 0 72 -10l88 -9 l68 -2q148 0 274 56v-228q-137 -49 -268 -49q-121 0 -264 29l-146 27l-84 10l-57 2q-97 0 -187 -35z" />
<glyph unicode="&#xa4;" horiz-adv-x="1011" d="M78 432l119 117q-59 88 -59.5 193t59.5 192l-117 113q31 43 76 81l120 -120q86 63 190.5 63t195.5 -61l118 120q45 -31 78 -86l-115 -110q62 -89 62 -194.5t-66 -194.5l119 -117l-16 -20l-64 -60l-116 119q-86 -63 -194 -63.5t-189 63.5l-125 -119l-19 21l-39 41z M250 736q0 -91 63 -156q68 -64 158 -64t154.5 64.5t64.5 156.5t-65 156q-61 66 -152.5 65.5t-157 -66t-65.5 -156.5z" />
<glyph unicode="&#xa5;" horiz-adv-x="1306" d="M61 1477h373l182 -476l19 -75l16 -103q12 129 35 178l186 476h373l-315 -680h272v-131h-338l-49 -101l-2 -86h389v-135h-389l2 -344h-344v346h-346v139h346v80l-37 101h-309v137h250z" />
<glyph unicode="&#xa7;" horiz-adv-x="1236" d="M59 682q0 184 209 301q-100 75 -100 186q0 145 129 242q129 96 344 96t333 -88t154 -280l-266 4q-16 174 -223 174q-82 0 -131 -35t-49 -78t37 -90q6 -10 30 -27l52 -24l362 -143q236 -96 236 -312q0 -84 -41 -149.5t-142 -134.5q90 -68 90 -185q0 -152 -134 -252 t-331 -100t-305 72.5t-143 132.5q-31 59 -43 94l-14 94l268 -6q0 -90 62.5 -144.5t157.5 -54.5t143.5 36t48.5 109t-103 118l-371 151q-139 57 -199.5 124t-60.5 169zM338 724q0 -77 100 -120l383 -151q88 51 88 130.5t-90 118.5l-389 154q-92 -55 -92 -132z" />
<glyph unicode="&#xa8;" horiz-adv-x="579" d="M-59 1275q0 50 42.5 89t106 39t107 -37t43.5 -88t-43 -90t-103.5 -39t-106.5 38t-46 88zM340 1275q0 50 43 89t103 39t106.5 -38t46.5 -88t-43 -89t-103.5 -39t-106.5 38t-46 88z" />
<glyph unicode="&#xa9;" horiz-adv-x="1908" d="M119 737.5q0 317.5 223 540.5q162 162 394 209q69 14 149 14q150 0 288 -56t306 -224t168 -484.5t-223.5 -540t-540.5 -223.5t-540.5 223.5t-223.5 541zM240 742q0 -266 190 -468q90 -92 211 -140t246 -48t240.5 48t207.5 140q191 193 191 462t-139.5 412.5t-258 193 t-245.5 49.5q-268 0 -453 -189q-190 -194 -190 -460zM438 721v53q6 29 10 48q10 58 41 141t154 165t270 82q42 0 126.5 -13t185.5 -95l-76 -109q-99 80 -222.5 80t-218 -79t-106.5 -158l-12 -109q0 -123 76.5 -217t158.5 -109l99 -12q94 0 182 51l41 33l76 -111 q-133 -108 -299 -108q-205 0 -345.5 135t-140.5 332z" />
<glyph unicode="&#xaa;" horiz-adv-x="989" d="M78 1116v53l18 82q12 59 67.5 123t121.5 93.5t131 29.5q165 0 248 -147v125h172l2 -701h-176v133q-39 -77 -103 -112q-61 -37 -123.5 -37t-88.5 6t-44 8q-72 14 -148.5 112.5t-76.5 231.5zM98 518v158h740v-158h-740zM256 1126l4 -43q25 -139 100 -157l107 -15l90 15 q78 16 92 94l17 108l-9 62q-6 47 -48 91t-85 56l-63 11q-72 0 -127 -47.5t-74 -131.5z" />
<glyph unicode="&#xab;" horiz-adv-x="862" d="M61 520l240 463l156 -74l-162 -389l160 -381l-158 -63zM408 520l239 463l154 -74l-162 -389l160 -381l-156 -63z" />
<glyph unicode="&#xac;" horiz-adv-x="1337" d="M78 737v221h1081v-516h-172v295h-909z" />
<glyph unicode="&#xad;" horiz-adv-x="659" d="M47 428v221h563v-221h-563z" />
<glyph unicode="&#xae;" horiz-adv-x="1908" d="M119 737.5q0 317.5 223 540.5q162 162 394 209q69 14 149 14q150 0 288 -56t306 -224t168 -484.5t-223.5 -540t-540.5 -223.5t-540.5 223.5t-223.5 541zM240 742q0 -266 190 -468q90 -92 211 -140t246 -48t240.5 48t207.5 140q191 193 191 462t-139.5 412.5t-258 193 t-245.5 49.5q-268 0 -453 -189q-190 -194 -190 -460zM627 287v919h247q143 0 210 -52t81 -115.5t15 -96.5q0 -94 -52.5 -158.5t-144.5 -83.5l-27 -2l275 -411h-174l-283 438v-438h-147zM774 780h76q178 0 178 150q0 156 -170 155h-84v-305z" />
<glyph unicode="&#xb1;" horiz-adv-x="1216" d="M90 39v139h946v-139h-946zM90 539v139h404v250h139v-250h403v-139h-403v-250h-139v250h-404z" />
<glyph unicode="&#xb4;" horiz-adv-x="468" d="M80 1235l266 291l162 -152l-332 -225z" />
<glyph unicode="&#xb5;" horiz-adv-x="1275" d="M150 -285l4 119l4 182l-2 207l-4 195v502h188v-607q0 -145 28.5 -194t102.5 -49q115 0 193.5 166.5t78.5 416.5v267h189v-672q0 -178 78 -178q88 0 88 168v28h43l2 -18v-27q0 -109 -48 -174t-141.5 -65t-148.5 88t-55 264q-47 -182 -126 -267t-182.5 -85t-165.5 53 q-55 55 -81 158l-2 -58q0 -135 63 -287.5t68 -189.5q0 -41 -22.5 -63.5t-63.5 -22.5q-88 0 -88 143z" />
<glyph unicode="&#xb6;" horiz-adv-x="1341" d="M78 1051q0 176 121 299q125 125 299 125h665v-134h-667q-117 0 -202 -87t-85 -205q0 -119 84 -203t203 -84h133v477h141v-1239h-141v629h-133q-172 0 -295 122.5t-123 299.5zM899 0v1239h141v-1239h-141z" />
<glyph unicode="&#xb8;" horiz-adv-x="370" d="M100 -106q86 32 155 32t111 -31.5t42 -87.5q0 -135 -277 -206v84q137 23 137 92q0 43 -59 43l-41 -4q-27 -4 -53 -17z" />
<glyph unicode="&#xba;" horiz-adv-x="989" d="M78 1128v31l8 47q25 133 129 215t240 82q50 0 125 -16q88 -14 173 -117.5t85 -241.5l-2 -32q0 -18 -6.5 -48t-10.5 -51q-14 -80 -121 -163q-102 -82 -252.5 -82t-259 108.5t-108.5 267.5zM90 518v158h737v-158h-737zM252 1128q0 -29 4 -41q23 -141 102.5 -159.5 t100.5 -18.5q74 0 128 48.5t66 105.5l11 70q0 82 -46 135q-41 53 -91 65.5t-74.5 12.5t-36.5 -5q-10 0 -73.5 -28.5t-86.5 -143.5l-4 -22v-19z" />
<glyph unicode="&#xbb;" horiz-adv-x="864" d="M61 139l160 381l-151 398l149 67l238 -463l-242 -444zM408 139l159 381l-153 398l151 67l236 -463l-240 -444z" />
<glyph unicode="&#xbf;" horiz-adv-x="772" d="M18 293v57q6 23 10.5 45.5t24.5 63.5l31 55l35 53l112 144q92 113 125 167t33 185v57h229q15 -108 15 -173q0 -93 -68 -202l-164 -243q-57 -90 -57 -153t43 -99.5t121 -36.5l82 6q36 6 102 27l62 -221q-205 -51 -362.5 -51.5t-265.5 86.5t-108 233zM319 1368 q0 53 51.5 92t125.5 39t128 -38t54 -92t-51.5 -92t-127 -38t-128 38t-52.5 91z" />
<glyph unicode="&#xc0;" horiz-adv-x="1101" d="M-51 0l391 1477h424l389 -1477h-344l-100 426h-316l-98 -426h-346zM299 1841l158 156l272 -289l-98 -90zM434 657h238l-94 408l-23 135l-4 76l-12 -137z" />
<glyph unicode="&#xc1;" horiz-adv-x="1101" d="M-51 0l391 1477h424l389 -1477h-344l-100 426h-316l-98 -426h-346zM395 1702l266 291l162 -152l-332 -225zM434 657h238l-94 408l-23 135l-4 76l-12 -137z" />
<glyph unicode="&#xc2;" horiz-adv-x="1101" d="M-51 0l391 1477h424l389 -1477h-344l-100 426h-316l-98 -426h-346zM237 1712l313 248l314 -242l-76 -102l-238 139l-237 -139zM434 657h238l-94 408l-23 135l-4 76l-12 -137z" />
<glyph unicode="&#xc3;" horiz-adv-x="1101" d="M-51 0l391 1477h424l389 -1477h-344l-100 426h-316l-98 -426h-346zM250 1620v139q84 49 186 49q45 0 64 -4l102 -24q78 -18 137.5 -18.5t112.5 32.5v-147q-78 -25 -133 -25l-59 4l-74 21q-84 25 -157 24.5t-115 -18.5zM434 657h238l-94 408l-23 135l-4 76l-12 -137z" />
<glyph unicode="&#xc4;" horiz-adv-x="1101" d="M-51 0l366 1329q-160 25 -159 152q0 68 49 110.5t110.5 42.5t90 -9t53.5 -32q45 -41 45 -116h94q18 156 172 155q74 0 125 -45t51 -110q0 -117 -139 -150l346 -1327h-344l-100 426h-316l-98 -426h-346zM434 657h238l-94 408l-23 135l-4 76l-12 -137z" />
<glyph unicode="&#xc5;" horiz-adv-x="1101" d="M-51 0l391 1477h74q-96 53 -97 116v11q8 66 79 113.5t159 47.5t147 -47q58 -40 74 -127q0 -51 -78 -114h66l389 -1477h-344l-100 426h-316l-98 -426h-346zM434 657h238l-94 408l-23 135l-4 76l-12 -137zM463 1604q0 -18 23.5 -30.5t57.5 -12.5t60.5 12t26.5 28.5 t-25.5 30t-58.5 13.5q-80 0 -84 -41z" />
<glyph unicode="&#xc6;" horiz-adv-x="1732" d="M-51 0l682 1477h1040v-228l-522 -28v-344h436v-230h-434v-379l524 -28v-240h-866v426h-297l-174 -426h-389zM584 657h229v570z" />
<glyph unicode="&#xc7;" horiz-adv-x="1003" d="M53 731q0 362 153.5 565t428.5 203q145 0 309 -61l-43 -221q-109 37 -192 36q-158 0 -229.5 -127t-71.5 -395t73.5 -390t231.5 -122q106 0 231 60l33 -234q-193 -72 -340 -72q-279 0 -431.5 198t-152.5 560zM483 -106q29 14 62 24l61 8q53 0 89 -29.5t36 -78.5 q0 -123 -227 -183v72q115 18 114 82q0 41 -42 41t-82 -20z" />
<glyph unicode="&#xc8;" horiz-adv-x="1005" d="M88 0v1477h862v-228l-520 -28v-347h436v-227h-436v-381l526 -26v-240h-868zM250 1841l158 156l272 -289l-98 -90z" />
<glyph unicode="&#xc9;" horiz-adv-x="1005" d="M88 0v1477h862v-228l-520 -28v-347h436v-227h-436v-381l526 -26v-240h-868zM348 1702l266 291l162 -152l-332 -225z" />
<glyph unicode="&#xca;" horiz-adv-x="1005" d="M88 0v1477h862v-228l-520 -28v-347h436v-227h-436v-381l526 -26v-240h-868zM188 1712l313 248l314 -242l-76 -102l-238 139l-237 -139z" />
<glyph unicode="&#xcb;" horiz-adv-x="1005" d="M88 0v1477h862v-228l-520 -28v-347h436v-227h-436v-381l526 -26v-240h-868zM154 1742q0 50 42.5 89t106 39t107 -37t43.5 -88t-43 -90t-103.5 -39t-106.5 38t-46 88zM553 1742q0 50 43 89t103 39t106.5 -38t46.5 -88t-43 -89t-103.5 -39t-106.5 38t-46 88z" />
<glyph unicode="&#xcc;" horiz-adv-x="516" d="M6 1841l158 156l272 -289l-98 -90zM88 0v1477h340v-1477h-340z" />
<glyph unicode="&#xcd;" horiz-adv-x="516" d="M88 0v1477h340v-1477h-340zM103 1702l266 291l162 -152l-332 -225z" />
<glyph unicode="&#xce;" horiz-adv-x="516" d="M-53 1712l313 248l314 -242l-76 -102l-238 139l-237 -139zM88 0v1477h340v-1477h-340z" />
<glyph unicode="&#xcf;" horiz-adv-x="516" d="M-88 1742q0 50 42.5 89t106 39t107 -37t43.5 -88t-43 -90t-103.5 -39t-106.5 38t-46 88zM88 0v1477h340v-1477h-340zM311 1742q0 50 43 89t103 39t106.5 -38t46.5 -88t-43 -89t-103.5 -39t-106.5 38t-46 88z" />
<glyph unicode="&#xd1;" horiz-adv-x="1234" d="M88 0v1477h361l376 -904l64 -227l-10 123l-11 113v895h279v-1477h-363l-372 893l-66 231l19 -247v-877h-277zM317 1620v139q84 49 186 49q45 0 64 -4l102 -24q78 -18 137.5 -18.5t112.5 32.5v-147q-78 -25 -133 -25l-59 4l-74 21q-84 25 -157 24.5t-115 -18.5z" />
<glyph unicode="&#xd2;" horiz-adv-x="1239" d="M53 736q0 359 148 560t419 201t418.5 -197.5t147.5 -560t-148.5 -563.5t-416.5 -201t-418 201t-150 560zM366 1841l158 156l272 -289l-98 -90zM403 737q0 -250 55.5 -384t161 -134t162 132t56.5 384t-55.5 385t-161.5 133q-218 0 -218 -516z" />
<glyph unicode="&#xd3;" horiz-adv-x="1239" d="M53 736q0 359 148 560t419 201t418.5 -197.5t147.5 -560t-148.5 -563.5t-416.5 -201t-418 201t-150 560zM403 737q0 -250 55.5 -384t161 -134t162 132t56.5 384t-55.5 385t-161.5 133q-218 0 -218 -516zM465 1702l266 291l162 -152l-332 -225z" />
<glyph unicode="&#xd4;" horiz-adv-x="1239" d="M53 736q0 359 148 560t419 201t418.5 -197.5t147.5 -560t-148.5 -563.5t-416.5 -201t-418 201t-150 560zM305 1712l313 248l314 -242l-76 -102l-238 139l-237 -139zM403 737q0 -250 55.5 -384t161 -134t162 132t56.5 384t-55.5 385t-161.5 133q-218 0 -218 -516z" />
<glyph unicode="&#xd5;" horiz-adv-x="1239" d="M53 736q0 359 148 560t419 201t418.5 -197.5t147.5 -560t-148.5 -563.5t-416.5 -201t-418 201t-150 560zM319 1620v139q84 49 186 49q45 0 64 -4l102 -24q78 -18 137.5 -18.5t112.5 32.5v-147q-78 -25 -133 -25l-59 4l-74 21q-84 25 -157 24.5t-115 -18.5zM403 737 q0 -250 55.5 -384t161 -134t162 132t56.5 384t-55.5 385t-161.5 133q-218 0 -218 -516z" />
<glyph unicode="&#xd6;" horiz-adv-x="1239" d="M53 709.5q0 336.5 56.5 439t80.5 129.5l58 63q-86 62 -86 127.5t50 107.5t124 42q145 0 168 -141l65 16l49 4q35 0 50 -4l63 -20q6 61 55.5 102t123 41t120.5 -41t47 -95.5t-14 -78t-70 -62.5q70 -70 131.5 -183.5t61.5 -447t-148.5 -533.5t-416.5 -200t-418 199 t-150 535.5zM403 737q0 -250 56 -384t161 -134t161.5 132t56.5 384t-55.5 385t-161.5 133q-217 0 -218 -516z" />
<glyph unicode="&#xd8;" horiz-adv-x="1273" d="M61 731q0 367 148.5 566.5t419.5 199.5q119 0 211 -38t182 -128l98 123l90 -65l-112 -154q100 -176 100 -517t-148.5 -542t-420.5 -201q-193 0 -263.5 55.5t-109.5 96.5l-98 -133l-92 67l114 156q-119 221 -119 514zM420 754l2 -109q0 -33 14 -102l371 520 q-61 184 -182 184q-41 0 -86 -34.5t-82 -123t-37 -335.5zM465 393q43 -168 170 -168q51 0 94 33t78 130t35 269l-4 183l-2 69z" />
<glyph unicode="&#xd9;" horiz-adv-x="1232" d="M88 422v1055h342v-1041q0 -213 186 -213t187 213v1041h342v-1055q0 -94 -36 -197.5t-170 -179.5t-321 -76q-113 0 -210 28t-208.5 112t-111.5 313zM364 1841l158 156l272 -289l-98 -90z" />
<glyph unicode="&#xda;" horiz-adv-x="1232" d="M88 422v1055h342v-1041q0 -213 186 -213t187 213v1041h342v-1055q0 -94 -36 -197.5t-170 -179.5t-321 -76q-113 0 -210 28t-208.5 112t-111.5 313zM461 1702l266 291l162 -152l-332 -225z" />
<glyph unicode="&#xdb;" horiz-adv-x="1232" d="M88 422v1055h342v-1041q0 -213 186 -213t187 213v1041h342v-1055q0 -94 -36 -197.5t-170 -179.5t-321 -76q-113 0 -210 28t-208.5 112t-111.5 313zM303 1712l313 248l314 -242l-76 -102l-238 139l-237 -139z" />
<glyph unicode="&#xdc;" horiz-adv-x="1232" d="M88 422v1055h131q18 150 174 149q72 0 125 -44t53 -107q0 -111 -145 -148l4 -891q0 -213 186 -213t187 213l4 887q-145 37 -145 156q0 63 53 105t131 42q168 0 168 -149h131v-1055q0 -94 -36 -196.5t-173 -179.5t-313 -77q-228 0 -425 141q-110 80 -110 312z" />
<glyph unicode="&#xdf;" horiz-adv-x="1103" d="M88 0v1108q0 201 105 291q113 102 308 102t299.5 -77.5t104.5 -211.5q0 -51 -13 -91t-52 -101l-45 -80l-7 -39q0 -23 19 -51l127 -172q143 -185 143 -348.5t-102.5 -260t-276.5 -96.5q-96 0 -198 31l41 191l69 -11q68 0 107 39t39 100.5t-42 142.5t-108 183l-55 90 q-41 76 -41 110t8 53q12 29 47 82q74 110 74 173t-32 97t-89 34q-135 0 -135 -198v-1090h-295z" />
<glyph unicode="&#xe0;" horiz-adv-x="1036" d="M39 312.5q0 154.5 104.5 255t276.5 100.5q113 0 235 -33v76l-4 57q-23 90 -176 90q-111 0 -262 -51l-70 211q237 65 423 65t265.5 -61t98 -112.5t18.5 -172.5v-737h-276l-19 88q-127 -115 -276 -115t-243.5 92.5t-94.5 247zM266 1374l158 156l272 -289l-98 -90z M350 341.5q0 -68.5 43 -112.5q45 -39 116.5 -39t145.5 48v251l-98 9q-92 0 -149.5 -44t-57.5 -112.5z" />
<glyph unicode="&#xe1;" horiz-adv-x="1036" d="M39 312.5q0 154.5 104.5 255t276.5 100.5q113 0 235 -33v76l-4 57q-23 90 -176 90q-111 0 -262 -51l-70 211q237 65 423 65t265.5 -61t98 -112.5t18.5 -172.5v-737h-276l-19 88q-127 -115 -276 -115t-243.5 92.5t-94.5 247zM350 341.5q0 -68.5 43 -112.5 q45 -39 116.5 -39t145.5 48v251l-98 9q-92 0 -149.5 -44t-57.5 -112.5zM363 1235l266 291l162 -152l-332 -225z" />
<glyph unicode="&#xe2;" horiz-adv-x="1036" d="M39 312.5q0 154.5 104.5 255t276.5 100.5q113 0 235 -33v76l-4 57q-23 90 -176 90q-111 0 -262 -51l-70 211q237 65 423 65t265.5 -61t98 -112.5t18.5 -172.5v-737h-276l-19 88q-127 -115 -276 -115t-243.5 92.5t-94.5 247zM205 1245l313 248l314 -242l-76 -102l-238 139 l-237 -139zM350 341.5q0 -68.5 43 -112.5q45 -39 116.5 -39t145.5 48v251l-98 9q-92 0 -149.5 -44t-57.5 -112.5z" />
<glyph unicode="&#xe3;" horiz-adv-x="1036" d="M39 312.5q0 154.5 104.5 255t276.5 100.5q113 0 235 -33v76l-4 57q-23 90 -176 90q-111 0 -262 -51l-70 211q237 65 423 65t265.5 -61t98 -112.5t18.5 -172.5v-737h-276l-19 88q-127 -115 -276 -115t-243.5 92.5t-94.5 247zM217 1153v139q84 49 186 49q45 0 64 -4 l102 -24q78 -18 137.5 -18.5t112.5 32.5v-147q-78 -25 -133 -25l-59 4l-74 21q-84 25 -157 24.5t-115 -18.5zM350 341.5q0 -68.5 43 -112.5q45 -39 116.5 -39t145.5 48v251l-98 9q-92 0 -149.5 -44t-57.5 -112.5z" />
<glyph unicode="&#xe4;" horiz-adv-x="1036" d="M39 312.5q0 154.5 104.5 255t276.5 100.5q113 0 235 -33v76l-4 57q-23 90 -176 90q-111 0 -262 -51l-70 211q237 65 423 65t265.5 -61t98 -112.5t18.5 -172.5v-737h-276l-19 88q-127 -115 -276 -115t-243.5 92.5t-94.5 247zM182 1295q0 50 43 94q46 38 104 38t104 -37.5 t46 -89.5t-44 -90.5t-105 -38.5t-104.5 37t-43.5 87zM350 341.5q0 -68.5 43 -112.5q45 -39 116.5 -39t145.5 48v251l-98 9q-92 0 -149.5 -44t-57.5 -112.5zM584 1297.5q0 52.5 43 93.5q43 36 106 36t105.5 -37.5t42.5 -89t-43 -90.5t-103.5 -39t-105.5 37t-45 89.5z" />
<glyph unicode="&#xe5;" horiz-adv-x="1036" d="M39 312.5q0 154.5 104.5 255t276.5 100.5q113 0 235 -33v76l-4 57q-23 90 -176 90q-111 0 -262 -51l-70 211q237 65 423 65t265.5 -61t98 -112.5t18.5 -172.5v-737h-276l-19 88q-127 -115 -276 -115t-243.5 92.5t-94.5 247zM348 1307.5q0 60.5 59.5 104.5t144.5 44 t145.5 -43t60.5 -101t-62 -106q-59 -41 -145 -41t-144.5 41t-58.5 101.5zM350 341.5q0 -68.5 43 -112.5q45 -39 116.5 -39t145.5 48v251l-98 9q-92 0 -149.5 -44t-57.5 -112.5zM461 1312.5q0 -21.5 26 -40.5q73 -31 129 0q27 14 31 37q0 23 -27.5 38t-67.5 15t-65.5 -14 t-25.5 -35.5z" />
<glyph unicode="&#xe6;" horiz-adv-x="1611" d="M43 323q0 161 104.5 253t288.5 92l90 -6l131 -29v84q0 74 -44 109.5t-148 35.5t-254 -53l-70 209l232 53q100 14 174 14q184 0 270 -73l29 -33q109 104 282 104q219 0 300 -115.5t96 -187.5q28 -129 28 -288l-2 -60h-579q37 -238 278 -237q96 0 230 43l47 -205 q-176 -58 -326 -58q-281 0 -424 168q-182 -170 -389 -170q-154 0 -249 94.5t-95 255.5zM346 336q0 -68 43 -111q45 -39 105.5 -39t105.5 17.5t107 62.5q-24 63 -33 99l-12 63l-5 66l-84 6q-227 0 -227 -164zM944 610h340q0 262 -168 262q-78 0 -127 -67q-45 -74 -45 -182 v-13z" />
<glyph unicode="&#xe7;" horiz-adv-x="819" d="M53 527q0 259 121 406.5t336 147.5q139 0 274 -71l-47 -215q-88 53 -159 53q-104 0 -161 -82t-57 -234.5t57.5 -234.5t150.5 -82t177 59l48 -223q-156 -76 -293 -76q-209 0 -328 146.5t-119 405.5zM367 -98q70 35 124 35t89.5 -31t35.5 -78q0 -129 -225 -184v73 q111 16 111 82q0 39 -41 39t-80 -20z" />
<glyph unicode="&#xe8;" horiz-adv-x="1015" d="M61 534.5q0 262.5 125 405.5t341 143t330 -138t114 -402l-8 -113h-576q31 -233 287 -233q80 0 219 43l47 -207q-180 -58 -336 -58q-258 0 -400.5 148.5t-142.5 411zM256 1374l158 156l272 -289l-98 -90zM356 610h336v19q0 115 -44 179t-122 64q-170 0 -170 -262z" />
<glyph unicode="&#xe9;" horiz-adv-x="1015" d="M61 534.5q0 262.5 125 405.5t341 143t330 -138t114 -402l-8 -113h-576q31 -233 287 -233q80 0 219 43l47 -207q-180 -58 -336 -58q-258 0 -400.5 148.5t-142.5 411zM352 1235l266 291l162 -152l-332 -225zM356 610h336v19q0 115 -44 179t-122 64q-170 0 -170 -262z" />
<glyph unicode="&#xea;" horiz-adv-x="1015" d="M61 534.5q0 262.5 125 405.5t341 143t330 -138t114 -402l-8 -113h-576q31 -233 287 -233q80 0 219 43l47 -207q-180 -58 -336 -58q-258 0 -400.5 148.5t-142.5 411zM194 1245l313 248l314 -242l-76 -102l-238 139l-237 -139zM356 610h336v19q0 115 -44 179t-122 64 q-170 0 -170 -262z" />
<glyph unicode="&#xeb;" horiz-adv-x="1015" d="M61 534.5q0 262.5 125 405.5t341 143t330 -138t114 -402l-8 -113h-576q31 -233 287 -233q80 0 219 43l47 -207q-180 -58 -336 -58q-258 0 -400.5 148.5t-142.5 411zM158 1275q0 50 42.5 89t106 39t107 -37t43.5 -88t-43 -90t-103.5 -39t-106.5 38t-46 88zM356 610h336v19 q0 115 -44 179t-122 64q-170 0 -170 -262zM557 1275q0 50 43 89t103 39t106.5 -38t46.5 -88t-43 -89t-103.5 -39t-106.5 38t-46 88z" />
<glyph unicode="&#xec;" horiz-adv-x="446" d="M-27 1374l158 156l272 -289l-98 -90zM76 0v1055l297 26v-1081h-297z" />
<glyph unicode="&#xed;" horiz-adv-x="446" d="M72 1235l266 291l162 -152l-332 -225zM76 0v1055l297 26v-1081h-297z" />
<glyph unicode="&#xee;" horiz-adv-x="446" d="M-88 1245l313 248l314 -242l-76 -102l-238 139l-237 -139zM76 0v1055l297 26v-1081h-297z" />
<glyph unicode="&#xef;" horiz-adv-x="446" d="M-122 1275q0 50 42.5 89t106 39t107 -37t43.5 -88t-43 -90t-103.5 -39t-106.5 38t-46 88zM76 0v1055l297 26v-1081h-297zM277 1275q0 50 43 89t103 39t106.5 -38t46.5 -88t-43 -89t-103.5 -39t-106.5 38t-46 88z" />
<glyph unicode="&#xf1;" horiz-adv-x="1060" d="M88 0v1055l293 26v-80q164 84 294.5 84t195.5 -62t83.5 -125.5t18.5 -164.5v-733h-295v657l-4 78q-18 106 -137 107q-66 0 -154 -54v-788h-295zM229 1153v139q84 49 186 49q45 0 64 -4l102 -24q78 -18 137.5 -18.5t112.5 32.5v-147q-78 -25 -133 -25l-59 4l-74 21 q-84 25 -157 24.5t-115 -18.5z" />
<glyph unicode="&#xf2;" horiz-adv-x="1077" d="M61 528q0 287 115 421t359 134t362.5 -135t118.5 -420t-116 -421t-362.5 -136t-361.5 133q-115 137 -115 424zM287 1374l158 156l272 -289l-98 -90zM371 526.5q0 -350.5 169 -350.5t169 350t-170 351q-168 0 -168 -350.5z" />
<glyph unicode="&#xf3;" horiz-adv-x="1077" d="M61 528q0 287 115 421t359 134t362.5 -135t118.5 -420t-116 -421t-362.5 -136t-361.5 133q-115 137 -115 424zM371 526.5q0 -350.5 169 -350.5t169 350t-170 351q-168 0 -168 -350.5zM383 1235l266 291l162 -152l-332 -225z" />
<glyph unicode="&#xf4;" horiz-adv-x="1077" d="M61 528q0 287 115 421t359 134t362.5 -135t118.5 -420t-116 -421t-362.5 -136t-361.5 133q-115 137 -115 424zM225 1245l313 248l314 -242l-76 -102l-238 139l-237 -139zM371 526.5q0 -350.5 169 -350.5t169 350t-170 351q-168 0 -168 -350.5z" />
<glyph unicode="&#xf5;" horiz-adv-x="1077" d="M61 528q0 287 115 421t359 134t362.5 -135t118.5 -420t-116 -421t-362.5 -136t-361.5 133q-115 137 -115 424zM238 1153v139q84 49 186 49q45 0 64 -4l102 -24q78 -18 137.5 -18.5t112.5 32.5v-147q-78 -25 -133 -25l-59 4l-74 21q-84 25 -157 24.5t-115 -18.5z M371 526.5q0 -350.5 169 -350.5t169 350t-170 351q-168 0 -168 -350.5z" />
<glyph unicode="&#xf6;" horiz-adv-x="1077" d="M61 528q0 287 115 421t359 134t362.5 -135t118.5 -420t-116 -421t-362.5 -136t-361.5 133q-115 137 -115 424zM190 1296q0 51 43 93q44 36 105 36t107.5 -35.5t46.5 -87t-43 -90.5t-108 -38.5t-108 36t-43 86.5zM371 526.5q0 -350.5 169 -350.5t169 350t-170 351 q-168 0 -168 -350.5zM586 1299q0 50 44 88t105 38t107.5 -37.5t46.5 -88t-44 -88t-105.5 -37.5t-107.5 37.5t-46 87.5z" />
<glyph unicode="&#xf7;" horiz-adv-x="1216" d="M88 414v139h948v-139h-948zM446 210q0 46 37 80t83 34t79 -33t33 -83t-35 -83q-31 -35 -80 -35t-84 35q-33 39 -33 85zM446 759q0 48 37 81.5t83 33.5t79 -35.5t33 -82.5t-35 -80q-31 -35 -80 -35t-84 33q-33 37 -33 85z" />
<glyph unicode="&#xf8;" horiz-adv-x="1089" d="M61 37l97 102q-43 37 -70 149.5t-27 250.5q0 547 482 546q115 0 180 -22q72 -20 154 -86l81 92l70 -57l-92 -105l53 -149q27 -80 27 -219q0 -254 -99.5 -412t-379.5 -158q-164 0 -267 62q-18 6 -51 45l-88 -99zM371 549q0 -76 16 -139l289 346q-12 49 -52 83.5t-79 34.5 q-174 0 -174 -325zM410 297q12 -49 51 -82t86 -33q162 0 162 310q0 84 -15 147z" />
<glyph unicode="&#xf9;" horiz-adv-x="1060" d="M88 291v764l295 28v-706q0 -160 145 -160q68 0 152 51v789h293v-1057h-293l-2 57q-146 -82 -275 -82q-315 0 -315 316zM278 1374l158 156l272 -289l-98 -90z" />
<glyph unicode="&#xfa;" horiz-adv-x="1060" d="M88 291v764l295 28v-706q0 -160 145 -160q68 0 152 51v789h293v-1057h-293l-2 57q-146 -82 -275 -82q-315 0 -315 316zM375 1235l266 291l162 -152l-332 -225z" />
<glyph unicode="&#xfb;" horiz-adv-x="1060" d="M88 291v764l295 28v-706q0 -160 145 -160q68 0 152 51v789h293v-1057h-293l-2 57q-146 -82 -275 -82q-315 0 -315 316zM217 1245l313 248l314 -242l-76 -102l-238 139l-237 -139z" />
<glyph unicode="&#xfc;" horiz-adv-x="1060" d="M88 291v764l295 28v-706q0 -160 145 -160q68 0 152 51v789h293v-1057h-293l-2 57q-146 -82 -275 -82q-315 0 -315 316zM180 1297q0 50 43 92q43 36 106.5 36t106.5 -36.5t43 -88t-43 -90.5t-103 -39t-106.5 38t-46.5 88zM580 1297q0 50 43 92q43 36 103 36t106.5 -37.5 t46.5 -88t-43 -89.5t-103.5 -39t-106.5 38t-46 88z" />
<glyph unicode="&#xff;" horiz-adv-x="935" d="M-33 1055l312 26l165 -649l15 -84l6 -51l4 -29l6 78l21 88l168 623h307l-340 -1159q-18 -64 -51 -142q-69 -164 -287 -164q-137 0 -273 41l60 205q43 -18 74 -24l69 -7q63 0 97 27t59 96l22 70h-145zM119 1275q0 50 42.5 89t106 39t107 -37t43.5 -88t-43 -90t-103.5 -39 t-106.5 38t-46 88zM518 1275q0 50 43 89t103 39t106.5 -38t46.5 -88t-43 -89t-103.5 -39t-106.5 38t-46 88z" />
<glyph unicode="&#x152;" horiz-adv-x="1701" d="M61 739q0 356 154 558t424 202q74 0 135 -12l55 -10h818v-228l-529 -28v-369h438v-227h-438v-357l522 -28v-240h-737l-35 -2l-47 -2l-80 -14q-37 0 -55 -5l-57 -4q-262 0 -415 205t-153 561zM414 735q0 -512 229 -512q74 0 133 41v942q-59 41 -139 41q-109 0 -166 -132 t-57 -380z" />
<glyph unicode="&#x153;" horiz-adv-x="1683" d="M61 530q0 559 476 560q221 0 342 -140q125 131 315 131q233 0 306 -114.5t99 -212.5q21 -102 21 -219l-4 -105h-578q29 -236 283 -235q123 0 227 43l45 -205q-190 -60 -360 -60t-239.5 53.5t-82.5 67.5l-18 25q-111 -152 -354 -152q-236 0 -363 141q-115 128 -115 422z M365 527q0 -353 180 -353q174 0 174 353t-174 354q-180 -1 -180 -354zM1008 610h342q0 262 -168 262q-78 0 -126 -66.5t-48 -176.5v-19z" />
<glyph unicode="&#x178;" horiz-adv-x="1077" d="M-53 1477h372l181 -476q10 -25 20 -77l17 -101q12 129 34 178l187 476h372l-430 -912v-565h-342v565zM189 1742q0 50 42.5 89t106 39t107 -37t43.5 -88t-43 -90t-103.5 -39t-106.5 38t-46 88zM588 1742q0 50 43 89t103 39t106.5 -38t46.5 -88t-43 -89t-103.5 -39 t-106.5 38t-46 88z" />
<glyph unicode="&#x2000;" horiz-adv-x="998" />
<glyph unicode="&#x2001;" horiz-adv-x="1997" />
<glyph unicode="&#x2002;" horiz-adv-x="998" />
<glyph unicode="&#x2003;" horiz-adv-x="1997" />
<glyph unicode="&#x2004;" horiz-adv-x="665" />
<glyph unicode="&#x2005;" horiz-adv-x="499" />
<glyph unicode="&#x2006;" horiz-adv-x="332" />
<glyph unicode="&#x2007;" horiz-adv-x="332" />
<glyph unicode="&#x2008;" horiz-adv-x="249" />
<glyph unicode="&#x2009;" horiz-adv-x="399" />
<glyph unicode="&#x200a;" horiz-adv-x="110" />
<glyph unicode="&#x2010;" horiz-adv-x="659" d="M47 428v221h563v-221h-563z" />
<glyph unicode="&#x2011;" horiz-adv-x="659" d="M47 428v221h563v-221h-563z" />
<glyph unicode="&#x2012;" horiz-adv-x="659" d="M47 428v221h563v-221h-563z" />
<glyph unicode="&#x2013;" d="M63 653v199h1002v-199h-1002z" />
<glyph unicode="&#x2014;" horiz-adv-x="2039" d="M61 608v244h1917v-244h-1917z" />
<glyph unicode="&#x2018;" horiz-adv-x="464" d="M27 940l266 522l137 -39l-111 -483h-292z" />
<glyph unicode="&#x2019;" horiz-adv-x="464" d="M27 979l110 485h293l-266 -524z" />
<glyph unicode="&#x201a;" horiz-adv-x="438" d="M-10 -242l110 484h291l-264 -521z" />
<glyph unicode="&#x201c;" horiz-adv-x="825" d="M27 940l266 522l137 -39l-111 -483h-292zM387 940l266 522l138 -39l-111 -483h-293z" />
<glyph unicode="&#x201d;" horiz-adv-x="825" d="M27 979l110 485h293l-266 -524zM387 979l111 485h293l-267 -524z" />
<glyph unicode="&#x201e;" horiz-adv-x="798" d="M-10 -242l110 484h291l-264 -521zM350 -242l111 484h293l-267 -521z" />
<glyph unicode="&#x2022;" horiz-adv-x="448" d="M47 527q0 50 53 89t126 39t125 -37.5t52 -88t-51 -88.5t-126 -38t-128 35q-51 39 -51 89z" />
<glyph unicode="&#x2026;" horiz-adv-x="2039" d="M197 146.5q0 72.5 49 121.5t120 49t122 -48t51 -119t-48.5 -122t-120 -51t-124.5 48q-49 49 -49 121.5zM879 145.5q0 69.5 49 120.5t120 51t122 -48t51 -119t-37 -110q-61 -63 -132 -63t-122 49.5t-51 119zM1534 144.5q0 70.5 50 122.5t121 52t122 -51t51 -122t-50 -121 t-123 -50t-122 49.5t-49 120z" />
<glyph unicode="&#x202f;" horiz-adv-x="399" />
<glyph unicode="&#x2039;" horiz-adv-x="516" d="M61 526l240 412l156 -61l-162 -351l160 -342l-158 -55z" />
<glyph unicode="&#x203a;" horiz-adv-x="518" d="M61 184l160 342l-151 355l149 59l238 -414l-242 -395z" />
<glyph unicode="&#x205f;" horiz-adv-x="499" />
<glyph unicode="&#x20ac;" horiz-adv-x="1181" d="M86 844h846l53 176h-829zM115 590h735l49 172h-723zM231 730q0 -364 152 -559.5t432 -195.5q150 0 340 70l-33 234q-129 -59 -231 -60q-160 0 -232.5 121t-72.5 390.5t71.5 396t229.5 126.5q84 0 192 -36l43 221q-164 61 -309 61q-274 0 -428 -202.5t-154 -566.5z" />
<glyph unicode="&#x2122;" horiz-adv-x="1583" d="M78 1356v119h448v-121l-157 2v-619h-136v619h-155zM502 737l131 748h104l170 -416l25 -70q12 -37 12 -84l4 43q9 57 33 111l170 416h104l131 -748h-131l-67 412l-2 22l-2 25v84l-23 -84l-10 -33l-174 -434h-64l-172 422l-14 45l-22 84l2 -35v-49l-2 -27l-72 -432h-131z " />
<glyph unicode="&#xe000;" horiz-adv-x="1085" d="M0 0v1085h1085v-1085h-1085z" />
<glyph unicode="&#xe001;" horiz-adv-x="0" />
<glyph unicode="&#xe002;" horiz-adv-x="2048" />
</font>
</defs>
</svg>
