<?xml version="1.0" standalone="no"?>
<!DOCTYPE svg PUBLIC "-//W3C//DTD SVG 1.1//EN" "http://www.w3.org/Graphics/SVG/1.1/DTD/svg11.dtd" >
<svg xmlns="http://www.w3.org/2000/svg">
<metadata></metadata>
<defs>
<font id="Glasgow-LightItaRegular" horiz-adv-x="1026" >
<font-face units-per-em="2048" ascent="1638" descent="-410" />
<missing-glyph horiz-adv-x="593" />
<glyph horiz-adv-x="0" />
<glyph horiz-adv-x="2048" />
<glyph unicode=" "  horiz-adv-x="593" />
<glyph unicode="&#x09;" horiz-adv-x="593" />
<glyph unicode="&#xa0;" horiz-adv-x="593" />
<glyph unicode="!" horiz-adv-x="430" d="M106 64.5q0 35.5 36 62.5t86 27t83 -25t33 -62.5t-39 -64.5t-86 -27t-80 27t-33 62.5zM207 297l115 1180h194l-219 -1180h-90z" />
<glyph unicode="&#x22;" horiz-adv-x="624" d="M186 1034l160 416h178l-262 -436zM446 1034l160 416h180l-264 -436z" />
<glyph unicode="#" horiz-adv-x="1150" d="M131 475l19 86h235l74 352h-236l19 86h235l92 439h86l-92 -439h228l92 439h86l-92 -439h235l-18 -86h-236l-76 -352h238l-19 -86h-235l-92 -438h-86l92 438h-227l-93 -438h-86l93 438h-236zM471 561h225l76 352h-227z" />
<glyph unicode="$" horiz-adv-x="960" d="M76 70l67 129q121 -62 170 -75t119 -13l17 -2l79 569q-170 74 -242.5 159t-72.5 210q0 172 125 300t307 144l21 156h69l-22 -160q27 10 61 10q92 0 227 -53l-65 -129q-57 29 -102.5 39t-112.5 10h-27l-73 -539q188 -84 262.5 -167t74.5 -203q0 -186 -126.5 -315.5 t-337.5 -157.5l-23 -170h-72l21 165q-71 0 -139 19q-98 18 -205 74zM383 1090q0 -158 172 -224l70 490q-104 -33 -173 -109t-69 -157zM516 119q102 25 155.5 64.5t87.5 104t34 128.5t-53.5 127t-149.5 106z" />
<glyph unicode="%" horiz-adv-x="1527" d="M94 0l1434 1477h112l-1427 -1477h-119zM238 1042q0 205 106.5 332t282.5 127q135 0 209.5 -79t74.5 -218q0 -199 -108.5 -323.5t-280.5 -124.5q-123 0 -196.5 61.5t-85.5 177.5zM379 1034q0 -82 44 -130t114 -48q100 0 166.5 97.5t66.5 244.5q0 92 -42 146.5t-116 54.5 q-102 0 -167.5 -97.5t-65.5 -248.5v-19zM827 256q0 205 108.5 334t281.5 129q131 0 207.5 -81t76.5 -216q0 -197 -109.5 -323t-279.5 -126q-117 0 -191.5 64.5t-91.5 179.5zM973 281l2 -27q0 -84 41 -130t110 -46q98 0 165 95t67 237q0 207 -156 206q-98 0 -163.5 -96 t-65.5 -239z" />
<glyph unicode="&#x26;" horiz-adv-x="1277" d="M131 322q0 194 143 340q68 71 181 145q-47 88 -63.5 146t-16.5 128q0 178 109.5 300t271.5 122q104 0 173.5 -69.5t69.5 -165t-36.5 -178t-108.5 -150.5t-203 -152q150 -247 350 -454l58 67l61 82l90 -71l-63 -84l-70 -74l88 -72l101 -76l-101 -106l-102 74 q-29 25 -53.5 46t-38.5 34l-62 -48q-183 -137 -373 -137t-297.5 97.5t-107.5 255.5zM283 350q0 -117 73.5 -186.5t198.5 -69.5q168 0 330 142q-211 216 -369 471q-233 -160 -233 -357zM526.5 1108.5q0.5 -108.5 63.5 -223.5q258 147 258 352q0 61 -33 100t-86 39 q-84 0 -143.5 -79.5t-59 -188z" />
<glyph unicode="'" horiz-adv-x="364" d="M186 1034l160 416h178l-262 -436z" />
<glyph unicode="(" horiz-adv-x="468" d="M172 545q0 346 101.5 541.5t128 240.5t67.5 107q67 101 158 206l41 -32l-58 -97q-84 -145 -182 -415.5t-98 -677.5q0 -188 28 -308q36 -161 64 -247l-49 -33q-62 111 -131.5 286t-69.5 429z" />
<glyph unicode=")" horiz-adv-x="471" d="M8 -139l62 96q280 520 280 1087q0 311 -96 566l53 30q66 -115 133.5 -285.5t67.5 -432.5q0 -334 -117 -562.5t-169 -306.5t-74.5 -107.5t-94.5 -115.5z" />
<glyph unicode="*" horiz-adv-x="753" d="M225 1071l246 94l-219 101l84 114l178 -157v254h133l-74 -256l228 159l55 -118l-256 -97l221 -96l-88 -113l-180 154l12 -252h-135l66 254l-220 -156z" />
<glyph unicode="+" d="M229 698l19 125h317l43 322h127l-45 -322h320l-19 -125h-317l-45 -311h-129l45 311h-316z" />
<glyph unicode="," horiz-adv-x="360" d="M-25 -248l160 414h180l-264 -436z" />
<glyph unicode="-" horiz-adv-x="630" d="M131 446l21 136h495l-20 -136h-496z" />
<glyph unicode="." horiz-adv-x="366" d="M78 63q0 37 35 64t83 27t80.5 -27t32.5 -64t-34.5 -61.5t-84 -24.5t-81 25t-31.5 61z" />
<glyph unicode="/" horiz-adv-x="649" d="M10 -23l752 1518h84l-754 -1518h-82z" />
<glyph unicode="0" d="M166 455v24q0 197 44 398t110.5 338t172 209.5t232.5 72.5q166 0 254 -122t88 -369.5t-103.5 -638t-453.5 -390.5q-344 0 -344 478zM332 416q0 -170 46 -249t153.5 -79t180 99.5t130 353.5t57.5 471t-45 294.5t-145 77.5q-170 0 -235 -179q-138 -376 -138 -697z" />
<glyph unicode="1" d="M225 0l21 141h233l160 1157l-240 -102l-16 86l350 195h96l-186 -1336h229l-20 -141h-627z" />
<glyph unicode="2" d="M119 0l14 102l64 68q157 162 296.5 317.5t273.5 344t134 325.5q0 205 -223 205q-119 0 -307 -76l-17 127q223 86 382 86t247 -80t88 -223q0 -188 -183 -428q-109 -144 -298 -358l-156 -172q-4 -6 -34.5 -38t-69.5 -73l575 -18l-14 -109h-772z" />
<glyph unicode="3" d="M147 94q272 0 442.5 113t170.5 291q0 227 -332 227l-72 -4l17 108q209 0 343 103.5t134 253.5q0 90 -60.5 140t-171.5 50t-256 -49l-12 115q193 59 334.5 59t233.5 -73.5t92 -198.5q0 -74 -44 -155t-109.5 -137t-116 -84t-68 -35t-76.5 -27h10q145 0 234.5 -76t89.5 -199 q0 -229 -215 -384t-549 -155z" />
<glyph unicode="4" d="M152 385l14 100l582 992h182l-615 -973h402l145 645h101l-91 -645h127l-16 -119h-129l-55 -385h-164l55 385h-538z" />
<glyph unicode="5" d="M133 88q276 0 469 130t193 302q0 217 -353 217l-141 -6l156 746h579l-14 -107l-440 -24l-107 -504l76 4q195 0 303.5 -80t108.5 -223q0 -229 -234.5 -397.5t-576.5 -168.5z" />
<glyph unicode="6" d="M168 447.5q0 222.5 87 428t239.5 351t289 198t224.5 74.5l24 -102q-421 -134 -573 -432q-45 -88 -80 -195q162 115 309 115t234.5 -99.5t87.5 -267.5q0 -231 -134.5 -386t-323.5 -155t-286.5 124t-97.5 346.5zM332 461q0 -176 61.5 -272.5t178 -96.5t200.5 112.5t84 259 t-61.5 223.5t-163.5 77q-142 0 -279 -117q-20 -88 -20 -186z" />
<glyph unicode="7" d="M113 0l823 1348l-612 20l14 109h782l-12 -93l-803 -1384h-192z" />
<glyph unicode="8" d="M119 322q0 287 370 446q-111 86 -155.5 160t-44.5 164q0 168 129 284.5t317 116.5q147 0 238.5 -80t91.5 -209q0 -258 -332 -407q152 -96 215.5 -179t63.5 -184q0 -186 -148.5 -320t-341 -134t-298 93t-105.5 249zM264 338q0 -104 72 -170t193.5 -66t219 89.5t97.5 211.5 q0 78 -61.5 146t-223.5 170q-297 -145 -297 -381zM453 1133.5q0 -93.5 45 -152.5t164 -137q131 57 201.5 145t70.5 184.5t-59.5 153.5t-162 57t-181 -78.5t-78.5 -172z" />
<glyph unicode="9" d="M201 76l63 22q267 106 396 246q125 137 194 361q-158 -119 -306.5 -119t-236.5 98t-88 270q0 231 136.5 386t323.5 155t283.5 -125t96.5 -348t-85 -432t-194.5 -312.5t-200.5 -159t-167 -84.5q-108 -40 -189 -61zM377 1014.5q0 -148.5 61.5 -228t163.5 -79.5 q134 -1 277 118q20 100 20 195q0 172 -61.5 267t-180 95t-199.5 -109.5t-81 -258z" />
<glyph unicode=":" horiz-adv-x="428" d="M109 63q0 37 34.5 64t82.5 27t81 -27t33 -64t-35 -61.5t-84 -24.5t-80.5 25t-31.5 61zM203 751q0 38 35 64.5t84 26.5t81.5 -27t32.5 -63.5t-35.5 -62t-84 -25.5t-81 24.5t-32.5 62.5z" />
<glyph unicode=";" horiz-adv-x="446" d="M2 -248l162 414h180l-264 -436zM221 752q0 37 35 63.5t85 26.5t83 -27t33 -63.5t-35 -61t-85 -24.5t-83 24.5t-33 61.5z" />
<glyph unicode="&#x3c;" horiz-adv-x="493" d="M154 508l301 410l82 -39l-236 -371l129 -369l-96 -33z" />
<glyph unicode="=" d="M162 596l18 121h867l-15 -121h-870zM193 809l16 121h868l-16 -121h-868z" />
<glyph unicode="&#x3e;" horiz-adv-x="489" d="M102 139l228 369l-119 375l88 37l182 -412l-299 -399z" />
<glyph unicode="?" horiz-adv-x="706" d="M139 63q0 37 36 64t85 27t82 -27t33 -63t-37 -62.5t-86 -26.5t-81 26t-32 62zM215 295q0 210 63 323q13 25 44 62q16 25 55 70t63 73l154 178q90 122 90 201.5t-55.5 122.5t-150.5 43t-230 -37l-15 119q168 45 307.5 45t226.5 -68.5t87 -199.5t-76 -217 q-123 -140 -221 -242l-49 -55q-96 -98 -123 -170t-41 -221l-4 -27h-125z" />
<glyph unicode="@" horiz-adv-x="1771" d="M229 692q0 289 139.5 464t272.5 252t227.5 88t135.5 11q262 0 425.5 -165.5t163.5 -432.5q0 -78 -29.5 -220t-130 -261t-163 -127t-82.5 -8q-72 0 -119 45t-47 111q0 16 2 24q-16 -45 -45 -74q-78 -86 -174 -86q-47 0 -105.5 28t-94.5 97.5t-36 182.5q0 37 6 79l11 74 q27 127 85 227.5t137 156.5t157 56q115 0 168 -114l8 -23l26 127l97 -2l-103 -446l-37 -185q-8 -39 -8 -72.5t11.5 -78.5t80.5 -45q64 0 155 105q81 93 115 268q17 83 17 161q0 229 -136 369.5t-351 140.5q-53 0 -171 -18.5t-264.5 -155.5t-189.5 -297t-43 -250t28.5 -236.5 t184.5 -278.5t360 -132q294 0 549 279l43 -54q-78 -90 -171 -156q-21 -16 -130.5 -83.5t-321.5 -67.5t-393.5 144.5t-220.5 315.5t-39 263zM678 608q0 -92 20 -143q33 -74 115 -74q120 0 193 191q31 79 61 200l18 90q17 78 11 110t-30 87t-103 55q-49 0 -93.5 -31.5 t-75 -78.5t-52 -102.5t-25.5 -69.5q-39 -142 -39 -234z" />
<glyph unicode="A" horiz-adv-x="1003" d="M-23 0l635 1477h191l219 -1477h-170l-70 547h-407l-228 -547h-170zM422 664h344l-68 536q-8 50 -8 103l2 65q-8 -45 -28 -111l-21 -57z" />
<glyph unicode="B" horiz-adv-x="1062" d="M127 0l205 1477h418q182 0 265 -69t83 -207t-51.5 -236.5t-130 -139.5t-195.5 -53q176 0 257 -70.5t81 -211t-51.5 -250t-149.5 -175t-289 -65.5h-442zM303 117h260q322 0 322 370q0 125 -66.5 173.5t-236.5 48.5h-197zM406 819h196q324 0 324 348q0 92 -50.5 142.5 t-144.5 50.5h-250z" />
<glyph unicode="C" horiz-adv-x="948" d="M166 466q0 226 49 426t172 401.5t406 201.5q135 0 278 -65l-43 -119l-55 26q-100 35 -180 35q-201 0 -294 -181t-124 -386t-31 -326q0 -182 69.5 -280.5t196.5 -98.5t293 84l15 -123q-188 -86 -338 -86q-199 0 -306.5 132.5t-107.5 358.5z" />
<glyph unicode="D" horiz-adv-x="1107" d="M127 0l205 1477h362q236 0 344.5 -121t108.5 -385q0 -207 -45 -398.5t-164 -382t-465 -190.5h-346zM305 119h170q272 0 349 168q143 312 143 694q0 195 -72 285t-229 90h-187z" />
<glyph unicode="E" horiz-adv-x="921" d="M127 0l205 1477h729l-17 -111l-565 -27l-73 -518h507l-16 -114h-510l-80 -570l572 -28l-15 -109h-737z" />
<glyph unicode="F" horiz-adv-x="849" d="M127 0l205 1477h729l-14 -109l-572 -29l-72 -520h510l-14 -114h-514l-100 -705h-158z" />
<glyph unicode="G" horiz-adv-x="1167" d="M166 483q0 129 37 369t145.5 386t225 203.5t249.5 57.5q195 0 346 -133l-82 -106q-124 112 -271 112h-3q-278 0 -385 -354q-33 -109 -58.5 -266.5t-25.5 -280.5q0 -365 309 -365q127 0 256 64l74 514h-338l14 119h496l-100 -725q-150 -57 -244 -80t-188 -23 q-457 0 -457 508z" />
<glyph unicode="H" horiz-adv-x="1169" d="M127 0l205 1477h164l-90 -646h595l89 646h163l-206 -1477h-164l100 717h-594l-100 -717h-162z" />
<glyph unicode="I" horiz-adv-x="409" d="M127 0l205 1477h162l-209 -1477h-158z" />
<glyph unicode="J" horiz-adv-x="413" d="M-8 -223q80 80 102 141q37 104 58 246l182 1313h164l-181 -1291q-18 -127 -31.5 -178t-56.5 -123.5t-166 -167.5z" />
<glyph unicode="K" horiz-adv-x="980" d="M127 0l205 1477h162l-82 -584l-4 -41l-9 -41q12 27 16.5 33t30.5 37l535 596h184l-616 -689l485 -788h-205l-401 666q-28 45 -37 88l-6 -52l-4 -51l-92 -651h-162z" />
<glyph unicode="L" horiz-adv-x="792" d="M127 0l205 1477h164l-189 -1340l518 -28l-14 -109h-684z" />
<glyph unicode="M" horiz-adv-x="1527" d="M66 0l366 1477h197l153 -1110q11 -78 11 -125l-5 -72l31 115l31 82l465 1110h194l-45 -1477h-159l41 1108l22 180q-39 -119 -65 -178l-465 -1110h-148l-151 1110q-2 14 -9.5 63.5t-7.5 114.5q-8 -82 -28 -180l-269 -1108h-159z" />
<glyph unicode="N" horiz-adv-x="1193" d="M127 0l205 1477h182l416 -1149q23 -57 31 -148v27l2 59l2 74l159 1137h154l-207 -1477h-186l-416 1135q-10 42 -33 153v-59l-6 -117l-156 -1112h-147z" />
<glyph unicode="O" horiz-adv-x="1173" d="M170 463v41q0 199 45 387t123 324.5t198.5 209t262.5 72.5q203 0 308 -136t105 -398q0 -193 -45 -383.5t-165.5 -396.5t-417.5 -206q-195 0 -304.5 126t-109.5 360zM344 500q0 -193 66.5 -296.5t189.5 -103.5q295 0 404 526q34 167 34 335q0 411 -257 411h-1 q-90 0 -173 -60.5t-173 -253.5t-90 -558z" />
<glyph unicode="P" horiz-adv-x="940" d="M127 0l205 1477h330q395 0 395 -338q0 -139 -62.5 -261t-143.5 -169t-161 -63.5t-192 -16.5h-121l-88 -629h-162zM391 737h107q94 0 152.5 14.5t111.5 56.5t90 129t37 187q0 182 -90 204t-160 22h-160z" />
<glyph unicode="Q" horiz-adv-x="1173" d="M170 489.5q0 217.5 45 404.5t166 395t418 208q203 0 308 -136t105 -398q0 -416 -182 -735q-92 -162 -204.5 -198t-141.5 -44.5t-66 -8.5q-14 -22 -14 -47q0 -71 93 -71h3l97 10l-9 -102q-82 -23 -167 -23q-158 0 -158 92q0 49 51 144q-176 35 -260 163.5t-84 346z M344 500q0 -193 66.5 -296.5t189.5 -103.5q295 0 404 526q34 167 34 335q0 411 -257 411h-1q-90 0 -173 -60.5t-173 -253.5t-90 -558z" />
<glyph unicode="R" horiz-adv-x="993" d="M127 0l205 1477h348q383 0 383 -310q0 -188 -131 -313t-334 -125l-57 2l506 -731h-203l-457 709l-98 -709h-162zM403 821h99q190 0 290.5 84t100.5 246q0 207 -258 207h-156z" />
<glyph unicode="S" horiz-adv-x="960" d="M76 70l67 129q162 -90 302 -90t240.5 88t100.5 215q0 82 -54 137t-193.5 125.5t-178 97.5t-77.5 70q-70 86 -70 202q0 195 145.5 324t366.5 129q131 0 276 -53l-65 -129q-100 53 -232 53t-228.5 -82t-96.5 -209q0 -109 105 -178q38 -25 133.5 -71t154.5 -81.5t124 -93 t65 -198.5q0 -203 -154 -340.5t-381 -137.5q-164 0 -350 93z" />
<glyph unicode="T" horiz-adv-x="868" d="M176 1368l17 109h899l-17 -111l-373 -27l-188 -1339h-162l189 1337z" />
<glyph unicode="U" horiz-adv-x="1183" d="M184 330l6 102l148 1045h164l-148 -1043l-4 -74q0 -121 67.5 -186t206 -65t228.5 83.5t113 241.5l147 1043h164l-148 -1045q-14 -92 -47 -178q-57 -127 -188 -203t-310.5 -76t-289 94.5t-109.5 260.5z" />
<glyph unicode="V" horiz-adv-x="962" d="M188 1477h177l129 -1170q8 -50 8 -123v-39q21 80 51 162l459 1170h178l-608 -1477h-201z" />
<glyph unicode="W" horiz-adv-x="1595" d="M250 1477h170l39 -1127v-49l-6 -129q14 59 28.5 98t26.5 78l412 1129h174l92 -1129q8 -54 8 -131v-45q21 105 43 178l354 1127h172l-491 -1477h-187l-100 1137q-4 16 -4 41v120l-49 -161l-418 -1137h-186z" />
<glyph unicode="X" d="M10 0l492 799l-240 678h180l168 -494q23 -63 23 -121q14 41 57 121l305 494h183l-433 -678l269 -799h-183l-186 612q-12 41 -29 127l-63 -127l-360 -612h-183z" />
<glyph unicode="Y" horiz-adv-x="948" d="M162 1477h188l203 -619q20 -47 20 -123q34 91 56 123l381 619h190l-561 -856l-88 -621h-164l86 621z" />
<glyph unicode="Z" horiz-adv-x="927" d="M43 0l14 109l779 1173q25 39 77 86q-55 -12 -94 -12l-543 12l17 109h797l-17 -109l-772 -1165q-14 -16 -38.5 -45t-45.5 -49q51 20 107 20h12l565 -14l-16 -115h-842z" />
<glyph unicode="[" horiz-adv-x="446" d="M102 -164l254 1802h297l-18 -125h-143l-220 -1552h144l-17 -125h-297z" />
<glyph unicode="\" horiz-adv-x="811" d="M283 1475h110l258 -1475h-110z" />
<glyph unicode="]" horiz-adv-x="446" d="M2 -164l18 125h146l217 1552h-143l16 125h297l-254 -1802h-297z" />
<glyph unicode="^" horiz-adv-x="589" d="M176 1176l316 233l251 -223l-59 -82l-215 137l-254 -137z" />
<glyph unicode="_" horiz-adv-x="964" d="M74 0h737v-51h-737v51z" />
<glyph unicode="`" horiz-adv-x="507" d="M201 1333l125 111l258 -266l-76 -68z" />
<glyph unicode="a" horiz-adv-x="974" d="M100 246q0 172 125 282.5t322 110.5q111 0 237 -31l17 111l6 67q0 127 -189 127q-72 0 -133 -12t-166 -49l-24 127q227 61 371 61q143 0 220 -52t77 -150l-7 -97l-104 -741h-143l8 98q-168 -123 -313.5 -123t-224.5 73t-79 198zM268 274q0 -80 52.5 -126t161 -46 t247.5 109l41 299q-109 18 -186 18q-135 0 -225.5 -71.5t-90.5 -182.5z" />
<glyph unicode="b" horiz-adv-x="1015" d="M127 0l205 1473l155 24l-79 -563q147 106 291.5 106t230.5 -104.5t86 -286.5q0 -287 -135.5 -479.5t-335.5 -192.5q-72 0 -130.5 25t-135.5 86l-17 -88h-135zM305 209q115 -90 223 -90q139 0 229.5 144.5t90.5 367.5q0 127 -57.5 198.5t-165 71.5t-236.5 -92z" />
<glyph unicode="c" horiz-adv-x="827" d="M145 377q0 285 141.5 473t356.5 188q143 0 270 -100l-61 -119q-104 90 -207 90q-143 0 -239.5 -145.5t-96.5 -364.5q0 -139 59.5 -214.5t169.5 -75.5t234 98l27 -127q-159 -102 -315 -102q-1 0 -2 -1q-154 -1 -246 105t-91 295z" />
<glyph unicode="d" horiz-adv-x="1017" d="M143 375q0 283 139.5 472t348.5 189q76 0 131 -22.5t115 -79.5l75 539l152 20l-207 -1493h-143l10 92q-96 -66 -157.5 -90.5t-131.5 -24.5q-154 0 -243 108t-89 290zM315 397q0 -282 220 -282h2q100 0 235 88l86 604q-109 94 -213 94q-145 0 -237.5 -141.5t-92.5 -362.5z " />
<glyph unicode="e" horiz-adv-x="980" d="M147 406q0 283 141.5 457.5t368.5 174.5q342 0 342 -387q0 -59 -6 -110q-10 -49 -14 -82h-660l-2 -49q0 -145 77 -226.5t199.5 -81.5t274.5 56l13 -123q-166 -55 -316 -55q-203 0 -310.5 109.5t-107.5 316.5zM326 571h514q8 51 8 95q0 254 -211 254q-125 0 -204.5 -90.5 t-106.5 -258.5z" />
<glyph unicode="f" horiz-adv-x="471" d="M139 905l17 109h129l26 184q12 74 36 136.5t101.5 107.5t180.5 45h47q22 0 84 -8l35 -9l-52 -120q-49 18 -117.5 18t-108.5 -42t-54 -144l-25 -168h260l-16 -105l-262 -16l-123 -893h-154l127 895z" />
<glyph unicode="g" horiz-adv-x="952" d="M37 -180q0 18 8 59h145l-4 -37q0 -76 59.5 -108.5t198.5 -32.5t220 49t81 133q0 53 -41.5 75t-154.5 22l-115 2l-45 2q-68 0 -216 15q-89 9 -89 81q0 43 41 85t78 71.5t67 54.5l49 35q-158 76 -158 271q0 198 130 321q129 122 325.5 122t282.5 -100q61 106 160 107l39 -5 l-21 -139l-35 4q-49 0 -102 -39q31 -78 31 -141q0 -201 -123 -319.5t-328 -118.5q-47 0 -119 10q-147 -119 -147 -156t262 -37q55 0 102.5 -1t167 -21.5t119.5 -175t-125 -242.5t-346 -88q-397 0 -397 242zM328 612q0 -102 52 -158.5t161.5 -56.5t187.5 89t78 211 q0 233 -199 233q-109 0 -185.5 -75t-92.5 -198z" />
<glyph unicode="h" d="M127 0l205 1473l153 24l-79 -565q157 113 303 113l1 -1q146 0 223 -62t77 -171q0 -50 -9 -98l-100 -713h-151l98 682l4 80q0 158 -184 158q-135 0 -279 -107l-113 -813h-149z" />
<glyph unicode="i" horiz-adv-x="401" d="M127 0l141 1014l154 22l-146 -1036h-149zM299 1329l4 35q18 111 100 111q49 0 65.5 -16.5t16.5 -63.5q0 -143 -102 -144q-84 0 -84 78z" />
<glyph unicode="j" horiz-adv-x="403" d="M-31 -362q103 80 131 188q9 37 21 125l149 1063l158 22l-154 -1081q-27 -174 -70.5 -241.5t-148.5 -129.5zM303 1333l2 29q19 113 103 113q43 0 61 -18.5t18 -67.5q0 -137 -102 -138q-82 0 -82 82z" />
<glyph unicode="k" horiz-adv-x="856" d="M127 0l205 1473l155 24l-108 -770l-6 -49l-11 -35q16 25 32 41t24 25l342 305h184l-452 -410l432 -604h-199l-332 475q-21 35 -43 90q0 -55 -12 -116l-62 -449h-149z" />
<glyph unicode="l" horiz-adv-x="399" d="M127 0l205 1473l153 22l-211 -1495h-147z" />
<glyph unicode="m" horiz-adv-x="1548" d="M127 0l141 1014l154 22l-12 -82q147 88 255.5 88t168 -30.5t98.5 -100.5q162 127 328 127q123 0 197.5 -64.5t74.5 -170.5l-8 -103l-99 -700h-151l94 674l6 88q0 68 -46 112t-122 44q-115 0 -248 -107l-112 -811h-152l97 666l8 104q0 63 -48.5 105.5t-125.5 42.5 q-117 0 -234 -91l-117 -827h-147z" />
<glyph unicode="n" d="M127 0l141 1014l152 24l-14 -100q166 104 308 104t219 -62t77 -167l-9 -104l-100 -709h-151l96 676l6 88q0 70 -48 112t-132 42q-125 0 -283 -105l-113 -813h-149z" />
<glyph unicode="o" horiz-adv-x="1030" d="M145 367q0 309 139.5 490t377.5 181q368 0 368 -397q0 -303 -141 -485.5t-377 -182.5q-170 0 -267.5 89.5t-97.5 254.5zM311 381q0 -287 217 -287q161 0 244 154q90 167 90 381q0 289 -217 289q-150 0 -242 -147.5t-92 -389.5z" />
<glyph unicode="p" horiz-adv-x="1015" d="M72 -389l196 1403l140 22l-2 -112q138 113 284 113q1 0 2 -1q146 0 234 -108.5t88 -296.5q0 -283 -133 -469.5t-338 -186.5q-74 0 -133.5 25t-124.5 82l-66 -471h-147zM305 207q63 -51 112.5 -71.5t106.5 -20.5q143 0 233.5 136t90.5 351q0 141 -57.5 219t-157.5 78 t-244 -88z" />
<glyph unicode="q" horiz-adv-x="1017" d="M143 371q0 274 140.5 469.5t339.5 195.5q130 0 260 -106l12 84l145 22l-198 -1425h-156l68 471q-141 -109 -289 -109t-235 105.5t-87 292.5zM309 389q0 -131 57.5 -202.5t168 -71.5t239.5 94l84 600q-119 92 -219 92q-137 0 -233.5 -148.5t-96.5 -363.5z" />
<glyph unicode="r" horiz-adv-x="516" d="M127 0l141 1014l152 4l-10 -82q76 55 131 76.5t133 21.5l-41 -157l-62 6q-98 0 -180 -62l-115 -821h-149z" />
<glyph unicode="s" horiz-adv-x="821" d="M61 51l72 131q144 -74 256 -74h1q112 0 182.5 45.5t70.5 116.5q0 45 -45 84t-163 105.5t-144.5 85t-65.5 59.5q-55 68 -55 139q0 133 114.5 219.5t275 86.5t323.5 -70l-64 -123q-150 66 -258 66t-169.5 -43t-61.5 -113q0 -43 20.5 -67.5t87.5 -65.5l25 -15q16 -12 80 -45 l147 -90q117 -76 117 -182q0 -141 -117 -233.5t-281.5 -92.5t-347.5 76z" />
<glyph unicode="t" horiz-adv-x="507" d="M133 911l14 103h132l26 178l156 29l-29 -207h213l-14 -105l-215 -14l-90 -649l-9 -76q0 -70 89 -70q34 0 114 25l-16 -119q-81 -26 -158 -26h-6q-180 0 -180 147l6 74l98 698z" />
<glyph unicode="u" horiz-adv-x="1021" d="M162 207l6 78l102 729l156 24l-102 -723l-5 -69q0 -145 183 -146q127 0 278 99l115 815h149l-141 -1014h-149l10 76q-170 -101 -310.5 -101t-216 61.5t-75.5 170.5z" />
<glyph unicode="v" horiz-adv-x="837" d="M125 1014l160 24l143 -809q8 -47 8 -108v-8q27 77 45 114l357 787h157l-477 -1014h-196z" />
<glyph unicode="w" horiz-adv-x="1441" d="M166 1014l162 22l88 -788l6 -68l-2 -51q21 92 37 123l319 762h178l103 -760q4 -12 4 -28v-33l-2 -60l12 53l334 828h156l-426 -1014h-181l-104 745q-6 41 -6 105v43q-31 -119 -45 -145l-314 -748h-182z" />
<glyph unicode="x" horiz-adv-x="880" d="M8 0l395 539l-221 475l168 22l154 -362q14 -25 20 -76q19 38 43 76l242 340h174l-350 -471l239 -543h-172l-163 389q-25 53 -25 103q-26 -63 -55 -105l-271 -387h-178z" />
<glyph unicode="y" horiz-adv-x="845" d="M-33 -387l53 117q53 -27 114.5 -27t101.5 39q41 35 90 139l59 119h-76l-184 1014l164 22l137 -817q4 -35 6 -52t2 -61q11 47 39 113l369 795h164l-553 -1168q-70 -143 -139.5 -202.5t-158 -59.5t-188.5 29z" />
<glyph unicode="z" horiz-adv-x="856" d="M43 0l10 82l639 762q35 41 82 65q-48 -12 -88 -12h-14l-479 14l16 103h747l-10 -82l-631 -752q-20 -27 -35.5 -39t-54.5 -39q53 17 92 17h13l499 -15l-14 -104h-772z" />
<glyph unicode="{" horiz-adv-x="585" d="M145 737q57 0 96.5 41.5t47.5 104.5l86 690q12 127 168 127h114l-8 -64h-22q-74 0 -99.5 -24.5t-35.5 -102.5l-76 -616q-8 -61 -50 -104.5t-104 -51.5q53 -6 84 -40.5t31 -92.5v-22l-76 -617q-4 -37 -4 -47q0 -47 24.5 -63.5t86.5 -16.5h22l-8 -63h-115q-152 0 -139 127 l86 690v24q0 53 -29.5 87t-79.5 34z" />
<glyph unicode="|" horiz-adv-x="528" d="M281 0v1475h110v-1475h-110z" />
<glyph unicode="}" horiz-adv-x="585" d="M70 -225l8 63h22q74 0 99.5 24.5t36.5 102.5l75 617q8 61 50 104t104 51q-31 4 -73 26.5t-42 108.5v21l76 616q4 37 4 66t-22.5 45t-85.5 16h-23l6 64h115q139 0 139 -109v-18l-84 -690q-2 -8 -2 -43t29.5 -69t79.5 -34q-57 0 -96.5 -41t-47.5 -104l-84 -690 q-16 -127 -170 -127h-114z" />
<glyph unicode="~" horiz-adv-x="747" d="M233 1567l17 114q104 51 231 52q55 0 82 -4.5t110 -25t162.5 -20.5t141.5 35l-19 -123q-149 -47 -233 -20l-86 20q-90 25 -181 25q-134 0 -225 -53z" />
<glyph unicode="&#xa1;" horiz-adv-x="432" d="M119 -25l221 1180h90l-113 -1180h-198zM295 1386q0 37 35 64t85 27t81.5 -26t31.5 -64t-34.5 -62.5t-83.5 -24.5t-82 25t-33 61z" />
<glyph unicode="&#xa2;" horiz-adv-x="827" d="M145 379q0 279 136.5 466t341.5 187l16 131h66l-21 -131q37 0 64 -10q82 -20 165 -84l-61 -119q-77 60 -116.5 74t-80.5 14l-110 -794q47 0 96 15t131 79l27 -127l-60 -33q-61 -33 -104 -46t-113 -24l-22 -157h-60l21 157q-315 35 -316 402zM317 403q0 -161 54 -215 q33 -43 114 -63l109 770l-105 -53q-47 -35 -109.5 -135.5t-62.5 -303.5z" />
<glyph unicode="&#xa3;" horiz-adv-x="1019" d="M84 0l18 119q57 0 94 15.5t88.5 67.5t75 147t23.5 325l2 39h-135l12 82h135q0 207 60.5 455.5t433.5 248.5q96 0 223 -37l-45 -104q-92 31 -179 31t-156.5 -45.5t-108.5 -125.5q-76 -154 -76 -405v-20h356l-10 -80h-350q0 -289 -48 -396.5t-204 -189.5q20 4 44.5 4 t56.5 1q71 2 132 -11l103 -17q56 -10 98 -10q137 0 231 60l-20 -142q-121 -43 -223.5 -43t-225.5 25l-122 24q-127 22 -183.5 11t-99.5 -29z" />
<glyph unicode="&#xa4;" horiz-adv-x="1075" d="M229 438l133 133q-59 76 -59 167t57 167l-131 125l15 17l12 16l14 14l17 15l133 -129q74 57 169 57t169 -55l129 129l18 -15q25 -20 43 -49l-133 -125q53 -77 53 -169.5t-55 -166.5l133 -133l-26 -26l-35 -31l-129 133q-70 -55 -166 -55t-170 55l-133 -131q-33 25 -58 57 zM395 738q0 -81 56.5 -137t135.5 -56t135 56t56 136t-56 136.5t-136 56.5t-135.5 -55.5t-55.5 -136.5z" />
<glyph unicode="&#xa5;" horiz-adv-x="1204" d="M199 444l16 117h381l8 60l-26 73h-342l16 121h278l-239 662h188l205 -619q21 -70 21 -123q23 74 53 123l381 619h192l-440 -668h311l-16 -111h-373l-45 -77l-8 -66h407l-16 -111h-408l-63 -444h-164l64 444h-381z" />
<glyph unicode="&#xa7;" horiz-adv-x="1179" d="M176 680q0 211 270 340q-72 66 -71 158q0 139 131 233t316 94q372 0 372 -305l-154 -2v19q0 80 -61 127t-169 47t-186.5 -55.5t-78.5 -133.5q0 -47 24.5 -79.5t43 -44t46.5 -23.5l367 -176q74 -37 117 -98.5t43 -135.5q0 -201 -248 -330q70 -70 70 -161q0 -147 -130 -247 t-310.5 -100t-283 80t-102.5 213v35l152 2v-20q0 -90 63.5 -143.5t178 -53.5t189.5 58.5t75 154.5t-105 143l-387 191q-94 45 -133 92t-39 121zM344 715q0 -47 20.5 -75t75.5 -56l398 -191q190 84 190 228q0 94 -98 141l-389 184q-197 -92 -197 -231z" />
<glyph unicode="&#xa8;" horiz-adv-x="430" d="M109 1192q0 37 32.5 61.5t76.5 24.5t72.5 -24.5t28.5 -60.5t-30.5 -60.5t-75.5 -24.5t-74.5 23.5t-29.5 60.5zM442 1193q0 36 31 60.5t76 24.5t75.5 -24.5t30.5 -60.5t-34.5 -60.5t-77.5 -24.5t-72 24.5t-29 60.5z" />
<glyph unicode="&#xa9;" horiz-adv-x="1976" d="M236 739q0 317 223 540.5t540 223.5t540.5 -223t223.5 -541q0 -317 -223 -540.5t-541 -223.5q-317 0 -540 223.5t-223 540.5zM326 739q0 -283 198 -485q96 -96 220 -146.5t255 -50.5t255 50.5t220.5 147.5t146.5 224t50 261t-50 259t-147 223q-194 199 -475 199 q-131 0 -254.5 -50t-220.5 -149q-198 -202 -198 -483zM512 657q0 133 84 303q41 82 146 165q156 122 358 122q190 0 317 -125l-61 -73q-111 106 -269 106q-104 0 -203.5 -50t-159.5 -131t-78 -138q-30 -101 -30 -168q0 -141 97.5 -250t267.5 -109q123 0 187 37q89 52 108 70 l45 -74q-162 -125 -355.5 -125t-323.5 124t-130 316z" />
<glyph unicode="&#xaa;" horiz-adv-x="1052" d="M211 610l12 101h692l-10 -101h-694zM274 1075q0 79 19 139l26 66q31 61 83 112q107 105 241 105q78 0 139 -37q67 -41 97 -123l6 -12l18 150h107l-80 -662h-111l21 160q-56 -106 -137.5 -141t-149.5 -35q-117 0 -198 76.5t-81 201.5zM389 1098q0 -90 58.5 -146.5 t146.5 -56.5q123 0 216 117q54 67 54 170v18q0 88 -60.5 144.5t-146.5 56.5q-49 0 -107 -26.5t-103.5 -89t-55.5 -138.5z" />
<glyph unicode="&#xab;" horiz-adv-x="774" d="M154 504l301 422l82 -41l-236 -381l127 -373l-96 -37zM436 504l301 422l80 -41l-235 -381l129 -373l-99 -37z" />
<glyph unicode="&#xac;" horiz-adv-x="1280" d="M205 737v111h934v-406h-99v295h-835z" />
<glyph unicode="&#xad;" horiz-adv-x="630" d="M131 446l21 136h495l-20 -136h-496z" />
<glyph unicode="&#xae;" horiz-adv-x="1976" d="M236 739q0 317 223 540.5t540 223.5t540.5 -223t223.5 -541q0 -317 -223 -540.5t-541 -223.5q-317 0 -540 223.5t-223 540.5zM326 739q0 -283 198 -485q96 -96 220 -146.5t255 -50.5t255 50.5t220.5 147.5t146.5 224t50 261t-50 259t-147 223q-194 199 -475 199 q-131 0 -254.5 -50t-220.5 -149q-198 -202 -198 -483zM713 254l121 989h208q133 0 205 -57.5t72 -159.5q0 -51 -37 -168t-229 -139l-39 -2l262 -463h-125l-274 500l-62 -500h-102zM881 782h84q190 0 218.5 94.5t28.5 129.5q0 70 -50 109.5t-136 39.5h-100z" />
<glyph unicode="&#xb1;" horiz-adv-x="1216" d="M90 39v139h946v-139h-946zM90 539v139h404v250h139v-250h403v-139h-403v-250h-139v250h-404z" />
<glyph unicode="&#xb4;" horiz-adv-x="448" d="M252 1171l326 271l96 -113l-363 -225z" />
<glyph unicode="&#xb5;" horiz-adv-x="1275" d="M150 -285l4 119l4 182l-2 207l-4 195v502h188v-607q0 -145 28.5 -194t102.5 -49q117 0 194.5 165.5t77.5 417.5v267h189v-672q0 -178 78 -178q88 0 88 168v28h43l2 -18v-27q0 -113 -48 -176t-142.5 -63t-148.5 88t-54 264q-47 -182 -126 -267t-198 -85q-182 0 -231 211 l-2 -58q0 -133 65.5 -290.5t65.5 -192.5t-22.5 -57.5t-66.5 -22.5q-85 0 -85 143z" />
<glyph unicode="&#xb6;" horiz-adv-x="1193" d="M203 1055q0 25 9 111.5t131 197.5t288 111h608l-10 -89h-611q-129 0 -226 -87t-97 -210t71.5 -206.5t180.5 -83.5h147l62 506h92l-162 -1305h-90l88 711h-147q-137 0 -235.5 100t-98.5 244zM829 0l160 1305h92l-161 -1305h-91z" />
<glyph unicode="&#xb8;" horiz-adv-x="264" d="M2 -326l8 58q57 10 93 35.5t36 59.5t-38 34t-89 -23l8 70q63 33 113.5 33t78.5 -23.5t28 -60.5q0 -131 -238 -183z" />
<glyph unicode="&#xba;" horiz-adv-x="1054" d="M217 610l14 101h689l-11 -101h-692zM279 1102q0 91 50 190.5t124.5 147t127 57.5t93.5 10q131 0 217 -88t86 -221q-2 -18 -2 -29v-18q-8 -72 -51 -156t-120 -131t-149 -63q-41 -6 -75 -6q-131 0 -216 87t-85 220zM389 1104q0 -90 61.5 -149.5t131 -59.5t127 26.5 t102.5 89t53 140.5l2 47q0 92 -59 149.5t-129.5 57.5t-156 -39t-122.5 -170l-8 -45q-4 -33 -2 -47z" />
<glyph unicode="&#xbb;" horiz-adv-x="772" d="M102 131l226 373l-117 387l90 37l180 -424l-299 -406zM383 131l227 373l-116 387l88 37l180 -424l-299 -406z" />
<glyph unicode="&#xbf;" horiz-adv-x="706" d="M59 225q0 112 54.5 193.5t92.5 124.5t70 78l130 137q100 109 120 163q33 92 47 255h127q0 -237 -86 -360q-30 -42 -141 -167l-76 -88q-94 -111 -131 -173t-37 -120q0 -164 209 -164q94 0 228 35l16 -119q-189 -45 -319 -45t-217 69t-87 181zM541 1405q0 37 35 63.5 t84 26.5t81.5 -26.5t32.5 -63.5t-34.5 -61.5t-84 -24.5t-82 24.5t-32.5 61.5z" />
<glyph unicode="&#xc0;" horiz-adv-x="1003" d="M-23 0l635 1477h191l219 -1477h-170l-70 547h-407l-228 -547h-170zM422 664h344l-68 536q-8 50 -8 103l2 65q-8 -45 -28 -111l-21 -57zM520 1845l125 111l258 -266l-76 -68z" />
<glyph unicode="&#xc1;" horiz-adv-x="1003" d="M-23 0l635 1477h191l219 -1477h-170l-70 547h-407l-228 -547h-170zM422 664h344l-68 536q-8 50 -8 103l2 65q-8 -45 -28 -111l-21 -57zM600 1683l326 271l96 -113l-363 -225z" />
<glyph unicode="&#xc2;" horiz-adv-x="1003" d="M-23 0l635 1477h191l219 -1477h-170l-70 547h-407l-228 -547h-170zM422 664h344l-68 536q-8 50 -8 103l2 65q-8 -45 -28 -111l-21 -57zM455 1688l316 233l251 -223l-59 -82l-215 137l-254 -137z" />
<glyph unicode="&#xc3;" horiz-adv-x="1003" d="M-23 0l635 1477h191l219 -1477h-170l-70 547h-407l-228 -547h-170zM422 664h344l-68 536q-8 50 -8 103l2 65q-8 -45 -28 -111l-21 -57zM461 1620l12 100q86 51 153.5 51.5t148.5 -23.5t140.5 -24t104.5 33l-14 -110q-66 -27 -125 -27l-54 6l-61 21q-76 20 -153.5 20 t-151.5 -47z" />
<glyph unicode="&#xc4;" horiz-adv-x="1003" d="M-23 0l635 1477h191l219 -1477h-170l-70 547h-407l-228 -547h-170zM422 664h344l-68 536q-8 50 -8 103l2 65q-8 -45 -28 -111l-21 -57zM428 1642q0 39 35 68t80 29t75.5 -26.5t30.5 -66.5t-34.5 -67t-81 -27t-76 26t-29.5 64zM817 1642q0 39 33 68t79 29t76.5 -26.5 t30.5 -67t-34.5 -67t-79.5 -26.5t-75 26t-30 64z" />
<glyph unicode="&#xc5;" horiz-adv-x="1003" d="M-23 0l635 1477h191l219 -1477h-170l-70 547h-407l-228 -547h-170zM422 664h344l-68 536q-8 50 -8 103l2 65q-8 -45 -28 -111l-21 -57zM555 1690.5q0 58.5 55 99.5t133 41t128.5 -40t50.5 -98t-56.5 -99.5t-133.5 -41.5t-127 40t-50 98.5zM649 1690.5q0 -23.5 22.5 -38 t61.5 -14.5t64.5 14.5t25.5 37t-24.5 39t-61.5 16.5t-62.5 -15.5t-25.5 -39z" />
<glyph unicode="&#xc6;" horiz-adv-x="1669" d="M-23 0l1008 1477h809l-16 -111l-566 -25l-71 -518h508l-15 -116h-512l-80 -568l572 -28l-15 -111h-741l78 547h-401l-363 -547h-195zM604 666h352l97 682z" />
<glyph unicode="&#xc7;" horiz-adv-x="948" d="M166 466q0 226 49 426t172 401.5t406 201.5q135 0 278 -65l-43 -119l-55 26q-100 35 -180 35q-201 0 -294 -181t-124 -386t-31 -326q0 -182 69.5 -280.5t196.5 -98.5t293 84l15 -123q-188 -86 -338 -86q-199 0 -306.5 132.5t-107.5 358.5zM428 -338l8 57q53 8 87 34 t34 58t-37 31.5t-82 -18.5l6 67q59 31 113 31q96 0 96 -82q0 -125 -225 -178z" />
<glyph unicode="&#xc8;" horiz-adv-x="921" d="M127 0l205 1477h729l-17 -111l-565 -27l-73 -518h507l-16 -114h-510l-80 -570l572 -28l-15 -109h-737zM480 1845l125 111l258 -266l-76 -68z" />
<glyph unicode="&#xc9;" horiz-adv-x="921" d="M127 0l205 1477h729l-17 -111l-565 -27l-73 -518h507l-16 -114h-510l-80 -570l572 -28l-15 -109h-737zM559 1683l326 271l96 -113l-363 -225z" />
<glyph unicode="&#xca;" horiz-adv-x="921" d="M127 0l205 1477h729l-17 -111l-565 -27l-73 -518h507l-16 -114h-510l-80 -570l572 -28l-15 -109h-737zM414 1688l316 233l251 -223l-59 -82l-215 137l-254 -137z" />
<glyph unicode="&#xcb;" horiz-adv-x="921" d="M127 0l205 1477h729l-17 -111l-565 -27l-73 -518h507l-16 -114h-510l-80 -570l572 -28l-15 -109h-737zM426 1704q0 37 32.5 61.5t76.5 24.5t72.5 -24.5t28.5 -60.5t-30.5 -60.5t-75.5 -24.5t-74.5 23.5t-29.5 60.5zM759 1705q0 36 31 60.5t76 24.5t75.5 -24.5t30.5 -60.5 t-34.5 -60.5t-77.5 -24.5t-72 24.5t-29 60.5z" />
<glyph unicode="&#xcc;" horiz-adv-x="409" d="M127 0l205 1477h162l-209 -1477h-158zM224 1845l125 111l258 -266l-76 -68z" />
<glyph unicode="&#xcd;" horiz-adv-x="409" d="M127 0l205 1477h162l-209 -1477h-158zM305 1683l326 271l96 -113l-363 -225z" />
<glyph unicode="&#xce;" horiz-adv-x="409" d="M127 0l205 1477h162l-209 -1477h-158zM158 1688l316 233l251 -223l-59 -82l-215 137l-254 -137z" />
<glyph unicode="&#xcf;" horiz-adv-x="409" d="M127 0l205 1477h162l-209 -1477h-158zM170 1704q0 37 32.5 61.5t76.5 24.5t72.5 -24.5t28.5 -60.5t-30.5 -60.5t-75.5 -24.5t-74.5 23.5t-29.5 60.5zM503 1705q0 36 31 60.5t76 24.5t75.5 -24.5t30.5 -60.5t-34.5 -60.5t-77.5 -24.5t-72 24.5t-29 60.5z" />
<glyph unicode="&#xd1;" horiz-adv-x="1193" d="M127 0l205 1477h182l416 -1149q23 -57 31 -148v27l2 59l2 74l159 1137h154l-207 -1477h-186l-416 1135q-10 42 -33 153v-59l-6 -117l-156 -1112h-147zM555 1620l12 100q86 51 153.5 51.5t148.5 -23.5t140.5 -24t104.5 33l-14 -110q-66 -27 -125 -27l-54 6l-61 21 q-76 20 -153.5 20t-151.5 -47z" />
<glyph unicode="&#xd2;" horiz-adv-x="1173" d="M170 463v41q0 199 45 387t123 324.5t198.5 209t262.5 72.5q203 0 308 -136t105 -398q0 -193 -45 -383.5t-165.5 -396.5t-417.5 -206q-195 0 -304.5 126t-109.5 360zM344 500q0 -193 66.5 -296.5t189.5 -103.5q295 0 404 526q34 167 34 335q0 412 -258 411 q-90 0 -173 -60.5t-173 -253.5t-90 -558zM604 1845l125 111l258 -266l-76 -68z" />
<glyph unicode="&#xd3;" horiz-adv-x="1173" d="M170 463v41q0 199 45 387t123 324.5t198.5 209t262.5 72.5q203 0 308 -136t105 -398q0 -193 -45 -383.5t-165.5 -396.5t-417.5 -206q-195 0 -304.5 126t-109.5 360zM344 500q0 -193 66.5 -296.5t189.5 -103.5q295 0 404 526q34 167 34 335q0 412 -258 411 q-90 0 -173 -60.5t-173 -253.5t-90 -558zM686 1683l326 271l96 -113l-363 -225z" />
<glyph unicode="&#xd4;" horiz-adv-x="1173" d="M170 463v41q0 199 45 387t123 324.5t198.5 209t262.5 72.5q203 0 308 -136t105 -398q0 -193 -45 -383.5t-165.5 -396.5t-417.5 -206q-195 0 -304.5 126t-109.5 360zM344 500q0 -193 66.5 -296.5t189.5 -103.5q295 0 404 526q34 167 34 335q0 412 -258 411 q-90 0 -173 -60.5t-173 -253.5t-90 -558zM538 1688l316 233l251 -223l-59 -82l-215 137l-254 -137z" />
<glyph unicode="&#xd5;" horiz-adv-x="1173" d="M170 463v41q0 199 45 387t123 324.5t198.5 209t262.5 72.5q203 0 308 -136t105 -398q0 -193 -45 -383.5t-165.5 -396.5t-417.5 -206q-195 0 -304.5 126t-109.5 360zM344 500q0 -193 66.5 -296.5t189.5 -103.5q295 0 404 526q34 167 34 335q0 412 -258 411 q-90 0 -173 -60.5t-173 -253.5t-90 -558zM545 1620l12 100q86 51 153.5 51.5t148.5 -23.5t140.5 -24t104.5 33l-14 -110q-66 -27 -125 -27l-54 6l-61 21q-76 20 -153.5 20t-151.5 -47z" />
<glyph unicode="&#xd6;" horiz-adv-x="1173" d="M170 463v41q0 199 45 387t123 324.5t198.5 209t262.5 72.5q203 0 308 -136t105 -398q0 -193 -45 -383.5t-165.5 -396.5t-417.5 -206q-195 0 -304.5 126t-109.5 360zM344 500q0 -193 66.5 -296.5t189.5 -103.5q295 0 404 526q34 167 34 335q0 412 -258 411 q-90 0 -173 -60.5t-173 -253.5t-90 -558zM444 1628q0 37 35 65.5t81 28.5t77 -26.5t31 -66.5t-34 -65.5t-81 -25.5t-78 26.5t-31 63.5zM965 1628q0 37 34.5 65.5t79.5 28.5t78 -28.5t33 -66.5t-35 -64.5t-84 -26.5l-12 2q-94 25 -94 90z" />
<glyph unicode="&#xd8;" horiz-adv-x="1196" d="M98 63l115 150q-45 189 -45 299t30.5 312t127 366t214 235.5t263.5 71.5q201 0 334 -166l86 111l86 -60l-117 -149v-14l31 -211l2 -62q0 -88 -36 -301t-129 -369q-179 -299 -470 -299q-217 0 -314 144l-94 -119zM352 444q6 -37 8 -61l654 811q-43 96 -93.5 136t-132.5 40 t-160.5 -56.5t-136 -153.5t-98.5 -289.5t-41 -350.5v-76zM393 264q20 -76 77.5 -119t137.5 -43q246 0 324 251t94 386t16 326z" />
<glyph unicode="&#xd9;" horiz-adv-x="1183" d="M184 330l6 102l148 1045h164l-148 -1043l-4 -74q0 -121 67.5 -186t206 -65t228.5 83.5t113 241.5l147 1043h164l-148 -1045q-14 -92 -47 -178q-57 -127 -188 -203t-310.5 -76t-289 94.5t-109.5 260.5zM611 1845l125 111l258 -266l-76 -68z" />
<glyph unicode="&#xda;" horiz-adv-x="1183" d="M184 330l6 102l148 1045h164l-148 -1043l-4 -74q0 -121 67.5 -186t206 -65t228.5 83.5t113 241.5l147 1043h164l-148 -1045q-14 -92 -47 -178q-57 -127 -188 -203t-310.5 -76t-289 94.5t-109.5 260.5zM690 1683l326 271l96 -113l-363 -225z" />
<glyph unicode="&#xdb;" horiz-adv-x="1183" d="M184 330l6 102l148 1045h164l-148 -1043l-4 -74q0 -121 67.5 -186t206 -65t228.5 83.5t113 241.5l147 1043h164l-148 -1045q-14 -92 -47 -178q-57 -127 -188 -203t-310.5 -76t-289 94.5t-109.5 260.5zM545 1688l316 233l251 -223l-59 -82l-215 137l-254 -137z" />
<glyph unicode="&#xdc;" horiz-adv-x="1183" d="M184 330l6 102l148 1045h164l-148 -1043l-4 -74q0 -121 67.5 -186t206 -65t228.5 83.5t113 241.5l147 1043h164l-148 -1045q-14 -92 -47 -178q-57 -127 -188 -203t-310.5 -76t-289 94.5t-109.5 260.5zM545 1640.5q0 38.5 35 67.5t81 29t75.5 -28t29.5 -66t-34 -64.5 t-79 -26.5t-76.5 25t-31.5 63.5zM895 1641.5q0 37.5 35 66.5t81 29t75.5 -28t29.5 -67t-32.5 -65.5t-77.5 -26.5t-78 27t-33 64.5z" />
<glyph unicode="&#xdf;" horiz-adv-x="1017" d="M127 0l158 1137q16 111 48 173t121 124.5t237.5 62.5t228 -59.5t79.5 -163.5q0 -51 -24.5 -109.5t-63.5 -101.5l-55 -62q-72 -83 -72 -114t12.5 -57.5t57.5 -98.5l57 -94q102 -162 103 -277q0 -168 -108.5 -274t-282.5 -106q-68 0 -160 24l39 113q66 -18 108 -19 q100 0 169 66.5t69 167.5q0 53 -26.5 115.5t-96.5 182.5t-84 153.5t-14 66.5q0 66 84 168l51 65q78 83 78 155q0 144 -162 144q-101 0 -162 -61q-57 -49 -80 -184l-160 -1137h-149z" />
<glyph unicode="&#xe0;" horiz-adv-x="974" d="M100 246q0 172 125 282.5t322 110.5q111 0 237 -31l17 111l6 67q0 127 -189 127q-72 0 -133 -12t-166 -49l-24 127q227 61 371 61q143 0 220 -52t77 -150l-7 -97l-104 -741h-143l8 98q-168 -123 -313.5 -123t-224.5 73t-79 198zM268 274q0 -80 52.5 -126t161 -46 t247.5 109l41 299q-109 18 -186 18q-135 0 -225.5 -71.5t-90.5 -182.5zM434 1333l125 111l258 -266l-76 -68z" />
<glyph unicode="&#xe1;" horiz-adv-x="974" d="M100 246q0 172 125 282.5t322 110.5q111 0 237 -31l17 111l6 67q0 127 -189 127q-72 0 -133 -12t-166 -49l-24 127q227 61 371 61q143 0 220 -52t77 -150l-7 -97l-104 -741h-143l8 98q-168 -123 -313.5 -123t-224.5 73t-79 198zM268 274q0 -80 52.5 -126t161 -46 t247.5 109l41 299q-109 18 -186 18q-135 0 -225.5 -71.5t-90.5 -182.5zM514 1171l326 271l96 -113l-363 -225z" />
<glyph unicode="&#xe2;" horiz-adv-x="974" d="M100 246q0 172 125 282.5t322 110.5q111 0 237 -31l17 111l6 67q0 127 -189 127q-72 0 -133 -12t-166 -49l-24 127q227 61 371 61q143 0 220 -52t77 -150l-7 -97l-104 -741h-143l8 98q-168 -123 -313.5 -123t-224.5 73t-79 198zM268 274q0 -80 52.5 -126t161 -46 t247.5 109l41 299q-109 18 -186 18q-135 0 -225.5 -71.5t-90.5 -182.5zM369 1176l316 233l251 -223l-59 -82l-215 137l-254 -137z" />
<glyph unicode="&#xe3;" horiz-adv-x="974" d="M100 246q0 172 125 282.5t322 110.5q111 0 237 -31l17 111l6 67q0 127 -189 127q-72 0 -133 -12t-166 -49l-24 127q227 61 371 61q143 0 220 -52t77 -150l-7 -97l-104 -741h-143l8 98q-168 -123 -313.5 -123t-224.5 73t-79 198zM268 274q0 -80 52.5 -126t161 -46 t247.5 109l41 299q-109 18 -186 18q-135 0 -225.5 -71.5t-90.5 -182.5zM375 1108l12 100q86 51 153.5 51.5t148.5 -23.5t140.5 -24t104.5 33l-14 -110q-66 -27 -125 -27l-54 6l-61 21q-76 20 -153.5 20t-151.5 -47z" />
<glyph unicode="&#xe4;" horiz-adv-x="974" d="M100 246q0 172 125 282.5t322 110.5q111 0 237 -31l17 111l6 67q0 127 -189 127q-72 0 -133 -12t-166 -49l-24 127q227 61 371 61q143 0 220 -52t77 -150l-7 -97l-104 -741h-143l8 98q-168 -123 -313.5 -123t-224.5 73t-79 198zM268 274q0 -80 52.5 -126t161 -46 t247.5 109l41 299q-109 18 -186 18q-135 0 -225.5 -71.5t-90.5 -182.5zM393 1210.5q0 36.5 33 63t79 26.5t74.5 -24.5t28.5 -61t-34.5 -63.5t-79 -27t-73 25t-28.5 61.5zM737 1212q0 35 33 61.5t77 26.5t73.5 -25.5t29.5 -62.5t-31.5 -62.5t-75.5 -25.5t-75 27t-31 61z" />
<glyph unicode="&#xe5;" horiz-adv-x="974" d="M100 246q0 172 125 282.5t322 110.5q111 0 237 -31l17 111l6 67q0 127 -189 127q-72 0 -133 -12t-166 -49l-24 127q227 61 371 61q143 0 220 -52t77 -150l-7 -97l-104 -741h-143l8 98q-168 -123 -313.5 -123t-224.5 73t-79 198zM268 274q0 -80 52.5 -126t161 -46 t247.5 109l41 299q-109 18 -186 18q-135 0 -225.5 -71.5t-90.5 -182.5zM522 1242q0 52 50 90t119.5 38t117 -37t47.5 -89t-51 -89t-121 -37t-116 36t-46 88zM600 1245q0 -55 82 -55q41 0 67.5 14.5t26.5 39t-24.5 40.5t-61.5 16t-63.5 -16t-26.5 -39z" />
<glyph unicode="&#xe6;" horiz-adv-x="1609" d="M106 248q0 176 124 283.5t327 107.5q66 0 201 -23l37 -8l18 127l4 56q0 127 -186 127q-135 0 -307 -64l-25 121l158 41q123 26 219 26q262 0 262 -165q121 162 338 161q160 0 246 -94t86 -266q0 -102 -17 -217h-665l-2 -47q0 -145 77.5 -229.5t203 -84.5t272.5 54 l16 -121q-184 -55 -313 -56q-264 0 -353 185q-223 -186 -428 -187q-137 0 -215 72t-78 201zM266 276q0 -176 191 -176q150 0 331 156q-20 85 -20 156l8 100q-113 23 -178 23q-152 0 -242 -70t-90 -189zM936 569h522q8 51 8 86q0 264 -213 265q-127 0 -210.5 -92.5 t-106.5 -258.5z" />
<glyph unicode="&#xe7;" horiz-adv-x="827" d="M143 377q0 285 141.5 473t354.5 188q145 0 272 -100l-61 -119q-109 90 -207 90q-143 0 -239.5 -145.5t-96.5 -364.5q0 -139 59.5 -214.5t169.5 -75.5t234 98l27 -127q-160 -102 -315.5 -102.5t-247 105t-91.5 294.5zM344 -319l8 57q49 10 85 35.5t36 57.5t-37 32t-84 -21 l6 68q57 33 115 33q96 0 96 -82q0 -123 -225 -180z" />
<glyph unicode="&#xe8;" horiz-adv-x="980" d="M147 406q0 283 141.5 457.5t368.5 174.5q342 0 342 -387q0 -59 -6 -110q-10 -49 -14 -82h-660l-2 -49q0 -145 77 -226.5t199.5 -81.5t274.5 56l13 -123q-166 -55 -316 -55q-203 0 -310.5 109.5t-107.5 316.5zM326 571h514q8 51 8 95q0 254 -211 254q-125 0 -204.5 -90.5 t-106.5 -258.5zM437 1333l125 111l258 -266l-76 -68z" />
<glyph unicode="&#xe9;" horiz-adv-x="980" d="M147 406q0 283 141.5 457.5t368.5 174.5q342 0 342 -387q0 -59 -6 -110q-10 -49 -14 -82h-660l-2 -49q0 -145 77 -226.5t199.5 -81.5t274.5 56l13 -123q-166 -55 -316 -55q-203 0 -310.5 109.5t-107.5 316.5zM326 571h514q8 51 8 95q0 254 -211 254q-125 0 -204.5 -90.5 t-106.5 -258.5zM518 1171l326 271l96 -113l-363 -225z" />
<glyph unicode="&#xea;" horiz-adv-x="980" d="M147 406q0 283 141.5 457.5t368.5 174.5q342 0 342 -387q0 -59 -6 -110q-10 -49 -14 -82h-660l-2 -49q0 -145 77 -226.5t199.5 -81.5t274.5 56l13 -123q-166 -55 -316 -55q-203 0 -310.5 109.5t-107.5 316.5zM326 571h514q8 51 8 95q0 254 -211 254q-125 0 -204.5 -90.5 t-106.5 -258.5zM371 1176l316 233l251 -223l-59 -82l-215 137l-254 -137z" />
<glyph unicode="&#xeb;" horiz-adv-x="980" d="M147 406q0 283 141.5 457.5t368.5 174.5q342 0 342 -387q0 -59 -6 -110q-10 -49 -14 -82h-660l-2 -49q0 -145 77 -226.5t199.5 -81.5t274.5 56l13 -123q-166 -55 -316 -55q-203 0 -310.5 109.5t-107.5 316.5zM326 571h514q8 51 8 95q0 254 -211 254q-125 0 -204.5 -90.5 t-106.5 -258.5zM383 1192q0 37 32.5 61.5t76.5 24.5t72.5 -24.5t28.5 -60.5t-30.5 -60.5t-75.5 -24.5t-74.5 23.5t-29.5 60.5zM716 1193q0 36 31 60.5t76 24.5t75.5 -24.5t30.5 -60.5t-34.5 -60.5t-77.5 -24.5t-72 24.5t-29 60.5z" />
<glyph unicode="&#xec;" horiz-adv-x="372" d="M111 0l141 1014l156 22l-146 -1036h-151zM133 1333l125 111l258 -266l-76 -68z" />
<glyph unicode="&#xed;" horiz-adv-x="372" d="M111 0l141 1014l156 22l-146 -1036h-151zM215 1171l326 271l96 -113l-363 -225z" />
<glyph unicode="&#xee;" horiz-adv-x="372" d="M67 1176l316 233l251 -223l-59 -82l-215 137l-254 -137zM111 0l141 1014l156 22l-146 -1036h-151z" />
<glyph unicode="&#xef;" horiz-adv-x="372" d="M80 1192q0 37 32.5 61.5t76.5 24.5t72.5 -24.5t28.5 -60.5t-30.5 -60.5t-75.5 -24.5t-74.5 23.5t-29.5 60.5zM111 0l141 1014l156 22l-146 -1036h-151zM413 1193q0 36 31 60.5t76 24.5t75.5 -24.5t30.5 -60.5t-34.5 -60.5t-77.5 -24.5t-72 24.5t-29 60.5z" />
<glyph unicode="&#xf1;" d="M127 0l141 1014l152 24l-14 -100q166 104 308 104t219 -62t77 -167l-9 -104l-100 -709h-151l96 676l6 88q0 70 -48 112t-132 42q-125 0 -283 -105l-113 -813h-149zM400 1108l12 100q86 51 153.5 51.5t148.5 -23.5t140.5 -24t104.5 33l-14 -110q-66 -27 -125 -27l-54 6 l-61 21q-76 20 -153.5 20t-151.5 -47z" />
<glyph unicode="&#xf2;" horiz-adv-x="1030" d="M145 367q0 309 139.5 490t377.5 181q369 0 368 -399q0 -301 -141 -483.5t-377 -182.5q-170 0 -267.5 89.5t-97.5 254.5zM311 381q0 -287 217 -287q161 0 244 154q90 167 90 381q0 289 -217 289q-150 0 -242 -147.5t-92 -389.5zM461 1333l125 111l258 -266l-76 -68z" />
<glyph unicode="&#xf3;" horiz-adv-x="1030" d="M145 367q0 309 139.5 490t377.5 181q369 0 368 -399q0 -301 -141 -483.5t-377 -182.5q-170 0 -267.5 89.5t-97.5 254.5zM311 381q0 -287 217 -287q161 0 244 154q90 167 90 381q0 289 -217 289q-150 0 -242 -147.5t-92 -389.5zM543 1171l326 271l96 -113l-363 -225z" />
<glyph unicode="&#xf4;" horiz-adv-x="1030" d="M145 367q0 309 139.5 490t377.5 181q369 0 368 -399q0 -301 -141 -483.5t-377 -182.5q-170 0 -267.5 89.5t-97.5 254.5zM311 381q0 -287 217 -287q161 0 244 154q90 167 90 381q0 289 -217 289q-150 0 -242 -147.5t-92 -389.5zM395 1176l316 233l251 -223l-59 -82 l-215 137l-254 -137z" />
<glyph unicode="&#xf5;" horiz-adv-x="1030" d="M145 367q0 309 139.5 490t377.5 181q369 0 368 -399q0 -301 -141 -483.5t-377 -182.5q-170 0 -267.5 89.5t-97.5 254.5zM311 381q0 -287 217 -287q161 0 244 154q90 167 90 381q0 289 -217 289q-150 0 -242 -147.5t-92 -389.5zM402 1108l12 100q86 51 153.5 51.5 t148.5 -23.5t140.5 -24t104.5 33l-14 -110q-66 -27 -125 -27l-54 6l-61 21q-76 20 -153.5 20t-151.5 -47z" />
<glyph unicode="&#xf6;" horiz-adv-x="1030" d="M145 367q0 309 139.5 490t377.5 181q369 0 368 -399q0 -301 -141 -483.5t-377 -182.5q-170 0 -267.5 89.5t-97.5 254.5zM311 381q0 -287 217 -287q161 0 244 154q90 167 90 381q0 289 -217 289q-150 0 -242 -147.5t-92 -389.5zM408 1212q0 37 32.5 64t77.5 27t75 -26 t30 -61.5t-35 -62.5t-79 -27t-72.5 25t-28.5 61zM750 1213.5q0 35.5 33.5 62.5t78.5 27t74 -25t29 -61q0 -37 -35 -64t-80 -27t-72.5 26t-27.5 61.5z" />
<glyph unicode="&#xf7;" horiz-adv-x="1216" d="M88 414v139h948v-139h-948zM446 209q0 47 36 81t83 34t80 -33t33 -83t-35 -83q-31 -35 -80 -35t-83 36t-34 83zM446 758q0 49 36 82.5t83 33.5t80 -34.5t33 -82.5t-35 -81q-31 -35 -80 -35t-83 34t-34 83z" />
<glyph unicode="&#xf8;" horiz-adv-x="1040" d="M92 43l105 100q-52 64 -52 224q0 313 139.5 493t381.5 180q172 0 278 -108l96 102l56 -57l-107 -109v-12l39 -158q4 -14 4 -28v-25q0 -39 -2 -61.5t-25.5 -163.5t-137 -295t-357.5 -154q-147 0 -234 68l-34 41l-97 -92zM317 401q0 -51 15 -112l499 528q-23 45 -73.5 74 t-110.5 29q-145 0 -237.5 -145.5t-92.5 -373.5zM354 201q39 -102 181.5 -102.5t234.5 144t92 373.5q0 31 -4 60t-6 53z" />
<glyph unicode="&#xf9;" horiz-adv-x="1021" d="M162 207l6 78l102 729l156 24l-102 -723l-5 -69q0 -145 183 -146q127 0 278 99l115 815h149l-141 -1014h-149l10 76q-170 -101 -310.5 -101t-216 61.5t-75.5 170.5zM457 1333l125 111l258 -266l-76 -68z" />
<glyph unicode="&#xfa;" horiz-adv-x="1021" d="M162 207l6 78l102 729l156 24l-102 -723l-5 -69q0 -145 183 -146q127 0 278 99l115 815h149l-141 -1014h-149l10 76q-170 -101 -310.5 -101t-216 61.5t-75.5 170.5zM539 1171l326 271l96 -113l-363 -225z" />
<glyph unicode="&#xfb;" horiz-adv-x="1021" d="M162 207l6 78l102 729l156 24l-102 -723l-5 -69q0 -145 183 -146q127 0 278 99l115 815h149l-141 -1014h-149l10 76q-170 -101 -310.5 -101t-216 61.5t-75.5 170.5zM391 1176l316 233l251 -223l-59 -82l-215 137l-254 -137z" />
<glyph unicode="&#xfc;" horiz-adv-x="1021" d="M162 207l6 78l102 729l156 24l-102 -723l-5 -69q0 -145 183 -146q127 0 278 99l115 815h149l-141 -1014h-149l10 76q-170 -101 -310.5 -101t-216 61.5t-75.5 170.5zM408 1213.5q0 35.5 32.5 60t77.5 24.5t74 -22.5t29 -58.5q0 -37 -35 -64t-79 -27t-71.5 26t-27.5 61.5z M756 1212q0 37 30.5 61.5t75.5 24.5t74 -24.5t29 -59.5t-35 -61.5t-78 -26.5t-69.5 25t-26.5 61z" />
<glyph unicode="&#xff;" horiz-adv-x="845" d="M-33 -387l53 117q53 -27 114.5 -27t101.5 39q41 35 90 139l59 119h-76l-184 1014l164 22l137 -817q4 -35 6 -52t2 -61q11 47 39 113l369 795h164l-553 -1168q-70 -143 -139.5 -202.5t-158 -59.5t-188.5 29zM316 1192q0 37 32.5 61.5t76.5 24.5t72.5 -24.5t28.5 -60.5 t-30.5 -60.5t-75.5 -24.5t-74.5 23.5t-29.5 60.5zM649 1193q0 36 31 60.5t76 24.5t75.5 -24.5t30.5 -60.5t-34.5 -60.5t-77.5 -24.5t-72 24.5t-29 60.5z" />
<glyph unicode="&#x152;" horiz-adv-x="1587" d="M172 494.5q0 240.5 53.5 437t139.5 319.5q172 246 456 246l86 -6l74 -14h743l-14 -113l-580 -27l-77 -565h508l-15 -115h-510l-73 -520l559 -26l-17 -111h-710l-29 -2l-74 -10q-55 -12 -106 -13q-201 0 -307.5 139.5t-106.5 380zM348 518q0 -414 287 -414q88 0 164 39 l166 1188q-66 39 -160 39t-177 -53t-142.5 -161.5t-98.5 -284t-39 -353.5z" />
<glyph unicode="&#x153;" horiz-adv-x="1708" d="M143 362q0 303 145.5 491.5t377.5 188.5q260 0 329 -211q139 205 379 205q162 0 249 -93t87 -265q0 -98 -22 -217h-662l-4 -47q0 -150 77 -233t205 -83t273 56l14 -121q-184 -56 -307 -56q-285 0 -364 222q-133 -227 -404 -228q-180 0 -276.5 100.5t-96.5 290.5zM301 352 q0 -127 62.5 -195.5t173.5 -68.5q158 0 252 145.5t94 391.5q0 301 -232 301q-158 0 -254 -151.5t-96 -395.5v-27zM1036 569h523l6 88q0 260 -215 261q-125 0 -208 -91.5t-106 -257.5z" />
<glyph unicode="&#x178;" horiz-adv-x="948" d="M162 1477h188l203 -619q20 -47 20 -123q34 91 56 123l381 619h190l-561 -856l-88 -621h-164l86 621zM439 1704q0 37 32.5 61.5t76.5 24.5t72.5 -24.5t28.5 -60.5t-30.5 -60.5t-75.5 -24.5t-74.5 23.5t-29.5 60.5zM772 1705q0 36 31 60.5t76 24.5t75.5 -24.5t30.5 -60.5 t-34.5 -60.5t-77.5 -24.5t-72 24.5t-29 60.5z" />
<glyph unicode="&#x2000;" horiz-adv-x="978" />
<glyph unicode="&#x2001;" horiz-adv-x="1956" />
<glyph unicode="&#x2002;" horiz-adv-x="978" />
<glyph unicode="&#x2003;" horiz-adv-x="1956" />
<glyph unicode="&#x2004;" horiz-adv-x="652" />
<glyph unicode="&#x2005;" horiz-adv-x="489" />
<glyph unicode="&#x2006;" horiz-adv-x="326" />
<glyph unicode="&#x2007;" horiz-adv-x="326" />
<glyph unicode="&#x2008;" horiz-adv-x="244" />
<glyph unicode="&#x2009;" horiz-adv-x="391" />
<glyph unicode="&#x200a;" horiz-adv-x="108" />
<glyph unicode="&#x2010;" horiz-adv-x="630" d="M131 446l21 136h495l-20 -136h-496z" />
<glyph unicode="&#x2011;" horiz-adv-x="630" d="M131 446l21 136h495l-20 -136h-496z" />
<glyph unicode="&#x2012;" horiz-adv-x="630" d="M131 446l21 136h495l-20 -136h-496z" />
<glyph unicode="&#x2013;" d="M172 668l16 120h871l-19 -120h-868z" />
<glyph unicode="&#x2014;" horiz-adv-x="2039" d="M61 684l11 107h1917l-11 -107h-1917z" />
<glyph unicode="&#x2018;" horiz-adv-x="364" d="M184 1014l262 436l76 -23l-160 -413h-178z" />
<glyph unicode="&#x2019;" horiz-adv-x="364" d="M186 1034l160 416h178l-262 -436z" />
<glyph unicode="&#x201a;" horiz-adv-x="360" d="M-25 -248l160 414h180l-264 -436z" />
<glyph unicode="&#x201c;" horiz-adv-x="624" d="M184 1014l262 436l76 -23l-160 -413h-178zM444 1014l265 436l75 -23l-159 -413h-181z" />
<glyph unicode="&#x201d;" horiz-adv-x="624" d="M186 1034l160 416h178l-262 -436zM446 1034l160 416h180l-264 -436z" />
<glyph unicode="&#x201e;" horiz-adv-x="622" d="M-25 -248l160 414h180l-264 -436zM238 -248l159 414h178l-264 -436z" />
<glyph unicode="&#x2022;" horiz-adv-x="366" d="M139 509q0 34 36 60.5t84 26.5t81 -26.5t33 -61.5t-35 -57.5t-85 -22.5t-82 23.5t-32 57.5z" />
<glyph unicode="&#x2026;" horiz-adv-x="2039" d="M258 82q0 41 29 69t70.5 27.5t69.5 -28t28 -68.5t-29 -69.5t-70 -28.5t-69.5 28.5t-28.5 69.5zM940 82q0 41 29 69t70.5 27.5t69.5 -28t28 -68.5t-29 -69.5t-70 -28.5t-69.5 28.5t-28.5 69.5zM1608 82q0 41 28.5 69.5t69.5 28.5t69.5 -28.5t28.5 -69.5t-28.5 -69.5 t-69.5 -28.5t-69.5 28.5t-28.5 69.5z" />
<glyph unicode="&#x202f;" horiz-adv-x="391" />
<glyph unicode="&#x2039;" horiz-adv-x="493" d="M154 508l301 410l82 -39l-236 -371l129 -369l-96 -33z" />
<glyph unicode="&#x203a;" horiz-adv-x="489" d="M102 139l228 369l-119 375l88 37l182 -412l-299 -399z" />
<glyph unicode="&#x205f;" horiz-adv-x="489" />
<glyph unicode="&#x20ac;" horiz-adv-x="948" d="M98 553l55 121h568l-56 -121h-567zM98 795l55 120h678l-55 -120h-678zM166 466q0 226 49 426t172 401.5t406 201.5q135 0 278 -65l-43 -119l-55 26q-100 35 -180 35q-201 0 -294 -181t-124 -386t-31 -326q0 -182 69.5 -280.5t196.5 -98.5t293 84l15 -123 q-188 -86 -338 -86q-199 0 -306.5 132.5t-107.5 358.5z" />
<glyph unicode="&#x2122;" horiz-adv-x="1583" d="M272 1382l21 93h440l-20 -93l-170 2l-148 -647h-100l145 647zM541 737l321 762h31l113 -504l10 -41v-34q0 -23 -2 -35q14 57 53 110l344 504h33l-25 -762h-102l22 445v28l17 72l-31 -63l-14 -25l-324 -477h-22l-105 469l-6 33l-4 63q0 -26 -16 -78l-189 -467h-104z" />
<glyph unicode="&#xe000;" horiz-adv-x="1034" d="M0 0v1034h1034v-1034h-1034z" />
</font>
</defs>
</svg>
