<?xml version="1.0" standalone="no"?>
<!DOCTYPE svg PUBLIC "-//W3C//DTD SVG 1.1//EN" "http://www.w3.org/Graphics/SVG/1.1/DTD/svg11.dtd" >
<svg xmlns="http://www.w3.org/2000/svg">
<metadata></metadata>
<defs>
<font id="Glasgow-LightRegular" horiz-adv-x="1026" >
<font-face units-per-em="2048" ascent="1638" descent="-410" />
<missing-glyph horiz-adv-x="593" />
<glyph unicode=" "  horiz-adv-x="593" />
<glyph unicode="&#x09;" horiz-adv-x="593" />
<glyph unicode="&#xa0;" horiz-adv-x="593" />
<glyph unicode="!" horiz-adv-x="430" d="M98 64q0 37 36 63.5t82 26.5t81 -26t35 -62q0 -37 -36 -64t-82 -27t-81 26t-35 63zM113 1477h194l-53 -1180h-90z" />
<glyph unicode="&#x22;" horiz-adv-x="624" d="M39 1034l102 416h181l-203 -436zM301 1034l102 416h179l-201 -436z" />
<glyph unicode="#" horiz-adv-x="1294" d="M109 475l18 86h235l74 352h-235l18 86h236l92 439h86l-92 -439h227l92 439h86l-92 -439h236l-19 -86h-235l-76 -352h237l-18 -86h-236l-92 -438h-86l92 438h-227l-92 -438h-86l92 438h-235zM449 561h225l76 352h-228z" />
<glyph unicode="$" horiz-adv-x="960" d="M61 1107q0 149 104.5 259.5t268.5 124.5v156h68v-160q16 6 49 10q51 0 103 -11q76 -16 143 -42l-47 -129q-100 49 -222 49h-26v-539l71 -30l80 -41l68 -39l96 -76q82 -62 82 -238t-105.5 -285.5t-297.5 -133.5v-170h-74v165h-33q-18 0 -43 5l-65 14q-96 18 -218 74 l52 129q117 -59 200 -78l119 -12v569q-197 80 -285 180t-88 249zM227 1116q0 -135 129 -215l78 -35v490q-94 -31 -150.5 -97.5t-56.5 -142.5zM498 119q102 25 143 59.5t57 69.5q37 83 37 133q1 164 -237 268v-530z" />
<glyph unicode="%" horiz-adv-x="1527" d="M82 1127q0 171 90 272.5t242 101.5t243 -100.5t91 -274.5t-88.5 -272t-242 -98t-244.5 100t-91 271zM94 0l1225 1477h113l-1221 -1477h-117zM223 1126q0 -123 51 -198q53 -72 139.5 -72t139.5 75t53 198.5t-50 196.5t-137 73t-141.5 -75t-54.5 -198zM784 344 q0 170 90 272.5t239.5 102.5t241 -100.5t91.5 -270.5t-90 -272.5t-240 -102.5t-241 100.5t-91 270.5zM928 346q0 -119 50 -193.5t135 -74.5t138 74q51 78 51.5 198.5t-50 193t-135.5 72.5t-138 -73q-51 -78 -51 -197z" />
<glyph unicode="&#x26;" horiz-adv-x="1277" d="M80 383q0 165 100 279q27 37 64 69l94 76q-121 181 -121 340.5t90 257.5t224.5 98t213 -84t78.5 -225.5t-85 -235.5t-199 -170l112 -147l86 -96l84 -86l131 -125l76 106l25 43l100 -71l-53 -84l-58 -74l97 -72l112 -76l-86 -106l-67 41l-99 70l-51 43l-53 -48 q-169 -137 -366.5 -137t-323 118t-125.5 296zM229 393q0 -131 87 -215t239 -84t297 142q-39 35 -72 64.5t-61 57.5l-98 103l-101 112l-104 134q-186 -143 -187 -314zM367 1166q0 -85 20.5 -144t77.5 -137q109 68 161 143.5t52 162.5t-41 136t-107.5 49t-114.5 -62.5 t-48 -147.5z" />
<glyph unicode="'" horiz-adv-x="364" d="M39 1034l102 416h181l-203 -436z" />
<glyph unicode="(" horiz-adv-x="468" d="M82 735q0 246 55 398l76 194l57 111q25 57 58 104l65 98l49 -32l-49 -107l-53 -141q-33 -92 -62.5 -269.5t-29.5 -330.5q0 -282 28 -408l46 -186l40 -121q23 -63 80 -182l-49 -33l-67 104l-136 246q-109 205 -108 555z" />
<glyph unicode=")" horiz-adv-x="471" d="M29 -139l84 196q111 307 110 678v86q0 93 -10 158q-17 208 -96 424q-31 92 -88 207l49 30l69 -102l82 -152q61 -117 110.5 -295t49.5 -393t-65 -391q-71 -188 -109 -256l-70 -121l-67 -100z" />
<glyph unicode="*" horiz-adv-x="753" d="M74 1071l233 94l-231 101l67 114l197 -157l-35 254h133l-35 -256l205 159l70 -118l-242 -97l232 -96l-68 -113l-203 154l45 -252h-133l31 254l-199 -156z" />
<glyph unicode="+" d="M131 698v125h315v322h127v-322h322v-125h-322v-311h-129v311h-313z" />
<glyph unicode="," horiz-adv-x="360" d="M10 -248l103 414h180l-205 -436z" />
<glyph unicode="-" horiz-adv-x="630" d="M66 446v136h499v-136h-499z" />
<glyph unicode="." horiz-adv-x="366" d="M66 64q0 37 35.5 63.5t82.5 26.5t81 -26t34 -64t-31.5 -62.5t-81.5 -24.5q-49 0 -84.5 25t-35.5 62z" />
<glyph unicode="/" horiz-adv-x="649" d="M16 -23l537 1518h82l-541 -1518h-78z" />
<glyph unicode="0" d="M84 737q0 760 428 760t428 -760t-428 -760t-428 760zM254 739q0 -340 61.5 -495.5t196.5 -155.5t196.5 153.5t61.5 492.5t-61.5 494.5t-196.5 155.5t-196.5 -152.5t-61.5 -492.5z" />
<glyph unicode="1" d="M201 1282l321 195h99v-1336h229v-141h-627v141h234v1157l-230 -102z" />
<glyph unicode="2" d="M117 0v102l135 166q193 242 288 386q199 302 199 470q0 104 -69.5 171t-187.5 67t-294 -76l-34 127q209 86 376.5 86t272 -96t104.5 -262q0 -113 -57 -240t-199 -328l-250 -335l-92 -111l582 -18v-109h-774z" />
<glyph unicode="3" d="M135 94q254 0 405.5 99.5t151.5 267.5q0 264 -368 264l-70 -4v108q188 0 309 93.5t121 230.5q0 102 -69.5 162.5t-184 60.5t-254.5 -49l-31 115q190 59 312 59q168 0 275.5 -87t107.5 -219t-93.5 -237.5t-263.5 -166.5q172 0 275.5 -88.5t103.5 -239.5 q0 -213 -189.5 -349.5t-504.5 -136.5z" />
<glyph unicode="4" d="M94 385v100l447 992h180l-477 -973h401l55 645h101v-645h127v-119h-129v-385h-164v385h-541z" />
<glyph unicode="5" d="M117 88q264 0 434 118t170 288q0 117 -101.5 180t-281.5 63l-141 -6l51 746h579v-107l-436 -24l-35 -504l76 4q209 0 334 -94.5t125 -255.5q0 -213 -211 -366t-526 -153z" />
<glyph unicode="6" d="M94 590q0 389 154.5 560t270.5 237.5t276 111.5l36 -102q-260 -92 -387 -234.5t-174 -392.5q143 115 301 115t265.5 -128t107.5 -328t-111.5 -326t-303 -126t-313.5 167t-122 446zM258 573q0 -211 81 -346t214 -135q106 0 173 87t67 238t-76 249t-205 98t-250 -117z" />
<glyph unicode="7" d="M113 0l632 1348l-614 20v109h780v-93l-608 -1384h-190z" />
<glyph unicode="8" d="M72 371q0 260 309 397q-135 96 -195 180q-55 84 -55 193q0 154 111.5 253t276.5 99t272.5 -94t107.5 -242q0 -229 -278 -360q186 -106 259.5 -200.5t73.5 -213.5q0 -168 -127 -285.5t-315 -117.5t-314 111.5t-126 279.5zM213 381q0 -123 84 -201t209 -78t205 77t80 178.5 t-69.5 177t-262.5 184.5q-246 -129 -246 -338zM291 1161q0 -92 55.5 -161.5t196.5 -155.5q227 104 227 301q0 100 -70.5 169.5t-172 69.5t-169 -65.5t-67.5 -157.5z" />
<glyph unicode="9" d="M82 1041.5q0 201.5 111.5 327.5t303 126t312.5 -169t121 -456q0 -392 -228 -638q-116 -126 -237 -177l-150 -57l-82 -25l-43 103q270 100 394.5 238.5t171.5 390.5q-143 -119 -300 -119t-265.5 127t-108.5 328.5zM229 1060.5q0 -147.5 78 -249.5t203 -102.5t252 116.5 l2 56q0 225 -81 363t-214 138q-106 0 -173 -87t-67 -234.5z" />
<glyph unicode=":" horiz-adv-x="428" d="M98 65q0 36 36 62.5t82 26.5t80 -26t34 -64t-32 -62.5t-81 -24.5t-84 26t-35 62zM98 750q0 35 33 65q36 27 83.5 27t81.5 -25.5t34 -63.5t-33 -63.5t-81 -25.5t-85 24q-33 27 -33 62z" />
<glyph unicode=";" horiz-adv-x="446" d="M37 -248l102 414h180l-202 -436zM115 751q0 36 35.5 63.5t82.5 27.5t82 -25.5t35 -62.5t-31.5 -62.5t-82 -25.5t-86 24.5t-35.5 60.5z" />
<glyph unicode="&#x3c;" horiz-adv-x="493" d="M82 508l242 410l88 -39l-185 -371l183 -369l-91 -33z" />
<glyph unicode="=" d="M78 596v121h870v-121h-870zM78 809v121h870v-121h-870z" />
<glyph unicode="&#x3e;" horiz-adv-x="489" d="M82 139l174 369l-170 375l84 37l238 -412l-242 -399z" />
<glyph unicode="?" horiz-adv-x="706" d="M29 1450q173 45 290 45q168 0 265.5 -81t97.5 -218q0 -84 -35 -147q-35 -72 -51 -93l-188 -243q-63 -78 -87 -141.5t-24 -155.5l2 -121h-127l-8 82l-2 86q0 109 26.5 159t137.5 201l61 86q129 171 129 261t-63.5 144t-169.5 54h-62q-29 -6 -53 -9q-41 -5 -109 -28z M131 64q0 37 35 63.5t82 26.5t82 -26t35 -63t-36 -63.5t-82 -26.5t-81 26t-35 63z" />
<glyph unicode="@" horiz-adv-x="1708" d="M117 735q0 262 161 483q84 117 213.5 191t221.5 86t137 12q270 0 445 -180t175 -457q0 -59 -19 -193t-112.5 -249t-158.5 -127l-82 -8q-80 0 -127 49t-47 131q-14 -43 -41 -74q-74 -86 -170 -86q-49 0 -149.5 47.5t-100.5 339.5l8 74q18 133 72 227q49 98 129 154.5 t155 56.5q115 0 172 -112l11 -23l18 127l98 -2l-79 -446l-29 -185l-4 -30v-25q0 -39 15 -90t83 -51l39 8q25 10 38 21q40 36 73 77t63 113q25 70 37 145l10 129q0 246 -143.5 398.5t-370.5 152.5q-66 0 -190 -22q-137 -18 -289 -212t-152 -450q0 -100 41 -259t205 -292 t365 -133q170 0 315 90l102 74q63 55 115 115l47 -54l-53 -59q-236 -244 -523.5 -244t-486 184.5t-218 357.5t-19.5 220zM571 594l7 -72q6 -32 20 -57q35 -74 119 -74q92 0 145 103l37 86l29 92l20 94l17 106l6 76q0 76 -44 126t-110 50t-115 -62t-81 -151l-35 -131l-13 -92 z" />
<glyph unicode="A" horiz-adv-x="1003" d="M-23 0l429 1477h190l426 -1477h-168l-149 547h-406l-152 -547h-170zM328 664h346l-146 536l-24 111l-4 57q0 -72 -27 -168z" />
<glyph unicode="B" horiz-adv-x="1062" d="M125 0v1477h416q84 0 157 -15q111 -25 173.5 -117t62.5 -227q0 -319 -322 -346q199 0 290 -90t91 -299t-114.5 -296t-311.5 -87h-442zM285 117h260q143 0 208.5 71.5t65.5 225.5q0 262 -217 288l-121 7h-196v-592zM291 819h196q139 0 209 67.5t70 215.5q0 258 -227 258 h-248v-541z" />
<glyph unicode="C" horiz-adv-x="948" d="M82 731q0 373 129 568.5t371 195.5q137 0 288 -65l-28 -119q-62 28 -125 47q-72 14 -119 14q-336 0 -336 -659q0 -612 338 -613q123 0 277 84l28 -123q-170 -86 -323 -86q-244 0 -372 191.5t-128 564.5z" />
<glyph unicode="D" horiz-adv-x="1107" d="M125 0v1477h362q180 0 359.5 -112t179.5 -626q0 -383 -133 -561t-422 -178h-346zM289 119h170q209 0 298 142t89 472t-87 476.5t-286 146.5h-184v-1237z" />
<glyph unicode="E" horiz-adv-x="921" d="M125 0v1477h727v-111l-563 -27v-518h508v-114h-508v-570l575 -28v-109h-739z" />
<glyph unicode="F" horiz-adv-x="849" d="M125 0v1477h727v-109l-567 -29v-520h514v-114h-514v-705h-160z" />
<glyph unicode="G" horiz-adv-x="1167" d="M82 711q0 788 528 788q190 0 367 -133l-68 -106q-142 112 -290 112h-3q-86 0 -160.5 -44t-133.5 -161q-58 -114 -58 -452q0 -174 13.5 -262t76 -217.5t285.5 -129.5q121 0 246 64v514h-338v119h495v-725q-253 -103 -415 -103q-545 0 -545 736z" />
<glyph unicode="H" horiz-adv-x="1169" d="M125 0v1477h164v-646h592v646h163v-1477h-163v717h-592v-717h-164z" />
<glyph unicode="I" horiz-adv-x="409" d="M125 0v1477h160v-1477h-160z" />
<glyph unicode="J" horiz-adv-x="413" d="M23 -223q102 117 102 266l2 121v1313h164v-1350q0 -86 -6 -128t-39 -116t-144 -166z" />
<glyph unicode="K" horiz-adv-x="980" d="M125 0v1477h160v-584l4 -41l-6 -41l18 35l23 35l446 596h186l-518 -689l596 -788h-205l-497 666q-31 45 -49 88v-27l6 -76v-651h-164z" />
<glyph unicode="L" horiz-adv-x="792" d="M125 0v1477h164v-1340l522 -28v-109h-686z" />
<glyph unicode="M" horiz-adv-x="1527" d="M63 0l162 1477h195l311 -1110l19 -82l10 -56l4 -59v41q0 18 16 74l19 82l309 1110h197l159 -1477h-161l-111 1108q-6 35 -6 100v80q-17 -101 -39 -178l-309 -1110h-148l-309 1110l-41 178v-160q-4 -14 -4 -20l-111 -1108h-162z" />
<glyph unicode="N" horiz-adv-x="1193" d="M125 0v1477h180l578 -1149l28 -68l23 -80l-4 43l-6 43l-6 74v1137h151v-1477h-186l-574 1135l-57 153q20 -108 20 -176v-1112h-147z" />
<glyph unicode="O" horiz-adv-x="1173" d="M82 739.5q0 364.5 129 561t374 196.5t377 -198.5t132 -562.5t-130 -561.5t-373 -197.5t-376 199t-133 563.5zM254 736q0 -306 86 -471t244 -165t247 166q89 174 89 474t-86 466t-245 166t-247 -165t-88 -471z" />
<glyph unicode="P" horiz-adv-x="940" d="M125 0v1477h282.5t124.5 -4q43 0 127 -19.5t162 -126t78 -266.5q0 -250 -107.5 -323.5t-193.5 -91t-190 -17.5h-119v-629h-164zM289 737h102q94 0 152.5 13.5t124.5 70.5q65 56 65 231v5q0 119 -44 191.5t-109 86.5q-82 15 -131 15h-160v-613z" />
<glyph unicode="Q" horiz-adv-x="1173" d="M82 737q0 367 129 563.5t374 196.5t377 -198.5t132 -561.5q0 -711 -473 -760l-9 -34q0 -84 105 -84l98 10l6 -102q-84 -23 -166 -23q-172 0 -172 109q0 47 33 127q-141 29 -287.5 160.5t-146.5 596.5zM254 736q0 -306 86 -471t244 -165t247 166q89 174 89 474t-86 466 t-245 166t-247 -165t-88 -471z" />
<glyph unicode="R" horiz-adv-x="993" d="M125 0v1477h346q203 0 316.5 -96.5t113.5 -267.5t-112.5 -277.5t-294.5 -106.5l-58 2l611 -731h-205l-553 709v-709h-164zM285 821h100q348 0 348 283q0 121 -72.5 187.5t-216.5 66.5h-159v-537z" />
<glyph unicode="S" horiz-adv-x="960" d="M61 1111q0 165 126 275.5t327 110.5q106 0 167.5 -16.5t115.5 -36.5l-47 -129q-119 53 -239 53t-204 -68.5t-84 -173t66 -170.5q25 -31 69 -57l189 -94q145 -63 249.5 -148.5t104.5 -264.5t-131 -297t-340 -118q-90 0 -174 19.5t-193 73.5l52 129q180 -90 312 -90 t218 73.5t86 186t-64.5 173t-209.5 128.5l-193 94q-43 23 -123 102.5t-80 244.5z" />
<glyph unicode="T" horiz-adv-x="868" d="M-16 1368v109h899v-111l-369 -27v-1339h-162v1337z" />
<glyph unicode="U" horiz-adv-x="1183" d="M125 432v1045h164v-1043q0 -154 80 -239.5t225 -85.5t224 85t79 240v1043h164v-1045q0 -102 -31 -201.5t-150.5 -177.5t-285.5 -78q-161 0 -285 77q-45 28 -94 71q-90 80 -90 309z" />
<glyph unicode="V" horiz-adv-x="962" d="M-18 1477h176l295 -1170l12 -63l16 -99l15 97l311 1235h174l-399 -1477h-201z" />
<glyph unicode="W" horiz-adv-x="1595" d="M43 1477h170l197 -1127l12 -88l6 -90q0 65 10 88l273 1217h174l254 -1129l18 -96l12 -80v44q0 20 5 46l210 1215h170l-282 -1477h-189l-260 1137l-24 161l-27 -161l-258 -1137h-188z" />
<glyph unicode="X" d="M10 0l381 799l-336 678h181l235 -494l18 -49l23 -72q12 61 39 121l237 494h183l-338 -678l381 -799h-183l-274 612l-45 127l-27 -80l-18 -47l-274 -612h-183z" />
<glyph unicode="Y" horiz-adv-x="948" d="M-47 1477h188l293 -619l19 -55l18 -68q16 82 39 123l291 619h192l-442 -856v-621h-164v621z" />
<glyph unicode="Z" horiz-adv-x="927" d="M43 0v109l612 1173q16 41 66 86q-55 -12 -92 -12l-545 12v109h797v-109l-609 -1165l-41 -58l-30 -36q55 20 102 20h14l566 -14v-115h-840z" />
<glyph unicode="[" horiz-adv-x="446" d="M125 -164v1802h295v-125h-144v-1552h144v-125h-295z" />
<glyph unicode="\" horiz-adv-x="632" d="M109 1475h110l258 -1475h-110z" />
<glyph unicode="]" horiz-adv-x="446" d="M27 -39h143v1552h-143v125h297v-1802h-297v125z" />
<glyph unicode="^" horiz-adv-x="589" d="M12 1176l283 233l280 -223l-47 -82l-233 137l-236 -137z" />
<glyph unicode="_" horiz-adv-x="1032" d="M109 0h737v-51h-737v51z" />
<glyph unicode="`" horiz-adv-x="507" d="M12 1333l113 111l293 -266l-66 -68z" />
<glyph unicode="a" horiz-adv-x="974" d="M61 299q0 152 109 246t287 94l108 -6l135 -25v111q0 51 -8 76q-18 118 -200 118h-3q-68 0 -127 -11t-163 -50l-43 127q227 61 378.5 61t241.5 -75q41 -33 60 -82q14 -51 14 -142v-741h-141l-4 98q-78 -61 -153 -92t-153 -31q-150 0 -244 86t-94 238zM227 309 q0 -92 61 -149q62 -58 177 -58h1q114 0 234 109v299l-104 14l-86 4q-129 0 -206 -63.5t-77 -155.5z" />
<glyph unicode="b" horiz-adv-x="1015" d="M125 0v1473l151 24v-563q129 106 271 106q176 0 280.5 -140t104.5 -384t-104.5 -391.5t-280.5 -147.5q-66 0 -129 25t-154 86l-6 -88h-133zM274 209q127 -90 241 -90t183.5 104.5t69.5 288.5q0 389 -268 389q-104 0 -226 -92v-600z" />
<glyph unicode="c" horiz-adv-x="827" d="M84 500q0 244 110.5 391t301.5 147q143 0 288 -100l-47 -119q-121 90 -219 90q-125 0 -198.5 -107.5t-73.5 -293.5t73.5 -292.5t192.5 -106.5t229 98l47 -127q-150 -102 -292 -103q-193 0 -302.5 139.5t-109.5 383.5z" />
<glyph unicode="d" horiz-adv-x="1017" d="M84 494q0 247 109 394.5t292 147.5q137 0 258 -102v539l152 20v-1493h-145v92q-101 -69 -152 -92t-119 -23q-176 0 -285.5 142.5t-109.5 374.5zM252 505q0 -189 69.5 -289.5t196.5 -100.5q57 0 105.5 19.5t119.5 68.5v604q-125 94 -238.5 94t-183 -103.5t-69.5 -292.5z " />
<glyph unicode="e" horiz-adv-x="980" d="M84 514.5q0 247.5 112.5 385.5t309 138t302 -130t105.5 -371l-2 -78h-659q0 -168 92 -262.5t254 -94.5q101 0 246 56l30 -123q-164 -55 -307 -55q-227 0 -356 141q-127 146 -127 393.5zM246 571h514q0 348 -252 349q-121 0 -191.5 -91.5t-70.5 -257.5z" />
<glyph unicode="f" horiz-adv-x="471" d="M10 905v109h133v184q0 59 3.5 79.5t15.5 68t84 96.5q72 45 172 45h47l86 -8l39 -9l-37 -120l-55 14l-49 4q-82 0 -117 -43t-35 -143v-168h258v-105l-258 -16v-893h-154v895z" />
<glyph unicode="g" horiz-adv-x="952" d="M61 -121h146q0 -94 64.5 -136t215.5 -42q276 0 277 164q0 90 -105 106l-65 6l-41 3l-117 2h-86q-20 4 -45.5 4t-129 13t-103.5 91q0 54 70 120q16 15 30 28l57 53l43 35q-198 90 -198 331q0 180 107.5 281.5t295.5 101.5t289 -100q49 106 147 107l37 -5v-139l-37 4 q-49 0 -94 -39q53 -93 53 -211q0 -176 -102 -272t-291 -96q-59 0 -121 10q-122 -110 -122 -153q0 -24 44 -30q84 -10 222 -10l102 -2q43 0 130 -13t137.5 -70.5t50.5 -147.5q0 -139 -111 -219q-115 -76 -322 -76q-428 0 -428 277v24zM240 660q0 -120 62.5 -191.5t172 -71.5 t173 70t63.5 193.5t-62.5 196.5t-169.5 73q-106 0 -172.5 -75t-66.5 -195z" />
<glyph unicode="h" d="M125 0v1473l149 24v-565q140 113 295 113l1 -1q155 0 243 -79.5t88 -251.5v-713h-151v682l-2 45q0 27 -19.5 110t-174 83t-280.5 -107v-813h-149z" />
<glyph unicode="i" horiz-adv-x="401" d="M111 1364q0 111 84 111q53 0 75.5 -28t22.5 -99q0 -96 -86 -97q-51 0 -76 25q-20 27 -20 88zM125 0v1014l149 22v-1036h-149z" />
<glyph unicode="j" horiz-adv-x="403" d="M20 -362l52 55q16 20 36.5 67t20.5 191v1063l152 22v-1106q0 -82 -6.5 -128t-35 -100t-126.5 -118zM113 1363q0 112 86 112q96 0 96 -127q0 -96 -86 -97q-96 0 -96 112z" />
<glyph unicode="k" horiz-adv-x="856" d="M125 0v1473l149 24v-770l-2 -84q12 37 47 66l297 305h183l-393 -410l518 -604h-199l-399 475l-23 29l-33 61l4 -61v-504h-149z" />
<glyph unicode="l" horiz-adv-x="399" d="M125 0v1473l149 22v-1495h-149z" />
<glyph unicode="m" horiz-adv-x="1548" d="M125 0v1014l149 22v-82q139 88 265 88q170 0 262 -131q155 127 304.5 127t213 -61.5t84 -118.5t20.5 -158v-700h-149v674q0 72 -9 115.5t-63.5 86t-126.5 42.5q-111 0 -231 -107v-811h-150v666l-4 104q-6 61 -62.5 104.5t-133.5 43.5q-111 0 -220 -91v-827h-149z" />
<glyph unicode="n" d="M125 0v1014l147 24v-100q158 104 308 104t217 -61t85.5 -117.5t18.5 -154.5v-709h-151v735l-15 72q-6 37 -61.5 74t-134.5 37q-117 0 -265 -105v-813h-149z" />
<glyph unicode="o" horiz-adv-x="1030" d="M84 506q0 256 111.5 394t319.5 138t320.5 -137t112.5 -393t-111.5 -395.5t-320.5 -139.5t-320.5 138.5t-111.5 394.5zM248 506q0 -197 69.5 -304.5t198.5 -107.5t197.5 108.5t68.5 305.5t-69.5 303.5t-197.5 106.5t-197.5 -107.5t-69.5 -304.5z" />
<glyph unicode="p" horiz-adv-x="1015" d="M125 -389v1403l133 22l14 -112q124 112 265 112h2q178 0 285.5 -146.5t107.5 -388t-103.5 -384t-283.5 -142.5q-72 0 -135 25t-138 82v-471h-147zM274 207q66 -43 125 -72q55 -20 111 -20q123 0 190.5 99t67.5 286q0 186 -71.5 291.5t-186 105.5t-236.5 -86v-604z" />
<glyph unicode="q" horiz-adv-x="1017" d="M84 491q0 238 108.5 391.5t282.5 153.5q127 0 279 -106v84l141 22v-1425h-154v471q-127 -109 -268 -109q-176 0 -283 140q-106 140 -106 378zM248 491.5q0 -184.5 68.5 -280.5t188.5 -96t238 94v600q-129 92 -239.5 92t-183 -112.5t-72.5 -297z" />
<glyph unicode="r" horiz-adv-x="516" d="M125 0v1014l151 4v-82q63 53 119 75.5t131 22.5l-18 -157l-62 6q-55 0 -88.5 -11.5t-81.5 -50.5v-821h-151z" />
<glyph unicode="s" horiz-adv-x="821" d="M55 51l51 131q153 -74 263 -74h1q110 0 172 41t62 98.5t-45 95.5t-180 110.5t-159.5 89t-46 34t-51.5 47.5q-59 58 -59 165.5t102.5 183.5t260.5 76q110 0 191 -26t126 -44l-45 -123q-160 66 -262 66t-159.5 -37t-57.5 -106t82 -120l322 -174q80 -49 111.5 -99t31.5 -122 q0 -129 -103.5 -209t-258 -80t-349.5 76z" />
<glyph unicode="t" horiz-adv-x="507" d="M6 911v103h131v178l154 29v-207h211v-105l-211 -14v-649l2 -76q10 -70 96 -70q46 0 113 25v-119q-69 -26 -165.5 -26t-156.5 55q-43 53 -43 166v698z" />
<glyph unicode="u" horiz-adv-x="1021" d="M125 285v729l151 24v-723q0 -55 10.5 -102t65 -80t133.5 -33q127 0 263 99v815h151v-1014h-149l-2 76q-153 -101 -302 -101q-322 0 -321 310z" />
<glyph unicode="v" horiz-adv-x="837" d="M-18 1014l157 24l254 -809q14 -37 27 -116l26 114l248 787h160l-336 -1014h-196z" />
<glyph unicode="w" horiz-adv-x="1441" d="M23 1014l159 22l201 -788l14 -66l4 -53q0 41 5 61l14 62l213 762h178l209 -760l14 -57q6 -25 6 -64q0 39 4 57l220 824h155l-284 -1014h-181l-211 745l-24 148l-10 -78q-6 -47 -15 -67l-209 -748h-182z" />
<glyph unicode="x" horiz-adv-x="880" d="M8 0l318 539l-289 475l170 22l205 -362l28 -76l13 39l213 377h174l-283 -471l315 -543h-172l-219 389q-27 55 -41 103l-14 -54l-25 -51l-215 -387h-178z" />
<glyph unicode="y" horiz-adv-x="845" d="M-18 1014l159 22l252 -817l27 -113l22 113l256 795h166l-391 -1168q-49 -145 -109.5 -203.5t-162.5 -58.5h-62q-14 4 -20 4l-96 25l34 117q68 -27 123 -27t92 39q35 29 72 139l41 119h-76z" />
<glyph unicode="z" horiz-adv-x="856" d="M39 0v82l536 762l25 30q14 16 47 35q-43 -12 -84 -12h-18l-482 14v103h750v-82l-524 -752l-33 -41l-45 -37q62 17 88 17h12l504 -15v-104h-776z" />
<glyph unicode="{" horiz-adv-x="661" d="M109 737q55 0 89.5 41.5t34.5 104.5v690q0 127 156 127h115v-64h-23q-74 0 -91 -18q-30 -32 -30 -109v-616q0 -59 -36.5 -104.5t-98.5 -51.5q53 -6 97 -49q39 -45 38 -106v-617q0 -80 21.5 -103.5t99.5 -23.5h23v-63h-115q-156 0 -156 127v690q0 98 -45 118.5t-79 26.5z " />
<glyph unicode="|" horiz-adv-x="354" d="M109 0v1475h110v-1475h-110z" />
<glyph unicode="}" horiz-adv-x="661" d="M109 -162h22q74 0 91 18q30 33 30 109v617q0 59 37 104t96 51q-55 6 -96 49q-37 43 -37 107v616q0 78 -22.5 102.5t-98.5 24.5h-22v64h114q154 0 154 -127v-690q0 -63 34.5 -104.5t92.5 -41.5q-33 -4 -80 -26q-47 -18 -47 -119v-690q0 -127 -154 -127h-114v63z" />
<glyph unicode="~" horiz-adv-x="747" d="M12 1567v114q111 52 226 52l71 -2q16 0 85 -17q132 -31 208 -31t133 35v-123q-154 -46 -233 -20l-86 20q-45 12 -97 19l-90 6q-90 0 -163 -27z" />
<glyph unicode="&#xa1;" horiz-adv-x="432" d="M98 1387.5q0 35.5 36 62.5t84 27t82 -26t34 -65t-35 -62.5t-83 -23.5t-85 25q-33 27 -33 62.5zM121 -25l55 1180h90l53 -1180h-198z" />
<glyph unicode="&#xa2;" horiz-adv-x="827" d="M84 505q0 237 104.5 382t286.5 145v131h64l2 -131q35 0 63 -10q78 -18 180 -84l-47 -119l-59 39l-76 37q-31 12 -74 12v-794q47 0 92.5 14t120.5 80l47 -127l-55 -33q-31 -16 -47 -24.5t-53 -22.5l-109 -23v-157h-59v157q-184 18 -282.5 154.5t-98.5 373.5zM252 525.5 q0 -123.5 24.5 -208t55.5 -118.5q27 -25 61 -47q32 -14 74 -27v770l-96 -53q-39 -31 -68 -80q-51 -113 -51 -236.5z" />
<glyph unicode="&#xa3;" horiz-adv-x="1019" d="M84 0v119q223 0 223 280q0 111 -24 314h-136v82h136l-2 24q-16 119 -17 211q0 469 416 469q92 0 227 -37l-30 -104q-92 31 -183 31q-272 0 -272 -383l6 -105l6 -90l2 -18h357v-80h-349q18 -160 18.5 -275.5t-37.5 -181.5t-151 -129l41 2q31 0 43 4q80 0 152 -12l102 -17 l101 -10l49 2l53 8q29 6 37 8q29 5 84 42v-142q-121 -43 -219 -43t-228 25l-124 24q-68 12 -132 13l-77 -6q-27 -6 -72 -25z" />
<glyph unicode="&#xa4;" horiz-adv-x="1011" d="M109 438l133 133q-59 76 -59.5 167t57.5 167l-131 125l26 33l31 29l133 -129q76 57 170 57t168 -55l129 129l18 -15q25 -18 43 -49l-133 -125q54 -77 54 -169.5t-56 -166.5l133 -133l-26 -26l-35 -31l-129 133q-68 -55 -163 -55t-173 55l-133 -131q-31 25 -57 57z M274 739q0 -80 55.5 -137t135.5 -57t136 56t56 136t-57 136.5t-136 56.5t-134.5 -55.5t-55.5 -135.5z" />
<glyph unicode="&#xa5;" horiz-adv-x="1204" d="M82 1477h188l293 -619l19 -55l18 -68l14 68l21 55l295 619h192l-348 -668h313v-111h-372l-35 -77v-66h407v-111h-407v-444h-164v444h-381v117h381v60l-37 73h-344l2 121h279z" />
<glyph unicode="&#xa7;" horiz-adv-x="1179" d="M78 717q0 190 225 303q-96 73 -96 195t116.5 206t292.5 84q350 0 406 -305l-152 -2q-10 92 -74.5 142.5t-172 50.5t-181.5 -50q-68 -49 -67.5 -113t31.5 -102l47 -45l448 -202q92 -41 144.5 -114t52.5 -163q0 -172 -203 -287q92 -80 92 -206.5t-111.5 -214t-283.5 -87.5 t-244 48.5t-96.5 73t-46.5 59.5l-27 57l-16 90l153 2q10 -100 80 -158.5t183 -58.5t178 50t65 124.5t-27.5 113t-99.5 68.5l-413 191q-86 37 -144.5 89t-58.5 161zM240 739q0 -98 118 -155l424 -191q158 72 158 203q0 111 -119 166l-415 184q-166 -87 -166 -207z" />
<glyph unicode="&#xa8;" horiz-adv-x="430" d="M-59 1192q0 33 30 61q31 25 76 25t76 -24.5t31 -60.5t-31 -60.5t-73 -24.5t-75.5 25.5t-33.5 58.5zM274 1191q0 34 31 60.5t73 26.5t75.5 -25.5t33.5 -60.5t-30.5 -59.5t-75.5 -24.5t-76 24.5t-31 58.5z" />
<glyph unicode="&#xa9;" horiz-adv-x="1908" d="M119 739q0 317 223.5 540.5t540.5 223.5t540.5 -223t223.5 -541q0 -317 -223.5 -540.5t-540.5 -223.5t-540.5 223.5t-223.5 540.5zM209 739q0 -278 199 -485q197 -197 475 -197q127 0 252 49.5t220 146.5t147 227t52 263t-50 257t-146 223.5t-222 148.5t-254 49t-251 -49 t-221.5 -148.5t-149.5 -226.5t-51 -258zM395 721q0 94 46 221t175 216t293 89h58l100 -20q74 -12 182 -105l-53 -73q-86 78 -162 92l-119 14q-154 0 -267 -96t-132 -199l-16 -135q0 -178 119.5 -297t291.5 -119q121 0 228 66l55 41l53 -74q-153 -125 -329 -125 q-221 0 -372 147.5t-151 356.5z" />
<glyph unicode="&#xaa;" horiz-adv-x="983" d="M109 1147q0 40 14 116t104 155t205 79q44 0 107 -16q76 -14 137 -125l16 -31v150h109v-662h-111v160q-31 -87 -101.5 -131.5t-144 -44.5t-184 45t-131.5 157zM131 610v101h670v-101h-670zM221 1147l4 -49q20 -102 92 -156q70 -47 140 -47t139.5 49t83.5 115l14 92 q0 51 -22 102l-21 39q-31 53 -83 81t-111 28q-94 0 -153.5 -62.5t-78.5 -146.5z" />
<glyph unicode="&#xab;" horiz-adv-x="774" d="M82 504l242 422l88 -41l-185 -381l183 -373l-91 -37zM362 504l244 422l86 -41l-180 -381l178 -373l-90 -37z" />
<glyph unicode="&#xac;" horiz-adv-x="1245" d="M109 737v111h933v-406h-98v295h-835z" />
<glyph unicode="&#xad;" horiz-adv-x="630" d="M66 446v136h499v-136h-499z" />
<glyph unicode="&#xae;" horiz-adv-x="1908" d="M119 739q0 317 223.5 540.5t540.5 223.5t540.5 -223t223.5 -541q0 -317 -223.5 -540.5t-540.5 -223.5t-540.5 223.5t-223.5 540.5zM209 739q0 -278 199 -485q197 -197 475 -197q127 0 252 49.5t220 146.5t147 227t52 263t-50 257t-146 223.5t-222 148.5t-254 49t-251 -49 t-221.5 -148.5t-149.5 -226.5t-51 -258zM655 254v989h209q145 0 215 -56.5t82 -121.5l10 -92q0 -104 -62 -173t-171 -81l-37 -2l318 -463h-123l-336 500v-500h-105zM760 782h84q223 0 223 185q0 92 -53 139q-49 49 -154 49h-100v-373z" />
<glyph unicode="&#xb1;" horiz-adv-x="1216" d="M90 39v139h946v-139h-946zM90 539v139h404v250h139v-250h403v-139h-403v-250h-139v250h-404z" />
<glyph unicode="&#xb4;" horiz-adv-x="448" d="M86 1171l289 271l112 -113l-331 -225z" />
<glyph unicode="&#xb5;" horiz-adv-x="1275" d="M150 -285l4 119l4 182l-2 207l-4 195v502h188v-607q0 -145 28.5 -194t102.5 -49q115 0 193.5 166.5t78.5 416.5v267h189v-672q0 -178 78 -178q88 0 88 168v28h43l2 -18v-27q0 -109 -48 -174t-141.5 -65t-148.5 88t-55 264q-47 -182 -126 -267t-182.5 -85t-165.5 53 q-55 55 -81 158l-2 -58q0 -135 63 -287.5t68 -189.5q0 -41 -22.5 -63.5t-63.5 -22.5q-88 0 -88 143z" />
<glyph unicode="&#xb6;" horiz-adv-x="1302" d="M109 1090q0 158 111.5 271.5t266.5 113.5h609v-89h-609q-119 0 -203.5 -87t-84.5 -209t86 -206.5t202 -84.5h148v506h90v-1305h-90v711h-148q-154 0 -266 110.5t-112 268.5zM868 0v1305h90v-1305h-90z" />
<glyph unicode="&#xb8;" horiz-adv-x="264" d="M31 -92q69 33 117 33t81 -28t33 -71q0 -119 -213 -168v58q49 6 80 31.5t35 56.5q0 41 -49 41q-29 0 -80 -23z" />
<glyph unicode="&#xba;" horiz-adv-x="985" d="M109 1151l6 68q25 129 120 208.5t218 79.5q74 0 189.5 -50t139.5 -163l21 -145q0 -30 -13.5 -104t-85 -148t-131.5 -86l-79 -14l-41 -2q-35 0 -104.5 13t-140.5 88t-93 185zM121 610v101h670v-101h-670zM219 1151q0 -150 121 -227q53 -29 117 -29q102 0 160.5 65.5 t66.5 118.5l8 72q0 80 -35 135q-31 57 -85 88t-117 31q-96 0 -166 -74t-70 -180z" />
<glyph unicode="&#xbb;" horiz-adv-x="772" d="M82 131l174 373l-170 387l84 37l238 -424l-242 -406zM362 131l177 373l-172 387l86 37l237 -424l-244 -406z" />
<glyph unicode="&#xbf;" horiz-adv-x="706" d="M25 274q0 86 45 170q25 57 120 177l109 137q63 82 87 143.5t24 153.5l-2 121h127l8 -103l2 -65q0 -98 -43 -183q-18 -41 -119 -176l-64 -88q-66 -90 -97.5 -153t-31.5 -111q0 -88 62.5 -140.5t169.5 -52.5l100 7q56 9 125 28l33 -119l-156 -32q-74 -12 -135 -13 q-164 0 -264 80t-100 219zM340 1406q0 36 36 62.5t84 26.5t83 -25.5t35 -64.5t-35 -62q-31 -25 -82 -24.5t-88 24.5q-33 27 -33 63z" />
<glyph unicode="&#xc0;" horiz-adv-x="1003" d="M-23 0l429 1477h190l426 -1477h-168l-149 547h-406l-152 -547h-170zM260 1845l113 111l293 -266l-66 -68zM328 664h346l-146 536l-24 111l-4 57q0 -72 -27 -168z" />
<glyph unicode="&#xc1;" horiz-adv-x="1003" d="M-23 0l429 1477h190l426 -1477h-168l-149 547h-406l-152 -547h-170zM328 664h346l-146 536l-24 111l-4 57q0 -72 -27 -168zM362 1683l289 271l112 -113l-331 -225z" />
<glyph unicode="&#xc2;" horiz-adv-x="1003" d="M-23 0l429 1477h190l426 -1477h-168l-149 547h-406l-152 -547h-170zM219 1688l283 233l280 -223l-47 -82l-233 137l-236 -137zM328 664h346l-146 536l-24 111l-4 57q0 -72 -27 -168z" />
<glyph unicode="&#xc3;" horiz-adv-x="1003" d="M-23 0l429 1477h190l426 -1477h-168l-149 547h-406l-152 -547h-170zM233 1620v100q78 51 145.5 51.5t128.5 -17.5q105 -30 165.5 -30t101.5 33v-110q-63 -27 -119 -27l-55 6l-66 21q-87 20 -149 20t-111 -25zM328 664h346l-146 536l-24 111l-4 57q0 -72 -27 -168z" />
<glyph unicode="&#xc4;" horiz-adv-x="1003" d="M-23 0l429 1477h190l426 -1477h-168l-149 547h-406l-152 -547h-170zM197 1641.5q0 39.5 31.5 68.5t76.5 29t79 -26.5t34 -64.5t-31 -69q-33 -27 -79 -27t-78.5 25t-32.5 64.5zM328 664h346l-146 536l-24 111l-4 57q0 -72 -27 -168zM583.5 1644q0.5 36 32 65.5t79.5 29.5 t80 -29t32 -67t-34 -64.5t-79 -26.5t-80 27q-31 29 -30.5 65z" />
<glyph unicode="&#xc5;" horiz-adv-x="1003" d="M-23 0l429 1477h190l426 -1477h-168l-149 547h-406l-152 -547h-170zM317 1690.5q0 58.5 53.5 99.5t129.5 41t129 -41q55 -37 55 -95t-56.5 -100.5t-131 -42.5t-127 40t-52.5 98.5zM328 664h346l-146 536l-24 111l-4 57q0 -72 -27 -168zM411.5 1694.5 q0.5 -22.5 24.5 -41.5q29 -15 64 -15q86 0 86 54q0 18 -27 35.5t-62.5 17.5t-60.5 -16q-25 -12 -24.5 -34.5z" />
<glyph unicode="&#xc6;" horiz-adv-x="1669" d="M-23 0l803 1477h807v-111l-561 -25v-518h508v-116h-508v-568l573 -28v-111h-741v547h-401l-285 -547h-195zM510 666h354v682z" />
<glyph unicode="&#xc7;" horiz-adv-x="948" d="M82 731q0 373 129 568.5t371 195.5q137 0 288 -65l-28 -119q-62 28 -125 47q-72 14 -119 14q-336 0 -336 -659q0 -612 338 -613q123 0 277 84l28 -123q-170 -86 -323 -86q-244 0 -372 191.5t-128 564.5zM459 -109q55 31 104 31t81 -25.5t32 -68.5q0 -117 -203 -166v57 q51 6 80 33q31 23 31 53q0 37 -45 37q-29 0 -78 -18z" />
<glyph unicode="&#xc8;" horiz-adv-x="921" d="M125 0v1477h727v-111l-563 -27v-518h508v-114h-508v-570l575 -28v-109h-739zM219 1845l113 111l293 -266l-66 -68z" />
<glyph unicode="&#xc9;" horiz-adv-x="921" d="M125 0v1477h727v-111l-563 -27v-518h508v-114h-508v-570l575 -28v-109h-739zM322 1683l289 271l112 -113l-331 -225z" />
<glyph unicode="&#xca;" horiz-adv-x="921" d="M125 0v1477h727v-111l-563 -27v-518h508v-114h-508v-570l575 -28v-109h-739zM178 1688l283 233l280 -223l-47 -82l-233 137l-236 -137z" />
<glyph unicode="&#xcb;" horiz-adv-x="921" d="M125 0v1477h727v-111l-563 -27v-518h508v-114h-508v-570l575 -28v-109h-739zM187 1704q0 33 30 61q31 25 76 25t76 -24.5t31 -60.5t-31 -60.5t-73 -24.5t-75.5 25.5t-33.5 58.5zM520 1703q0 34 31 60.5t73 26.5t75.5 -25.5t33.5 -60.5t-30.5 -59.5t-75.5 -24.5t-76 24.5 t-31 58.5z" />
<glyph unicode="&#xcc;" horiz-adv-x="409" d="M-35 1845l113 111l293 -266l-66 -68zM125 0v1477h160v-1477h-160z" />
<glyph unicode="&#xcd;" horiz-adv-x="409" d="M70 1683l289 271l112 -113l-331 -225zM125 0v1477h160v-1477h-160z" />
<glyph unicode="&#xce;" horiz-adv-x="409" d="M-76 1688l283 233l280 -223l-47 -82l-233 137l-236 -137zM125 0v1477h160v-1477h-160z" />
<glyph unicode="&#xcf;" horiz-adv-x="409" d="M-67 1704q0 33 30 61q31 25 76 25t76 -24.5t31 -60.5t-31 -60.5t-73 -24.5t-75.5 25.5t-33.5 58.5zM125 0v1477h160v-1477h-160zM266 1703q0 34 31 60.5t73 26.5t75.5 -25.5t33.5 -60.5t-30.5 -59.5t-75.5 -24.5t-76 24.5t-31 58.5z" />
<glyph unicode="&#xd1;" horiz-adv-x="1193" d="M125 0v1477h180l578 -1149l28 -68l23 -80l-4 43l-6 43l-6 74v1137h151v-1477h-186l-574 1135l-57 153q20 -108 20 -176v-1112h-147zM328 1620v100q78 51 145.5 51.5t128.5 -17.5q105 -30 165.5 -30t101.5 33v-110q-63 -27 -119 -27l-55 6l-66 21q-87 20 -149 20t-111 -25 z" />
<glyph unicode="&#xd2;" horiz-adv-x="1173" d="M82 739.5q0 364.5 129 561t374 196.5t377 -198.5t132 -562.5t-130 -561.5t-373 -197.5t-376 199t-133 563.5zM254 736q0 -306 86 -471t244 -165t247 166q89 174 89 474t-86 466t-245 166t-247 -165t-88 -471zM344 1845l113 111l293 -266l-66 -68z" />
<glyph unicode="&#xd3;" horiz-adv-x="1173" d="M82 739.5q0 364.5 129 561t374 196.5t377 -198.5t132 -562.5t-130 -561.5t-373 -197.5t-376 199t-133 563.5zM254 736q0 -306 86 -471t244 -165t247 166q89 174 89 474t-86 466t-245 166t-247 -165t-88 -471zM448 1683l289 271l112 -113l-331 -225z" />
<glyph unicode="&#xd4;" horiz-adv-x="1173" d="M82 739.5q0 364.5 129 561t374 196.5t377 -198.5t132 -562.5t-130 -561.5t-373 -197.5t-376 199t-133 563.5zM254 736q0 -306 86 -471t244 -165t247 166q89 174 89 474t-86 466t-245 166t-247 -165t-88 -471zM303 1688l283 233l280 -223l-47 -82l-233 137l-236 -137z" />
<glyph unicode="&#xd5;" horiz-adv-x="1173" d="M82 739.5q0 364.5 129 561t374 196.5t377 -198.5t132 -562.5t-130 -561.5t-373 -197.5t-376 199t-133 563.5zM254 736q0 -306 86 -471t244 -165t247 166q89 174 89 474t-86 466t-245 166t-247 -165t-88 -471zM317 1620v100q78 51 145.5 51.5t128.5 -17.5 q105 -30 165.5 -30t101.5 33v-110q-63 -27 -119 -27l-55 6l-66 21q-87 20 -149 20t-111 -25z" />
<glyph unicode="&#xd6;" horiz-adv-x="1173" d="M82 739.5q0 364.5 129 561t374 196.5t377 -198.5t132 -562.5t-130 -561.5t-373 -197.5t-376 199t-133 563.5zM215 1627.5q0 37.5 34 65t79 27.5t77.5 -26.5t32.5 -63.5t-32 -67q-31 -25 -76 -25t-82 25q-33 27 -33 64.5zM254 736q0 -306 86 -471t244 -165t247 166 q89 174 89 474t-86 466t-245 166t-247 -165t-88 -471zM735 1627q0 36 33 67q33 26 78 26t78.5 -26.5t33.5 -64.5t-32.5 -64.5t-77.5 -26.5t-79 26.5t-34 62.5z" />
<glyph unicode="&#xd8;" horiz-adv-x="1196" d="M84 719q0 377 129 577.5t379 200.5q106 0 191 -39t165 -127l70 111l96 -60l-96 -149l59 -225q23 -76 23 -224q0 -395 -130 -601t-378 -206q-215 0 -334 144l-76 -119l-96 61l98 150l-18 41q-82 226 -82 465zM266 721q0 -168 23 -264l16 -74l541 811q-55 94 -112.5 135 t-147.5 41t-164 -76q-66 -72 -111 -174t-45 -399zM356 264q68 -162 230 -162t250 162q88 164 88 451v71q-6 39 -9 60l-18 186l-4 33z" />
<glyph unicode="&#xd9;" horiz-adv-x="1183" d="M125 432v1045h164v-1043q0 -154 80 -239.5t225 -85.5t224 85t79 240v1043h164v-1045q0 -102 -31 -201.5t-150.5 -177.5t-285.5 -78q-161 0 -285 77q-45 28 -94 71q-90 80 -90 309zM350 1845l113 111l293 -266l-66 -68z" />
<glyph unicode="&#xda;" horiz-adv-x="1183" d="M125 432v1045h164v-1043q0 -154 80 -239.5t225 -85.5t224 85t79 240v1043h164v-1045q0 -102 -31 -201.5t-150.5 -177.5t-285.5 -78q-161 0 -285 77q-45 28 -94 71q-90 80 -90 309zM453 1683l289 271l112 -113l-331 -225z" />
<glyph unicode="&#xdb;" horiz-adv-x="1183" d="M125 432v1045h164v-1043q0 -154 80 -239.5t225 -85.5t224 85t79 240v1043h164v-1045q0 -102 -31 -201.5t-150.5 -177.5t-285.5 -78q-161 0 -285 77q-45 28 -94 71q-90 80 -90 309zM309 1688l283 233l280 -223l-47 -82l-233 137l-236 -137z" />
<glyph unicode="&#xdc;" horiz-adv-x="1183" d="M125 432v1045h164v-1043q0 -154 80 -239.5t225 -85.5t224 85t79 240v1043h164v-1045q0 -102 -31 -201.5t-150.5 -177.5t-285.5 -78q-161 0 -285 77q-45 28 -94 71q-90 80 -90 309zM305 1640q0 37 33 67t80 30t78.5 -28t31.5 -65t-32 -67q-31 -25 -76 -25t-82 25 q-33 27 -33 63zM657 1640q0 39 32 68t80 29t77 -29q33 -27 33 -65t-33 -64.5t-78 -26.5t-78 25t-33 63z" />
<glyph unicode="&#xdf;" horiz-adv-x="1017" d="M125 0v1137q0 115 23.5 174t103.5 125q80 61 233.5 61t243.5 -69.5t90 -176t-57 -188.5l-47 -62q-53 -78 -58 -112q0 -31 33 -76l133 -176l66 -96q78 -125 78 -256t-93.5 -218t-248.5 -87h-58q-16 4 -27 5q-30 3 -77 19l22 113l62 -15l49 -4q90 0 148.5 56.5t58.5 136.5 t-51 162l-80 125l-119 165q-49 78 -49 119t11 70t50 86l43 65q56 78 56 143t-50 111q-52 45 -137.5 45t-130.5 -44t-57.5 -86t-12.5 -115v-1137h-151z" />
<glyph unicode="&#xe0;" horiz-adv-x="974" d="M61 299q0 152 109 246t287 94l108 -6l135 -25v111q0 51 -8 76q-18 119 -203 118q-68 0 -127 -11t-163 -50l-43 127q227 61 378.5 61t241.5 -75q41 -33 60 -82q14 -51 14 -142v-741h-141l-4 98q-78 -61 -153 -92t-153 -31q-150 0 -244 86t-94 238zM227 309 q0 -92 61.5 -149t176.5 -57.5t235 108.5v299l-104 14l-86 4q-129 0 -206 -63.5t-77 -155.5zM245 1333l113 111l293 -266l-66 -68z" />
<glyph unicode="&#xe1;" horiz-adv-x="974" d="M61 299q0 152 109 246t287 94l108 -6l135 -25v111q0 51 -8 76q-18 119 -203 118q-68 0 -127 -11t-163 -50l-43 127q227 61 378.5 61t241.5 -75q41 -33 60 -82q14 -51 14 -142v-741h-141l-4 98q-78 -61 -153 -92t-153 -31q-150 0 -244 86t-94 238zM227 309 q0 -92 61.5 -149t176.5 -57.5t235 108.5v299l-104 14l-86 4q-129 0 -206 -63.5t-77 -155.5zM348 1171l289 271l112 -113l-331 -225z" />
<glyph unicode="&#xe2;" horiz-adv-x="974" d="M61 299q0 152 109 246t287 94l108 -6l135 -25v111q0 51 -8 76q-18 119 -203 118q-68 0 -127 -11t-163 -50l-43 127q227 61 378.5 61t241.5 -75q41 -33 60 -82q14 -51 14 -142v-741h-141l-4 98q-78 -61 -153 -92t-153 -31q-150 0 -244 86t-94 238zM205 1176l283 233 l280 -223l-47 -82l-233 137l-236 -137zM227 309q0 -92 61.5 -149t176.5 -57.5t235 108.5v299l-104 14l-86 4q-129 0 -206 -63.5t-77 -155.5z" />
<glyph unicode="&#xe3;" horiz-adv-x="974" d="M61 299q0 152 109 246t287 94l108 -6l135 -25v111q0 51 -8 76q-18 119 -203 118q-68 0 -127 -11t-163 -50l-43 127q227 61 378.5 61t241.5 -75q41 -33 60 -82q14 -51 14 -142v-741h-141l-4 98q-78 -61 -153 -92t-153 -31q-150 0 -244 86t-94 238zM219 1108v100 q78 51 145.5 51.5t128.5 -17.5q105 -30 165.5 -30t101.5 33v-110q-63 -27 -119 -27l-55 6l-66 21q-87 20 -149 20t-111 -25zM227 309q0 -92 61.5 -149t176.5 -57.5t235 108.5v299l-104 14l-86 4q-129 0 -206 -63.5t-77 -155.5z" />
<glyph unicode="&#xe4;" horiz-adv-x="974" d="M61 299q0 152 109 246t287 94l108 -6l135 -25v111q0 51 -8 76q-18 119 -203 118q-68 0 -127 -11t-163 -50l-43 127q227 61 378.5 61t241.5 -75q41 -33 60 -82q14 -51 14 -142v-741h-141l-4 98q-78 -61 -153 -92t-153 -31q-150 0 -244 86t-94 238zM223 1209.5 q0 35.5 32 63t75 27.5t75.5 -26.5t32.5 -62.5t-31.5 -61.5t-74.5 -25.5t-76 25t-33 60.5zM227 309q0 -92 61.5 -149t176.5 -57.5t235 108.5v299l-104 14l-86 4q-129 0 -206 -63.5t-77 -155.5zM567 1212q0 36 31 62t75 26t75.5 -25.5t31.5 -59.5t-32 -64q-33 -27 -75 -27 t-74 26t-32 62z" />
<glyph unicode="&#xe5;" horiz-adv-x="974" d="M61 299q0 152 109 246t287 94l108 -6l135 -25v111q0 51 -8 76q-18 119 -203 118q-68 0 -127 -11t-163 -50l-43 127q227 61 378.5 61t241.5 -75q41 -33 60 -82q14 -51 14 -142v-741h-141l-4 98q-78 -61 -153 -92t-153 -31q-150 0 -244 86t-94 238zM227 309 q0 -92 61.5 -149t176.5 -57.5t235 108.5v299l-104 14l-86 4q-129 0 -206 -63.5t-77 -155.5zM348 1242q0 52 47 90t116 38t120 -37t51 -88t-51 -88t-121 -37t-116 35t-46 87zM427 1246q-1 -24 24 -42q29 -14 65 -14q86 0 86 55q0 20 -18 33q-29 22 -68 22t-63.5 -15 t-25.5 -39z" />
<glyph unicode="&#xe6;" horiz-adv-x="1609" d="M70 304.5q0 154.5 105.5 244.5t293.5 90q77 0 203 -23l37 -8v127l-7 76q-29 106 -200 107q-131 0 -301 -64l-39 121l71 18q92 25 157 35q77 12 171 12q211 0 254 -163q94 162 313 161q141 0 241.5 -79.5t128.5 -212t28 -285.5h-664q0 -170 93.5 -265.5t229 -95.5 t269.5 54l31 -121q-172 -55 -301 -56q-264 0 -381 185q-199 -186 -402 -187q-152 0 -241.5 87.5t-89.5 242zM223 314.5q0 -99.5 58 -158.5q59 -55 161 -56q154 0 312 156l-21 49l-18 70l-8 59l-2 78l-97 16l-86 7q-141 0 -220 -60.5t-79 -160zM856 569h524q0 350 -258 351 q-125 0 -195.5 -93.5t-70.5 -257.5z" />
<glyph unicode="&#xe7;" horiz-adv-x="827" d="M82 500q0 244 110.5 391t301.5 147q143 0 288 -100l-47 -119q-121 90 -219 90q-125 0 -198.5 -107.5t-73.5 -293.5t73.5 -292.5t192.5 -106.5t229 98l47 -127q-150 -102 -292 -103q-193 0 -302.5 139.5t-109.5 383.5zM373 -90q27 16 53 24l55 9q45 0 77 -26t32 -71 q0 -111 -203 -165v57q111 18 111 88q0 37 -49 37q-27 0 -74 -21z" />
<glyph unicode="&#xe8;" horiz-adv-x="980" d="M84 514.5q0 247.5 112.5 385.5t309 138t302 -130t105.5 -371l-2 -78h-659q0 -168 92 -262.5t254 -94.5q101 0 246 56l30 -123q-164 -55 -307 -55q-227 0 -356 141q-127 146 -127 393.5zM246 571h514q0 348 -252 349q-121 0 -191.5 -91.5t-70.5 -257.5zM248 1333l113 111 l293 -266l-66 -68z" />
<glyph unicode="&#xe9;" horiz-adv-x="980" d="M84 514.5q0 247.5 112.5 385.5t309 138t302 -130t105.5 -371l-2 -78h-659q0 -168 92 -262.5t254 -94.5q101 0 246 56l30 -123q-164 -55 -307 -55q-227 0 -356 141q-127 146 -127 393.5zM246 571h514q0 348 -252 349q-121 0 -191.5 -91.5t-70.5 -257.5zM352 1171l289 271 l112 -113l-331 -225z" />
<glyph unicode="&#xea;" horiz-adv-x="980" d="M84 514.5q0 247.5 112.5 385.5t309 138t302 -130t105.5 -371l-2 -78h-659q0 -168 92 -262.5t254 -94.5q101 0 246 56l30 -123q-164 -55 -307 -55q-227 0 -356 141q-127 146 -127 393.5zM207 1176l283 233l280 -223l-47 -82l-233 137l-236 -137zM246 571h514 q0 348 -252 349q-121 0 -191.5 -91.5t-70.5 -257.5z" />
<glyph unicode="&#xeb;" horiz-adv-x="980" d="M84 514.5q0 247.5 112.5 385.5t309 138t302 -130t105.5 -371l-2 -78h-659q0 -168 92 -262.5t254 -94.5q101 0 246 56l30 -123q-164 -55 -307 -55q-227 0 -356 141q-127 146 -127 393.5zM215 1192q0 33 30 61q31 25 76 25t76 -24.5t31 -60.5t-31 -60.5t-73 -24.5 t-75.5 25.5t-33.5 58.5zM246 571h514q0 348 -252 349q-121 0 -191.5 -91.5t-70.5 -257.5zM548 1191q0 34 31 60.5t73 26.5t75.5 -25.5t33.5 -60.5t-30.5 -59.5t-75.5 -24.5t-76 24.5t-31 58.5z" />
<glyph unicode="&#xec;" horiz-adv-x="372" d="M-54 1333l113 111l293 -266l-66 -68zM109 0v1014l153 22v-1036h-153z" />
<glyph unicode="&#xed;" horiz-adv-x="372" d="M51 1171l289 271l112 -113l-331 -225zM109 0v1014l153 22v-1036h-153z" />
<glyph unicode="&#xee;" horiz-adv-x="372" d="M-94 1176l283 233l280 -223l-47 -82l-233 137l-236 -137zM109 0v1014l153 22v-1036h-153z" />
<glyph unicode="&#xef;" horiz-adv-x="372" d="M-86 1192q0 33 30 61q31 25 76 25t76 -24.5t31 -60.5t-31 -60.5t-73 -24.5t-75.5 25.5t-33.5 58.5zM109 0v1014l153 22v-1036h-153zM247 1191q0 34 31 60.5t73 26.5t75.5 -25.5t33.5 -60.5t-30.5 -59.5t-75.5 -24.5t-76 24.5t-31 58.5z" />
<glyph unicode="&#xf1;" d="M125 0v1014l147 24v-100q158 104 308 104t217 -61t85.5 -117.5t18.5 -154.5v-709h-151v735l-15 72q-6 37 -61.5 74t-134.5 37q-117 0 -265 -105v-813h-149zM244 1108v100q78 51 145.5 51.5t128.5 -17.5q105 -30 165.5 -30t101.5 33v-110q-63 -27 -119 -27l-55 6l-66 21 q-87 20 -149 20t-111 -25z" />
<glyph unicode="&#xf2;" horiz-adv-x="1030" d="M84 506q0 256 111.5 394t319.5 138t320.5 -137t112.5 -393t-111.5 -395.5t-320.5 -139.5t-320.5 138.5t-111.5 394.5zM248 506q0 -197 69.5 -304.5t198.5 -107.5t197.5 108.5t68.5 305.5t-69.5 303.5t-197.5 106.5t-197.5 -107.5t-69.5 -304.5zM272 1333l113 111 l293 -266l-66 -68z" />
<glyph unicode="&#xf3;" horiz-adv-x="1030" d="M84 506q0 256 111.5 394t319.5 138t320.5 -137t112.5 -393t-111.5 -395.5t-320.5 -139.5t-320.5 138.5t-111.5 394.5zM248 506q0 -197 69.5 -304.5t198.5 -107.5t197.5 108.5t68.5 305.5t-69.5 303.5t-197.5 106.5t-197.5 -107.5t-69.5 -304.5zM377 1171l289 271 l112 -113l-331 -225z" />
<glyph unicode="&#xf4;" horiz-adv-x="1030" d="M84 506q0 256 111.5 394t319.5 138t320.5 -137t112.5 -393t-111.5 -395.5t-320.5 -139.5t-320.5 138.5t-111.5 394.5zM231 1176l283 233l280 -223l-47 -82l-233 137l-236 -137zM248 506q0 -197 69.5 -304.5t198.5 -107.5t197.5 108.5t68.5 305.5t-69.5 303.5 t-197.5 106.5t-197.5 -107.5t-69.5 -304.5z" />
<glyph unicode="&#xf5;" horiz-adv-x="1030" d="M84 506q0 256 111.5 394t319.5 138t320.5 -137t112.5 -393t-111.5 -395.5t-320.5 -139.5t-320.5 138.5t-111.5 394.5zM246 1108v100q78 51 145.5 51.5t128.5 -17.5q105 -30 165.5 -30t101.5 33v-110q-63 -27 -119 -27l-55 6l-66 21q-87 20 -149 20t-111 -25zM248 506 q0 -197 69.5 -304.5t198.5 -107.5t197.5 108.5t68.5 305.5t-69.5 303.5t-197.5 106.5t-197.5 -107.5t-69.5 -304.5z" />
<glyph unicode="&#xf6;" horiz-adv-x="1030" d="M84 506q0 256 111.5 394t319.5 138t320.5 -137t112.5 -393t-111.5 -395.5t-320.5 -139.5t-320.5 138.5t-111.5 394.5zM238 1214q0 36 30.5 62.5t75.5 26.5t75 -26t30 -60q0 -35 -31 -66q-29 -25 -73 -25t-75.5 26t-31.5 62zM248 506q0 -197 69.5 -304.5t198.5 -107.5 t197.5 108.5t68.5 305.5t-69.5 303.5t-197.5 106.5t-197.5 -107.5t-69.5 -304.5zM580 1213q0 35 31.5 62.5t76.5 27.5t76 -27t31 -60.5t-33 -64.5q-31 -25 -77 -25t-75.5 26t-29.5 61z" />
<glyph unicode="&#xf7;" horiz-adv-x="1216" d="M88 414v139h948v-139h-948zM446 210q0 46 37 80t83 34t79 -33t33 -83t-35 -83q-31 -35 -80 -35t-84 35q-33 39 -33 85zM446 759q0 48 37 81.5t83 33.5t79 -35.5t33 -82.5t-35 -80q-31 -35 -80 -35t-84 33q-33 37 -33 85z" />
<glyph unicode="&#xf8;" horiz-adv-x="1040" d="M84 516q0 250 112.5 387t321.5 137q174 0 295 -108l82 102l61 -57l-88 -109v-12l60 -158q20 -68 20 -168q0 -559 -434 -559q-145 0 -244 68l-41 41l-82 -92l-61 55l88 100q-39 35 -64.5 139.5t-25.5 233.5zM252 516q0 -78 7 -117t32 -110l426 528q-27 43 -85.5 73 t-115.5 30q-127 0 -195.5 -105.5t-68.5 -298.5zM326 201q49 -102 184 -102.5t203.5 102t68.5 297.5q0 100 -32 231z" />
<glyph unicode="&#xf9;" horiz-adv-x="1021" d="M125 285v729l151 24v-723q0 -55 10.5 -102t65 -80t133.5 -33q127 0 263 99v815h151v-1014h-149l-2 76q-153 -101 -302 -101q-322 0 -321 310zM268 1333l113 111l293 -266l-66 -68z" />
<glyph unicode="&#xfa;" horiz-adv-x="1021" d="M125 285v729l151 24v-723q0 -55 10.5 -102t65 -80t133.5 -33q127 0 263 99v815h151v-1014h-149l-2 76q-153 -101 -302 -101q-322 0 -321 310zM373 1171l289 271l112 -113l-331 -225z" />
<glyph unicode="&#xfb;" horiz-adv-x="1021" d="M125 285v729l151 24v-723q0 -55 10.5 -102t65 -80t133.5 -33q127 0 263 99v815h151v-1014h-149l-2 76q-153 -101 -302 -101q-322 0 -321 310zM227 1176l283 233l280 -223l-47 -82l-233 137l-236 -137z" />
<glyph unicode="&#xfc;" horiz-adv-x="1021" d="M125 285v729l151 24v-723q0 -55 10.5 -102t65 -80t133.5 -33q127 0 263 99v815h151v-1014h-149l-2 76q-153 -101 -302 -101q-322 0 -321 310zM236 1212q0 34 30 62q31 24 74 24t73.5 -23.5t30.5 -57.5q0 -35 -30 -66q-29 -25 -74 -25t-74.5 26t-29.5 60zM580 1215 q0 37 29.5 60t72.5 23t76 -26.5t33 -57.5t-33 -59.5t-76 -28.5t-72.5 26t-29.5 63z" />
<glyph unicode="&#xff;" horiz-adv-x="845" d="M-18 1014l159 22l252 -817l27 -113l22 113l256 795h166l-391 -1168q-49 -145 -109.5 -203.5t-162.5 -58.5h-62q-14 4 -20 4l-96 25l34 117q68 -27 123 -27t92 39q35 29 72 139l41 119h-76zM148 1192q0 33 30 61q31 25 76 25t76 -24.5t31 -60.5t-31 -60.5t-73 -24.5 t-75.5 25.5t-33.5 58.5zM481 1191q0 34 31 60.5t73 26.5t75.5 -25.5t33.5 -60.5t-30.5 -59.5t-75.5 -24.5t-76 24.5t-31 58.5z" />
<glyph unicode="&#x152;" horiz-adv-x="1587" d="M84 740.5q0 363.5 135 560t391 196.5l88 -6l74 -14h746v-113l-574 -27v-565h508v-115h-508v-520l561 -26v-111h-710l-29 -2l-72 -10q-55 -12 -104 -13q-240 0 -373 201t-133 564.5zM258 740.5q0 -308.5 93 -472.5t270 -164q95 0 155 39v1188q-78 39 -166 39 q-170 0 -261 -160.5t-91 -469z" />
<glyph unicode="&#x153;" horiz-adv-x="1708" d="M84 502q0 258 112.5 399t321.5 141q258 0 359 -211q108 205 350 205q399 0 399 -512l-4 -63h-664q35 -362 342 -363q106 0 254 56l31 -121l-172 -43q-61 -12 -125 -13q-289 0 -399 222q-96 -227 -371 -228q-207 0 -320.5 136.5t-113.5 394.5zM240 506q0 -203 73.5 -310.5 t206.5 -107.5q283 0 283 412q0 205 -73 315.5t-210 110.5t-208.5 -108.5t-71.5 -311.5zM954 569h525q0 349 -256 349q-123 0 -196 -91.5t-73 -248.5v-9z" />
<glyph unicode="&#x178;" horiz-adv-x="948" d="M-47 1477h188l293 -619l19 -55l18 -68q16 82 39 123l291 619h192l-442 -856v-621h-164v621zM199 1704q0 33 30 61q31 25 76 25t76 -24.5t31 -60.5t-31 -60.5t-73 -24.5t-75.5 25.5t-33.5 58.5zM532 1703q0 34 31 60.5t73 26.5t75.5 -25.5t33.5 -60.5t-30.5 -59.5 t-75.5 -24.5t-76 24.5t-31 58.5z" />
<glyph unicode="&#x2000;" horiz-adv-x="978" />
<glyph unicode="&#x2001;" horiz-adv-x="1956" />
<glyph unicode="&#x2002;" horiz-adv-x="978" />
<glyph unicode="&#x2003;" horiz-adv-x="1956" />
<glyph unicode="&#x2004;" horiz-adv-x="652" />
<glyph unicode="&#x2005;" horiz-adv-x="489" />
<glyph unicode="&#x2006;" horiz-adv-x="326" />
<glyph unicode="&#x2007;" horiz-adv-x="326" />
<glyph unicode="&#x2008;" horiz-adv-x="244" />
<glyph unicode="&#x2009;" horiz-adv-x="391" />
<glyph unicode="&#x200a;" horiz-adv-x="108" />
<glyph unicode="&#x2010;" horiz-adv-x="630" d="M66 446v136h499v-136h-499z" />
<glyph unicode="&#x2011;" horiz-adv-x="630" d="M66 446v136h499v-136h-499z" />
<glyph unicode="&#x2012;" horiz-adv-x="630" d="M66 446v136h499v-136h-499z" />
<glyph unicode="&#x2013;" d="M78 668v120h870v-120h-870z" />
<glyph unicode="&#x2014;" horiz-adv-x="2039" d="M61 684v107h1917v-107h-1917z" />
<glyph unicode="&#x2018;" horiz-adv-x="364" d="M39 1014l205 436l78 -23l-103 -413h-180z" />
<glyph unicode="&#x2019;" horiz-adv-x="364" d="M39 1034l102 416h181l-203 -436z" />
<glyph unicode="&#x201a;" horiz-adv-x="360" d="M10 -248l103 414h180l-205 -436z" />
<glyph unicode="&#x201c;" horiz-adv-x="624" d="M39 1014l205 436l78 -23l-103 -413h-180zM301 1014l203 436l78 -23l-101 -413h-180z" />
<glyph unicode="&#x201d;" horiz-adv-x="624" d="M39 1034l102 416h181l-203 -436zM301 1034l102 416h179l-201 -436z" />
<glyph unicode="&#x201e;" horiz-adv-x="622" d="M10 -248l103 414h180l-205 -436zM272 -248l103 414h178l-203 -436z" />
<glyph unicode="&#x2022;" horiz-adv-x="366" d="M66 508q0 35 35.5 61.5t82.5 26.5t82 -24.5t35 -60.5t-23 -53q-42 -30 -91.5 -30t-82 22.5t-38.5 57.5z" />
<glyph unicode="&#x2026;" horiz-adv-x="2039" d="M258 82q0 41 29 70q31 27 71 26q41 0 68 -28q29 -25 29 -67t-29 -70.5t-70 -28.5t-69.5 28.5t-28.5 69.5zM940 82q0 41 29 70q31 27 71 26q41 0 68 -28q29 -25 29 -67t-29 -70.5t-70 -28.5t-69.5 28.5t-28.5 69.5zM1608 82q0 41 28.5 69.5t69.5 28.5t69.5 -28.5 t28.5 -69.5t-28.5 -69.5t-69.5 -28.5t-69.5 28.5t-28.5 69.5z" />
<glyph unicode="&#x202f;" horiz-adv-x="391" />
<glyph unicode="&#x2039;" horiz-adv-x="493" d="M82 508l242 410l88 -39l-185 -371l183 -369l-91 -33z" />
<glyph unicode="&#x203a;" horiz-adv-x="489" d="M82 139l174 369l-170 375l84 37l238 -412l-242 -399z" />
<glyph unicode="&#x205f;" horiz-adv-x="489" />
<glyph unicode="&#x20ac;" horiz-adv-x="1128" d="M88 844h723l53 94h-706zM117 672h612l49 90h-600zM262 731q0 -375 127 -564.5t373 -189.5q152 0 323 84l-28 123q-156 -84 -277 -84q-338 0 -338 613q0 659 336 659q114 0 244 -61l70 106q-181 78 -330 78q-242 0 -371 -194.5t-129 -569.5z" />
<glyph unicode="&#x2122;" horiz-adv-x="1634" d="M109 1382v93h440v-93l-170 2v-647h-103v647zM524 737l148 762h33l229 -504l12 -30q16 -44 17 -80l2 30l12 41l246 543h32l148 -762h-105l-77 445l-4 26l-3 9v32l3 33l-27 -88l-215 -477h-23l-211 469l-6 12l-24 84l2 -41v-24l-2 -9l-82 -471h-105z" />
<glyph unicode="&#xe000;" horiz-adv-x="1034" d="M0 0v1034h1034v-1034h-1034z" />
<glyph unicode="&#xe001;" horiz-adv-x="0" />
<glyph unicode="&#xe002;" horiz-adv-x="2048" />
</font>
</defs>
</svg>
